%TF.GenerationSoftware,KiCad,Pcbnew,9.0.6*%
%TF.CreationDate,2025-12-06T16:02:11-05:00*%
%TF.ProjectId,hackpad,6861636b-7061-4642-9e6b-696361645f70,rev?*%
%TF.SameCoordinates,Original*%
%TF.FileFunction,Legend,Bot*%
%TF.FilePolarity,Positive*%
%FSLAX46Y46*%
G04 Gerber Fmt 4.6, Leading zero omitted, Abs format (unit mm)*
G04 Created by KiCad (PCBNEW 9.0.6) date 2025-12-06 16:02:11*
%MOMM*%
%LPD*%
G01*
G04 APERTURE LIST*
%ADD10C,0.100000*%
%ADD11C,0.300000*%
%ADD12C,0.000000*%
G04 APERTURE END LIST*
D10*
G36*
X140400122Y-53144722D02*
G01*
X141450061Y-53144722D01*
X141450061Y-49427041D01*
X140400122Y-49427041D01*
X140400122Y-50484612D01*
X139350183Y-50484612D01*
X139350183Y-49434673D01*
X139875305Y-49434673D01*
X139875305Y-48901919D01*
X141975183Y-48901919D01*
X141975183Y-49427041D01*
X142500000Y-49427041D01*
X142500000Y-53137090D01*
X141975183Y-53137090D01*
X141975183Y-53669539D01*
X139875305Y-53669539D01*
X139875305Y-53137090D01*
X139350183Y-53137090D01*
X139350183Y-52086845D01*
X140400122Y-52086845D01*
X140400122Y-53144722D01*
G37*
G36*
X137776648Y-54724668D02*
G01*
X137776648Y-54197103D01*
X138826587Y-54197103D01*
X138826587Y-54722226D01*
X138301770Y-54722226D01*
X138301770Y-55249790D01*
X136201892Y-55249790D01*
X136201892Y-54722226D01*
X135676770Y-54722226D01*
X135676770Y-49957048D01*
X136726709Y-49957048D01*
X136726709Y-53144722D01*
X137776648Y-53144722D01*
X137776648Y-49957048D01*
X138826587Y-49957048D01*
X138826587Y-53144722D01*
X138301770Y-53144722D01*
X138301770Y-53669539D01*
X136726709Y-53669539D01*
X136726709Y-54724668D01*
X137776648Y-54724668D01*
G37*
G36*
X134103236Y-50482170D02*
G01*
X133053297Y-50482170D01*
X133053297Y-53669539D01*
X132003358Y-53669539D01*
X132003358Y-50482170D01*
X132528480Y-50482170D01*
X132528480Y-49957048D01*
X135153175Y-49957048D01*
X135153175Y-53669539D01*
X134103236Y-53669539D01*
X134103236Y-50482170D01*
G37*
G36*
X131479762Y-53669539D02*
G01*
X128855068Y-53669539D01*
X128855068Y-53144722D01*
X129379884Y-53144722D01*
X130429823Y-53144722D01*
X130429823Y-50482170D01*
X129379884Y-50482170D01*
X129379884Y-53144722D01*
X128855068Y-53144722D01*
X128329945Y-53144722D01*
X128329945Y-50482170D01*
X128855068Y-50482170D01*
X128855068Y-49957048D01*
X130429823Y-49957048D01*
X130429823Y-48901919D01*
X131479762Y-48901919D01*
X131479762Y-53669539D01*
G37*
G36*
X127281533Y-50482170D02*
G01*
X127806350Y-50482170D01*
X127806350Y-53144722D01*
X127281533Y-53144722D01*
X127281533Y-53669539D01*
X125181655Y-53669539D01*
X125181655Y-53144722D01*
X125706472Y-53144722D01*
X126756411Y-53144722D01*
X126756411Y-50482170D01*
X125706472Y-50482170D01*
X125706472Y-53144722D01*
X125181655Y-53144722D01*
X124656533Y-53144722D01*
X124656533Y-50482170D01*
X125181655Y-50482170D01*
X125181655Y-49957048D01*
X127281533Y-49957048D01*
X127281533Y-50482170D01*
G37*
G36*
X123608121Y-50484612D02*
G01*
X124132937Y-50484612D01*
X124132937Y-51009734D01*
X123082998Y-51009734D01*
X123082998Y-50482170D01*
X122033060Y-50482170D01*
X122033060Y-51542489D01*
X123608121Y-51542489D01*
X123608121Y-52086845D01*
X124132937Y-52086845D01*
X124132937Y-53137090D01*
X123608121Y-53137090D01*
X123608121Y-53669539D01*
X120983121Y-53669539D01*
X120983121Y-53144722D01*
X122033060Y-53144722D01*
X123082998Y-53144722D01*
X123082998Y-52067306D01*
X122033060Y-52067306D01*
X122033060Y-53144722D01*
X120983121Y-53144722D01*
X120983121Y-50482170D01*
X121508243Y-50482170D01*
X121508243Y-49957048D01*
X123608121Y-49957048D01*
X123608121Y-50484612D01*
G37*
G36*
X119409586Y-50482170D02*
G01*
X118359647Y-50482170D01*
X118359647Y-51539741D01*
X117309708Y-51539741D01*
X117309708Y-50489802D01*
X117834830Y-50489802D01*
X117834830Y-49957048D01*
X120459525Y-49957048D01*
X120459525Y-53669539D01*
X119409586Y-53669539D01*
X119409586Y-50482170D01*
G37*
G36*
X114686235Y-49957048D02*
G01*
X116261296Y-49957048D01*
X116261296Y-50482170D01*
X116786113Y-50482170D01*
X116786113Y-53144722D01*
X116261296Y-53144722D01*
X116261296Y-53669539D01*
X113636296Y-53669539D01*
X113636296Y-53144722D01*
X114686235Y-53144722D01*
X115736174Y-53144722D01*
X115736174Y-50482170D01*
X114686235Y-50482170D01*
X114686235Y-53144722D01*
X113636296Y-53144722D01*
X113636296Y-48901919D01*
X114686235Y-48901919D01*
X114686235Y-49957048D01*
G37*
G36*
X141450122Y-55973869D02*
G01*
X141450122Y-55760767D01*
X142290073Y-55760767D01*
X142290073Y-55970816D01*
X142500000Y-55970816D01*
X142500000Y-56605969D01*
X142290073Y-56605969D01*
X142290073Y-56815896D01*
X141660048Y-56815896D01*
X141660048Y-57457889D01*
X142080024Y-57457889D01*
X142080024Y-57034738D01*
X142500000Y-57034738D01*
X142500000Y-57454836D01*
X142290073Y-57454836D01*
X142290073Y-57667815D01*
X141450122Y-57667815D01*
X141450122Y-57454836D01*
X141240073Y-57454836D01*
X141240073Y-56815896D01*
X141450122Y-56815896D01*
X141450122Y-56605969D01*
X142080024Y-56605969D01*
X142080024Y-55970816D01*
X141660048Y-55970816D01*
X141660048Y-56393845D01*
X141240073Y-56393845D01*
X141240073Y-55973869D01*
X141450122Y-55973869D01*
G37*
G36*
X139980757Y-56392868D02*
G01*
X139980757Y-56182819D01*
X140610659Y-56182819D01*
X140610659Y-55760767D01*
X141030635Y-55760767D01*
X141030635Y-57667815D01*
X140610659Y-57667815D01*
X140610659Y-56392868D01*
X140190683Y-56392868D01*
X140190683Y-57667815D01*
X139770708Y-57667815D01*
X139770708Y-56392868D01*
X139980757Y-56392868D01*
G37*
G36*
X139351343Y-56392868D02*
G01*
X139561270Y-56392868D01*
X139561270Y-57457889D01*
X139351343Y-57457889D01*
X139351343Y-57667815D01*
X138511392Y-57667815D01*
X138511392Y-57457889D01*
X138721318Y-57457889D01*
X139141294Y-57457889D01*
X139141294Y-56392868D01*
X138721318Y-56392868D01*
X138721318Y-57457889D01*
X138511392Y-57457889D01*
X138301343Y-57457889D01*
X138301343Y-56392868D01*
X138511392Y-56392868D01*
X138511392Y-56182819D01*
X139351343Y-56182819D01*
X139351343Y-56392868D01*
G37*
G36*
X137251953Y-57457889D02*
G01*
X137671929Y-57457889D01*
X137671929Y-56182819D01*
X138091905Y-56182819D01*
X138091905Y-57457889D01*
X137881978Y-57457889D01*
X137881978Y-57667815D01*
X136831978Y-57667815D01*
X136831978Y-56182819D01*
X137251953Y-56182819D01*
X137251953Y-57457889D01*
G37*
G36*
X136622540Y-56392868D02*
G01*
X136202564Y-56392868D01*
X136202564Y-57457889D01*
X135992637Y-57457889D01*
X135992637Y-57667815D01*
X135362613Y-57667815D01*
X135362613Y-57457889D01*
X135782588Y-57457889D01*
X135782588Y-56392868D01*
X135362613Y-56392868D01*
X135362613Y-56182819D01*
X135782588Y-56182819D01*
X135782588Y-55760767D01*
X136202564Y-55760767D01*
X136202564Y-56182819D01*
X136622540Y-56182819D01*
X136622540Y-56392868D01*
G37*
G36*
X134314078Y-56392868D02*
G01*
X134524005Y-56392868D01*
X134524005Y-57457889D01*
X134314078Y-57457889D01*
X134314078Y-57667815D01*
X133474127Y-57667815D01*
X133474127Y-57457889D01*
X133684054Y-57457889D01*
X134104030Y-57457889D01*
X134104030Y-56392868D01*
X133684054Y-56392868D01*
X133684054Y-57457889D01*
X133474127Y-57457889D01*
X133264078Y-57457889D01*
X133264078Y-56392868D01*
X133474127Y-56392868D01*
X133474127Y-56182819D01*
X134314078Y-56182819D01*
X134314078Y-56392868D01*
G37*
G36*
X132214689Y-57457889D02*
G01*
X132634665Y-57457889D01*
X132634665Y-56182819D01*
X133054640Y-56182819D01*
X133054640Y-57457889D01*
X132844713Y-57457889D01*
X132844713Y-57667815D01*
X131794713Y-57667815D01*
X131794713Y-56182819D01*
X132214689Y-56182819D01*
X132214689Y-57457889D01*
G37*
G36*
X131585275Y-56392868D02*
G01*
X131165300Y-56392868D01*
X131165300Y-57457889D01*
X130955373Y-57457889D01*
X130955373Y-57667815D01*
X130325348Y-57667815D01*
X130325348Y-57457889D01*
X130745324Y-57457889D01*
X130745324Y-56392868D01*
X130325348Y-56392868D01*
X130325348Y-56182819D01*
X130745324Y-56182819D01*
X130745324Y-55760767D01*
X131165300Y-55760767D01*
X131165300Y-56182819D01*
X131585275Y-56182819D01*
X131585275Y-56392868D01*
G37*
G36*
X129486741Y-56392868D02*
G01*
X129066765Y-56392868D01*
X129066765Y-57457889D01*
X128856838Y-57457889D01*
X128856838Y-57667815D01*
X128226814Y-57667815D01*
X128226814Y-57457889D01*
X128646789Y-57457889D01*
X128646789Y-56392868D01*
X128226814Y-56392868D01*
X128226814Y-56182819D01*
X128646789Y-56182819D01*
X128646789Y-55760767D01*
X129066765Y-55760767D01*
X129066765Y-56182819D01*
X129486741Y-56182819D01*
X129486741Y-56392868D01*
G37*
G36*
X127807449Y-56392868D02*
G01*
X128017376Y-56392868D01*
X128017376Y-57457889D01*
X127807449Y-57457889D01*
X127807449Y-57667815D01*
X126967498Y-57667815D01*
X126967498Y-57457889D01*
X127177424Y-57457889D01*
X127597400Y-57457889D01*
X127597400Y-56392868D01*
X127177424Y-56392868D01*
X127177424Y-57457889D01*
X126967498Y-57457889D01*
X126757449Y-57457889D01*
X126757449Y-56392868D01*
X126967498Y-56392868D01*
X126967498Y-56182819D01*
X127807449Y-56182819D01*
X127807449Y-56392868D01*
G37*
G36*
X125498866Y-56822735D02*
G01*
X125078890Y-56822735D01*
X125078890Y-57667815D01*
X124658914Y-57667815D01*
X124658914Y-55760767D01*
X125078890Y-55760767D01*
X125078890Y-56612686D01*
X125498866Y-56612686D01*
X125498866Y-55760767D01*
X125918841Y-55760767D01*
X125918841Y-57667815D01*
X125498866Y-57667815D01*
X125498866Y-56822735D01*
G37*
G36*
X124239549Y-56393845D02*
G01*
X124449476Y-56393845D01*
X124449476Y-56603893D01*
X124029501Y-56603893D01*
X124029501Y-56392868D01*
X123609525Y-56392868D01*
X123609525Y-56816995D01*
X124239549Y-56816995D01*
X124239549Y-57034738D01*
X124449476Y-57034738D01*
X124449476Y-57454836D01*
X124239549Y-57454836D01*
X124239549Y-57667815D01*
X123189549Y-57667815D01*
X123189549Y-57457889D01*
X123609525Y-57457889D01*
X124029501Y-57457889D01*
X124029501Y-57026922D01*
X123609525Y-57026922D01*
X123609525Y-57457889D01*
X123189549Y-57457889D01*
X123189549Y-56392868D01*
X123399598Y-56392868D01*
X123399598Y-56182819D01*
X124239549Y-56182819D01*
X124239549Y-56393845D01*
G37*
G36*
X122140160Y-57457889D02*
G01*
X122560136Y-57457889D01*
X122560136Y-56392868D01*
X122140160Y-56392868D01*
X122140160Y-56815896D01*
X121720184Y-56815896D01*
X121720184Y-56395921D01*
X121930233Y-56395921D01*
X121930233Y-56182819D01*
X122770184Y-56182819D01*
X122770184Y-56392868D01*
X122980111Y-56392868D01*
X122980111Y-57454836D01*
X122770184Y-57454836D01*
X122770184Y-57667815D01*
X121930233Y-57667815D01*
X121930233Y-57454836D01*
X121720184Y-57454836D01*
X121720184Y-57034738D01*
X122140160Y-57034738D01*
X122140160Y-57457889D01*
G37*
G36*
X121090771Y-57026922D02*
G01*
X120880844Y-57026922D01*
X120880844Y-57247840D01*
X120670795Y-57247840D01*
X120670795Y-57667815D01*
X120250819Y-57667815D01*
X120250819Y-57247840D01*
X120460868Y-57247840D01*
X120460868Y-57026922D01*
X120670795Y-57026922D01*
X120670795Y-56816995D01*
X120460868Y-56816995D01*
X120460868Y-56602916D01*
X120250819Y-56602916D01*
X120250819Y-56182819D01*
X120670795Y-56182819D01*
X120670795Y-56602916D01*
X120880844Y-56602916D01*
X120880844Y-56816995D01*
X121090771Y-56816995D01*
X121090771Y-55760767D01*
X121510746Y-55760767D01*
X121510746Y-57667815D01*
X121090771Y-57667815D01*
X121090771Y-57026922D01*
G37*
G36*
X118572260Y-57457889D02*
G01*
X118992236Y-57457889D01*
X118992236Y-55970816D01*
X118572260Y-55970816D01*
X118572260Y-56393845D01*
X118152285Y-56393845D01*
X118152285Y-55973869D01*
X118362334Y-55973869D01*
X118362334Y-55760767D01*
X119202285Y-55760767D01*
X119202285Y-55970816D01*
X119412212Y-55970816D01*
X119412212Y-57454836D01*
X119202285Y-57454836D01*
X119202285Y-57667815D01*
X118362334Y-57667815D01*
X118362334Y-57454836D01*
X118152285Y-57454836D01*
X118152285Y-57034738D01*
X118572260Y-57034738D01*
X118572260Y-57457889D01*
G37*
G36*
X117522871Y-55970816D02*
G01*
X117522871Y-57457889D01*
X117942847Y-57457889D01*
X117942847Y-57667815D01*
X116682920Y-57667815D01*
X116682920Y-57457889D01*
X117102896Y-57457889D01*
X117102896Y-55760767D01*
X117942847Y-55760767D01*
X117942847Y-55970816D01*
X117522871Y-55970816D01*
G37*
G36*
X115633531Y-57457889D02*
G01*
X116053506Y-57457889D01*
X116053506Y-56182819D01*
X116473482Y-56182819D01*
X116473482Y-57457889D01*
X116263555Y-57457889D01*
X116263555Y-57667815D01*
X115213555Y-57667815D01*
X115213555Y-56182819D01*
X115633531Y-56182819D01*
X115633531Y-57457889D01*
G37*
G36*
X115004117Y-57667815D02*
G01*
X113954239Y-57667815D01*
X113954239Y-57457889D01*
X114164166Y-57457889D01*
X114584141Y-57457889D01*
X114584141Y-56392868D01*
X114164166Y-56392868D01*
X114164166Y-57457889D01*
X113954239Y-57457889D01*
X113744190Y-57457889D01*
X113744190Y-56392868D01*
X113954239Y-56392868D01*
X113954239Y-56182819D01*
X114584141Y-56182819D01*
X114584141Y-55760767D01*
X115004117Y-55760767D01*
X115004117Y-57667815D01*
G37*
D11*
X111821427Y-98249757D02*
X111964285Y-98178328D01*
X111964285Y-98178328D02*
X112178570Y-98178328D01*
X112178570Y-98178328D02*
X112392856Y-98249757D01*
X112392856Y-98249757D02*
X112535713Y-98392614D01*
X112535713Y-98392614D02*
X112607142Y-98535471D01*
X112607142Y-98535471D02*
X112678570Y-98821185D01*
X112678570Y-98821185D02*
X112678570Y-99035471D01*
X112678570Y-99035471D02*
X112607142Y-99321185D01*
X112607142Y-99321185D02*
X112535713Y-99464042D01*
X112535713Y-99464042D02*
X112392856Y-99606900D01*
X112392856Y-99606900D02*
X112178570Y-99678328D01*
X112178570Y-99678328D02*
X112035713Y-99678328D01*
X112035713Y-99678328D02*
X111821427Y-99606900D01*
X111821427Y-99606900D02*
X111749999Y-99535471D01*
X111749999Y-99535471D02*
X111749999Y-99035471D01*
X111749999Y-99035471D02*
X112035713Y-99035471D01*
X110892856Y-98178328D02*
X110892856Y-98535471D01*
X111249999Y-98392614D02*
X110892856Y-98535471D01*
X110892856Y-98535471D02*
X110535713Y-98392614D01*
X111107142Y-98821185D02*
X110892856Y-98535471D01*
X110892856Y-98535471D02*
X110678570Y-98821185D01*
X109749999Y-98178328D02*
X109749999Y-98535471D01*
X110107142Y-98392614D02*
X109749999Y-98535471D01*
X109749999Y-98535471D02*
X109392856Y-98392614D01*
X109964285Y-98821185D02*
X109749999Y-98535471D01*
X109749999Y-98535471D02*
X109535713Y-98821185D01*
X108607142Y-98178328D02*
X108607142Y-98535471D01*
X108964285Y-98392614D02*
X108607142Y-98535471D01*
X108607142Y-98535471D02*
X108249999Y-98392614D01*
X108821428Y-98821185D02*
X108607142Y-98535471D01*
X108607142Y-98535471D02*
X108392856Y-98821185D01*
D12*
%TO.C,G\u002A\u002A\u002A*%
G36*
X124213425Y-73177137D02*
G01*
X124255799Y-73800333D01*
X124343791Y-74625369D01*
X124473967Y-75338397D01*
X124663503Y-76008340D01*
X124929575Y-76704121D01*
X125289359Y-77494666D01*
X125323014Y-77563781D01*
X125682094Y-78203394D01*
X126107213Y-78824301D01*
X126560067Y-79379111D01*
X127002355Y-79820433D01*
X127395773Y-80100875D01*
X127645165Y-80191166D01*
X128123645Y-80209514D01*
X128185876Y-80200687D01*
X128404263Y-80196368D01*
X128456169Y-80249384D01*
X128318314Y-80357491D01*
X128001984Y-80486540D01*
X127582288Y-80600218D01*
X127125263Y-80681159D01*
X126696948Y-80711999D01*
X126472948Y-80703900D01*
X126174694Y-80654385D01*
X125866493Y-80542188D01*
X125507125Y-80347264D01*
X125055367Y-80049567D01*
X124470000Y-79629052D01*
X124308895Y-79520050D01*
X124229033Y-79537213D01*
X124216000Y-79742076D01*
X124274508Y-80082152D01*
X124429576Y-80535670D01*
X124648466Y-81027687D01*
X124898439Y-81484654D01*
X125146755Y-81833021D01*
X125191801Y-81888117D01*
X125425064Y-82173419D01*
X126063426Y-83176017D01*
X126540741Y-84287435D01*
X126628382Y-84572666D01*
X126714188Y-85048884D01*
X126791868Y-85480008D01*
X126765370Y-86314226D01*
X126555891Y-87057106D01*
X126170435Y-87690432D01*
X125616007Y-88195989D01*
X124899610Y-88555562D01*
X124777733Y-88595905D01*
X124418220Y-88689653D01*
X124145362Y-88727110D01*
X124003149Y-88730829D01*
X123900611Y-88775835D01*
X123914280Y-88917301D01*
X124031086Y-89210514D01*
X124205060Y-89531426D01*
X124554474Y-89874063D01*
X125070153Y-90120399D01*
X125514222Y-90274450D01*
X124870498Y-90569230D01*
X124624401Y-90677879D01*
X124323537Y-90780806D01*
X124093441Y-90795955D01*
X123854498Y-90736429D01*
X123824918Y-90726178D01*
X123360207Y-90524526D01*
X122928067Y-90240723D01*
X122448401Y-89822721D01*
X121979024Y-89377850D01*
X121679197Y-89830919D01*
X121674042Y-89838673D01*
X121375856Y-90182647D01*
X121076773Y-90341833D01*
X120951288Y-90362390D01*
X120725522Y-90352468D01*
X120692232Y-90228615D01*
X120841910Y-89976020D01*
X120880407Y-89917104D01*
X121013116Y-89645718D01*
X121157059Y-89278834D01*
X121292683Y-88877260D01*
X121400432Y-88501801D01*
X121460752Y-88213264D01*
X121456462Y-88122641D01*
X123912568Y-88122641D01*
X123999381Y-88091258D01*
X124200230Y-87933367D01*
X124464781Y-87682603D01*
X124617701Y-87513803D01*
X124985716Y-87009896D01*
X125324493Y-86426389D01*
X125590592Y-85843062D01*
X125740569Y-85339691D01*
X125757840Y-85048884D01*
X125723206Y-84569191D01*
X125640669Y-84040151D01*
X125524970Y-83552145D01*
X125390850Y-83195555D01*
X125351245Y-83124647D01*
X125291984Y-83060395D01*
X125258055Y-83133411D01*
X125242040Y-83373191D01*
X125236520Y-83809231D01*
X125226372Y-84109355D01*
X125176430Y-84649162D01*
X125094648Y-85195585D01*
X124991971Y-85690604D01*
X124879344Y-86076200D01*
X124767712Y-86294355D01*
X124732876Y-86341709D01*
X124667556Y-86561810D01*
X124667555Y-86562113D01*
X124611496Y-86734954D01*
X124465204Y-87033220D01*
X124260250Y-87392519D01*
X124248282Y-87412286D01*
X124057380Y-87749596D01*
X123936937Y-88004311D01*
X123912568Y-88122641D01*
X121456462Y-88122641D01*
X121454086Y-88072455D01*
X121382107Y-88082163D01*
X121221757Y-88205671D01*
X121123947Y-88323508D01*
X121123452Y-88388444D01*
X121110614Y-88425273D01*
X120972774Y-88587019D01*
X120722078Y-88847977D01*
X120388787Y-89175719D01*
X120087682Y-89456538D01*
X119682705Y-89789028D01*
X119325236Y-90009004D01*
X118957716Y-90155890D01*
X118659837Y-90255857D01*
X118450260Y-90362753D01*
X118363123Y-90496556D01*
X118345778Y-90704467D01*
X118310092Y-90957580D01*
X118182716Y-91060147D01*
X118111254Y-91053080D01*
X118036523Y-90994295D01*
X118037627Y-90980801D01*
X118005480Y-90809067D01*
X117926005Y-90533332D01*
X117914437Y-90495485D01*
X117829947Y-90108954D01*
X117754343Y-89593260D01*
X117698306Y-89033452D01*
X117672513Y-88514576D01*
X117653821Y-88412977D01*
X117583467Y-88400488D01*
X117434572Y-88496067D01*
X117180235Y-88717043D01*
X117077258Y-88813901D01*
X116793556Y-89080744D01*
X116565868Y-89294794D01*
X115799477Y-89957234D01*
X115125914Y-90438828D01*
X114529497Y-90751145D01*
X114287336Y-90827955D01*
X114058626Y-90809381D01*
X113994370Y-90639361D01*
X114102838Y-90326132D01*
X114107839Y-90316374D01*
X114230857Y-90010764D01*
X114281778Y-89756350D01*
X114271841Y-89657276D01*
X114208098Y-89622473D01*
X114047054Y-89697176D01*
X113745556Y-89892327D01*
X113551980Y-90009647D01*
X113062460Y-90244391D01*
X112588444Y-90407238D01*
X112330691Y-90477997D01*
X112009579Y-90586179D01*
X111826444Y-90674589D01*
X111753290Y-90797557D01*
X111700190Y-91049350D01*
X111689014Y-91333613D01*
X111721926Y-91566014D01*
X111801091Y-91662221D01*
X111827035Y-91669429D01*
X111975332Y-91809494D01*
X112182579Y-92090680D01*
X112418754Y-92463545D01*
X112653836Y-92878645D01*
X112730576Y-93032109D01*
X112857803Y-93286537D01*
X113000634Y-93637777D01*
X113078018Y-93844800D01*
X113227368Y-94152843D01*
X113359582Y-94327716D01*
X113369222Y-94335013D01*
X113557523Y-94621348D01*
X113619413Y-95079522D01*
X113649529Y-95183003D01*
X113705473Y-95270220D01*
X113805625Y-95426359D01*
X114050453Y-95700411D01*
X114590504Y-96228224D01*
X115097578Y-96731046D01*
X115482022Y-97124290D01*
X115766389Y-97432555D01*
X115973234Y-97680439D01*
X116125111Y-97892544D01*
X116244577Y-98093468D01*
X116343324Y-98287579D01*
X116579035Y-98915873D01*
X116738687Y-99662444D01*
X116834318Y-100578009D01*
X116834905Y-100586780D01*
X116876770Y-101065856D01*
X116931851Y-101509326D01*
X116988388Y-101822221D01*
X117014212Y-101936371D01*
X117084996Y-102316188D01*
X117154577Y-102760026D01*
X117208723Y-103172721D01*
X117233200Y-103459110D01*
X117241384Y-103508873D01*
X117339071Y-103696086D01*
X117387971Y-103790859D01*
X117477411Y-104067100D01*
X117562768Y-104429863D01*
X117610198Y-104668320D01*
X117682605Y-105028331D01*
X117731299Y-105265332D01*
X117742764Y-105310586D01*
X117826037Y-105569380D01*
X117962708Y-105952309D01*
X118129782Y-106394221D01*
X118151940Y-106451634D01*
X118348469Y-106985853D01*
X118534829Y-107530017D01*
X118562174Y-107617781D01*
X118673371Y-107974666D01*
X118777517Y-108340458D01*
X118843660Y-108589547D01*
X118886110Y-108797506D01*
X118922803Y-109052631D01*
X118971676Y-109443221D01*
X119012755Y-109698801D01*
X119082682Y-109961346D01*
X119151334Y-110063110D01*
X119222479Y-110020285D01*
X119396637Y-109835792D01*
X119611613Y-109555110D01*
X119762694Y-109350224D01*
X119944926Y-109131876D01*
X120047676Y-109047110D01*
X120100292Y-109011588D01*
X120180422Y-108837727D01*
X120211498Y-108774652D01*
X120404376Y-108588752D01*
X120533859Y-108512040D01*
X121252667Y-108512040D01*
X121294814Y-108699456D01*
X121432859Y-109026471D01*
X121633667Y-109392499D01*
X121819322Y-109694661D01*
X122020159Y-110022006D01*
X122150609Y-110235194D01*
X122283908Y-110462604D01*
X122680613Y-111224746D01*
X123085717Y-112111069D01*
X123469597Y-113050506D01*
X123802630Y-113971987D01*
X124055192Y-114804444D01*
X124161039Y-115178210D01*
X124259131Y-115477798D01*
X124324353Y-115624144D01*
X124354215Y-115624221D01*
X124467753Y-115492109D01*
X124631863Y-115220397D01*
X124823534Y-114856118D01*
X125019756Y-114446306D01*
X125197518Y-114037993D01*
X125333812Y-113678213D01*
X125405627Y-113413999D01*
X125425106Y-113187163D01*
X125380513Y-113018814D01*
X125272384Y-113055979D01*
X125127173Y-113308666D01*
X125051554Y-113463955D01*
X124868748Y-113756993D01*
X124666219Y-114015616D01*
X124488253Y-114186166D01*
X124379136Y-114214986D01*
X124371591Y-114143672D01*
X124447535Y-113919806D01*
X124600374Y-113608396D01*
X124797855Y-113267836D01*
X125007728Y-112956520D01*
X125197741Y-112732840D01*
X125276549Y-112649162D01*
X125414122Y-112377858D01*
X125451889Y-111982221D01*
X125410930Y-111374404D01*
X125283129Y-110575270D01*
X125086705Y-109721335D01*
X124840257Y-108882725D01*
X124562382Y-108129566D01*
X124271677Y-107531985D01*
X124021903Y-107146779D01*
X123731194Y-106762371D01*
X123443368Y-106431412D01*
X123198086Y-106199442D01*
X123035006Y-106111999D01*
X122918097Y-106156108D01*
X122676842Y-106356033D01*
X122380979Y-106676534D01*
X122063940Y-107072594D01*
X121759156Y-107499194D01*
X121500061Y-107911314D01*
X121320087Y-108263936D01*
X121252667Y-108512040D01*
X120533859Y-108512040D01*
X120698676Y-108414394D01*
X120821374Y-108353956D01*
X121083402Y-108163626D01*
X121165088Y-107955851D01*
X121183660Y-107802429D01*
X121252667Y-107673629D01*
X121255787Y-107671979D01*
X121363664Y-107555916D01*
X121554414Y-107305930D01*
X121788856Y-106973204D01*
X121879328Y-106842227D01*
X122271261Y-106330381D01*
X122600411Y-106010157D01*
X122884992Y-105866934D01*
X123143217Y-105886093D01*
X123234053Y-105915406D01*
X123395404Y-105910969D01*
X123565357Y-105788766D01*
X123804079Y-105515011D01*
X123958408Y-105314871D01*
X124243545Y-104913934D01*
X124565402Y-104434975D01*
X124896370Y-103921889D01*
X125208845Y-103418572D01*
X125475219Y-102968920D01*
X125667887Y-102616829D01*
X125759241Y-102406193D01*
X125771518Y-102267187D01*
X125681969Y-102032099D01*
X125433718Y-101728860D01*
X125330046Y-101610262D01*
X124968642Y-101057863D01*
X124642565Y-100346403D01*
X124376860Y-99528035D01*
X124364582Y-99481165D01*
X124278074Y-99025828D01*
X124298352Y-98676602D01*
X124429301Y-98345979D01*
X124452215Y-98307957D01*
X124624453Y-98114216D01*
X124852623Y-97930122D01*
X125065924Y-97806716D01*
X125193555Y-97795035D01*
X125241208Y-97786277D01*
X125408990Y-97661725D01*
X125642496Y-97437166D01*
X126036583Y-97024444D01*
X125747181Y-97501978D01*
X125649176Y-97668219D01*
X125511733Y-97922532D01*
X125457778Y-98055767D01*
X125467163Y-98087171D01*
X125570558Y-98263596D01*
X125751400Y-98516980D01*
X125820158Y-98603798D01*
X126025878Y-98800020D01*
X126148285Y-98788212D01*
X126190116Y-98568698D01*
X126227507Y-98453951D01*
X126417333Y-98408234D01*
X126880079Y-98445240D01*
X127503759Y-98402847D01*
X127970620Y-98241442D01*
X127980376Y-98235679D01*
X128260962Y-98003542D01*
X128439997Y-97731721D01*
X128491326Y-97478868D01*
X128392632Y-97310191D01*
X129086314Y-97310191D01*
X129117068Y-97715763D01*
X129296000Y-97957801D01*
X129394681Y-98037065D01*
X129513834Y-98267603D01*
X129472678Y-98493254D01*
X129273823Y-98634422D01*
X129155262Y-98667460D01*
X129097396Y-98715230D01*
X129245601Y-98785253D01*
X129355174Y-98825722D01*
X129572909Y-98859809D01*
X129678867Y-98741116D01*
X129718066Y-98462775D01*
X130086222Y-98462775D01*
X130132174Y-98646497D01*
X130312000Y-98860912D01*
X130383476Y-98916167D01*
X130516122Y-99137901D01*
X130513898Y-99370133D01*
X130369093Y-99523371D01*
X130292921Y-99569604D01*
X130262866Y-99689161D01*
X130277024Y-99708736D01*
X130433972Y-99790221D01*
X130516179Y-99748892D01*
X130606382Y-99599677D01*
X130721109Y-99305845D01*
X130877331Y-98830666D01*
X130895773Y-98775113D01*
X131061309Y-98383873D01*
X131252637Y-98048282D01*
X131296154Y-97984402D01*
X131385977Y-97821868D01*
X131359388Y-97795267D01*
X131353934Y-97798386D01*
X131243618Y-97750909D01*
X131154817Y-97505206D01*
X131077261Y-97235759D01*
X130930413Y-96958989D01*
X130768796Y-96855110D01*
X130764161Y-96855678D01*
X130668134Y-96965579D01*
X130529764Y-97222411D01*
X130375718Y-97563360D01*
X130232667Y-97925613D01*
X130127278Y-98246356D01*
X130086222Y-98462775D01*
X129718066Y-98462775D01*
X129722211Y-98433345D01*
X129831711Y-97926569D01*
X130081336Y-97335331D01*
X130442685Y-96727663D01*
X130503935Y-96636673D01*
X130583168Y-96465477D01*
X130547724Y-96302150D01*
X130390128Y-96050329D01*
X130152942Y-95781983D01*
X129867151Y-95669777D01*
X129776388Y-95678409D01*
X129633293Y-95760774D01*
X129500158Y-95968334D01*
X129341250Y-96347110D01*
X129203550Y-96747737D01*
X129086314Y-97310191D01*
X128392632Y-97310191D01*
X128388797Y-97303637D01*
X128288109Y-97261685D01*
X128182347Y-97338506D01*
X128107566Y-97477662D01*
X127850927Y-97677764D01*
X127521103Y-97758221D01*
X127418176Y-97745593D01*
X127230274Y-97631290D01*
X127168247Y-97458377D01*
X127272609Y-97301345D01*
X127291533Y-97289478D01*
X127359484Y-97229194D01*
X127317132Y-97176618D01*
X127128098Y-97111480D01*
X126756000Y-97013510D01*
X126569810Y-96961410D01*
X126522253Y-96919944D01*
X126667599Y-96883830D01*
X126731558Y-96867969D01*
X126897728Y-96730352D01*
X126994579Y-96424415D01*
X127017802Y-96318545D01*
X127117965Y-95956656D01*
X127264767Y-95489888D01*
X127435370Y-94992444D01*
X127466417Y-94904565D01*
X127736429Y-93949717D01*
X127863729Y-93016888D01*
X127874572Y-92860997D01*
X127885893Y-92739772D01*
X128214211Y-92739772D01*
X128298762Y-92917983D01*
X128427837Y-92974632D01*
X128750103Y-93008101D01*
X129028203Y-92930493D01*
X129074514Y-92853022D01*
X129157834Y-92586860D01*
X129249634Y-92184016D01*
X129337091Y-91695752D01*
X129385891Y-91408616D01*
X129498985Y-90846396D01*
X129621037Y-90342606D01*
X129732959Y-89979971D01*
X129831567Y-89702635D01*
X129885968Y-89446829D01*
X129833647Y-89323516D01*
X129670894Y-89291555D01*
X129549790Y-89336318D01*
X129338061Y-89555406D01*
X129106807Y-89918869D01*
X128872187Y-90383997D01*
X128650361Y-90908081D01*
X128457491Y-91448411D01*
X128309735Y-91962276D01*
X128223255Y-92406967D01*
X128214211Y-92739772D01*
X127885893Y-92739772D01*
X127945133Y-92105410D01*
X128045070Y-91500428D01*
X128191608Y-90982437D01*
X128401973Y-90487824D01*
X128693391Y-89952974D01*
X128851760Y-89696397D01*
X129183302Y-89268356D01*
X129501768Y-89028010D01*
X129832756Y-88952888D01*
X129847127Y-88953038D01*
X130088373Y-89032258D01*
X130195108Y-89264002D01*
X130182941Y-89446829D01*
X130168824Y-89658954D01*
X130011015Y-90227797D01*
X129920866Y-90497865D01*
X129794191Y-90911085D01*
X129706938Y-91276338D01*
X129639069Y-91684554D01*
X129570547Y-92226666D01*
X129554428Y-92364403D01*
X129509537Y-92792726D01*
X129489437Y-93134966D01*
X129490475Y-93494934D01*
X129508999Y-93976444D01*
X129539585Y-94653777D01*
X129803716Y-94102340D01*
X129901526Y-93893365D01*
X130053103Y-93549951D01*
X130146515Y-93312117D01*
X130198649Y-93157999D01*
X130240258Y-93044924D01*
X130578152Y-93044924D01*
X130585949Y-93146388D01*
X130746560Y-93205512D01*
X130894858Y-93265198D01*
X130989333Y-93368721D01*
X131022401Y-93422862D01*
X131194338Y-93468444D01*
X131303994Y-93430023D01*
X131469079Y-93224165D01*
X131654720Y-92819332D01*
X131832303Y-92369808D01*
X132089369Y-91729804D01*
X132283499Y-91265016D01*
X132424878Y-90952256D01*
X132523693Y-90768342D01*
X132590128Y-90690089D01*
X132632956Y-90653157D01*
X132774127Y-90423451D01*
X132904420Y-90082926D01*
X132989213Y-89716077D01*
X133002780Y-89593823D01*
X132971385Y-89462816D01*
X132829913Y-89478406D01*
X132582014Y-89612785D01*
X132196332Y-89975157D01*
X131799723Y-90511177D01*
X131414964Y-91193242D01*
X131309062Y-91409757D01*
X131114198Y-91830008D01*
X130972650Y-92165321D01*
X130909526Y-92357846D01*
X130838769Y-92576697D01*
X130690248Y-92857447D01*
X130578152Y-93044924D01*
X130240258Y-93044924D01*
X130250574Y-93016888D01*
X130353479Y-92787314D01*
X130526707Y-92393566D01*
X130621708Y-92162733D01*
X130650667Y-92065850D01*
X130694066Y-91934065D01*
X130820652Y-91650783D01*
X131003492Y-91273157D01*
X131215382Y-90854816D01*
X131429124Y-90449390D01*
X131617515Y-90110509D01*
X131753353Y-89891803D01*
X131982033Y-89627971D01*
X132324865Y-89347049D01*
X132669767Y-89158968D01*
X132948817Y-89108249D01*
X133152313Y-89188601D01*
X133318764Y-89430579D01*
X133333179Y-89593823D01*
X133350497Y-89789936D01*
X133246190Y-90228672D01*
X133004520Y-90708786D01*
X132877430Y-90920157D01*
X132625389Y-91394189D01*
X132427961Y-91831555D01*
X132345049Y-92041000D01*
X132204157Y-92387687D01*
X132104330Y-92621777D01*
X132061481Y-92733483D01*
X131957855Y-93046020D01*
X131823825Y-93479685D01*
X131677671Y-93976444D01*
X131578346Y-94321176D01*
X131453153Y-94751839D01*
X131359899Y-95067944D01*
X131313614Y-95218221D01*
X131320142Y-95318384D01*
X131396034Y-95580718D01*
X131529042Y-95922135D01*
X131535843Y-95937773D01*
X131809395Y-96416211D01*
X131866382Y-96465477D01*
X132125647Y-96689616D01*
X132251772Y-96767189D01*
X132577117Y-97084008D01*
X132815307Y-97478681D01*
X132897951Y-97821868D01*
X132908023Y-97863691D01*
X132902496Y-97937623D01*
X132827020Y-98249545D01*
X132691237Y-98597468D01*
X132541426Y-98920394D01*
X132190582Y-99754490D01*
X131927790Y-100523999D01*
X131797441Y-100892518D01*
X131542292Y-101488123D01*
X131216066Y-102166999D01*
X130848702Y-102870040D01*
X130470139Y-103538139D01*
X130110314Y-104112190D01*
X129862294Y-104487938D01*
X129553386Y-104975079D01*
X129221564Y-105521365D01*
X128846014Y-106161826D01*
X128405926Y-106931492D01*
X127880488Y-107865390D01*
X127678429Y-108221283D01*
X127252714Y-108941489D01*
X126829869Y-109621533D01*
X126435666Y-110221612D01*
X126095875Y-110701924D01*
X125836267Y-111022666D01*
X125765057Y-111114829D01*
X125695131Y-111282166D01*
X125653800Y-111536344D01*
X125634599Y-111923612D01*
X125634233Y-111982221D01*
X125631059Y-112490221D01*
X125631118Y-112512122D01*
X125616559Y-113215021D01*
X125569476Y-113696151D01*
X125489948Y-113954673D01*
X125404703Y-114122543D01*
X125344889Y-114369943D01*
X125314532Y-114508839D01*
X125171524Y-114735904D01*
X125068689Y-114851101D01*
X125000703Y-114969036D01*
X124987614Y-115040309D01*
X124898361Y-115258033D01*
X124762843Y-115515557D01*
X124626247Y-115730490D01*
X124533758Y-115820444D01*
X124491605Y-115839394D01*
X124441778Y-115989777D01*
X124429371Y-116067632D01*
X124331683Y-116159110D01*
X124281111Y-116230539D01*
X124338633Y-116466962D01*
X124390636Y-116673891D01*
X124423862Y-117026938D01*
X124421319Y-117196935D01*
X124418339Y-117396194D01*
X124376281Y-117701762D01*
X124299904Y-117863744D01*
X124261619Y-117899749D01*
X124173376Y-118089522D01*
X124098057Y-118393292D01*
X123981770Y-118654251D01*
X123863064Y-118755555D01*
X123825508Y-118764229D01*
X123820889Y-118868444D01*
X123839421Y-118911361D01*
X123784803Y-118981332D01*
X123671591Y-119074217D01*
X123547874Y-119297771D01*
X123538785Y-119318895D01*
X123359643Y-119628124D01*
X123122421Y-119931685D01*
X123069363Y-119989344D01*
X122916541Y-120186624D01*
X122901833Y-120342162D01*
X123007316Y-120552647D01*
X123166547Y-120871018D01*
X123380061Y-121398352D01*
X123606883Y-122046737D01*
X123827329Y-122763110D01*
X123874340Y-122981389D01*
X123935855Y-123482273D01*
X123982850Y-124143386D01*
X124015298Y-124925053D01*
X124033171Y-125787600D01*
X124036440Y-126691350D01*
X124033238Y-126946479D01*
X124025078Y-127596631D01*
X123999056Y-128463766D01*
X123958347Y-129253082D01*
X123902922Y-129924903D01*
X123832754Y-130439555D01*
X123805164Y-130592065D01*
X123712033Y-131134879D01*
X123631769Y-131641831D01*
X123579275Y-132019999D01*
X123553585Y-132220892D01*
X123509264Y-132507251D01*
X123476404Y-132646278D01*
X123478493Y-132756585D01*
X123597296Y-132923968D01*
X123775745Y-133025851D01*
X123936338Y-133061175D01*
X124216000Y-133129079D01*
X124244161Y-133136190D01*
X124471123Y-133192050D01*
X124868008Y-133288367D01*
X125443096Y-133427132D01*
X126204670Y-133610339D01*
X127161009Y-133839981D01*
X128320396Y-134118049D01*
X129691111Y-134446537D01*
X129906653Y-134498203D01*
X130948838Y-134748714D01*
X131998342Y-135002042D01*
X133022749Y-135250287D01*
X133989643Y-135485546D01*
X134866609Y-135699919D01*
X135621230Y-135885505D01*
X136221092Y-136034404D01*
X136633778Y-136138714D01*
X136684928Y-136151847D01*
X137131613Y-136263592D01*
X137517037Y-136355318D01*
X137762667Y-136408271D01*
X137803403Y-136416460D01*
X138058761Y-136473840D01*
X138484422Y-136573494D01*
X139043620Y-136706685D01*
X139699586Y-136864675D01*
X140415556Y-137038726D01*
X140580249Y-137078942D01*
X141937238Y-137410267D01*
X143092895Y-137692710D01*
X144063358Y-137930689D01*
X144864769Y-138128624D01*
X145513268Y-138290936D01*
X146024993Y-138422045D01*
X146416087Y-138526370D01*
X146702688Y-138608333D01*
X146900937Y-138672352D01*
X147026974Y-138722847D01*
X147096939Y-138764240D01*
X147126971Y-138800949D01*
X147133212Y-138837396D01*
X147131802Y-138877999D01*
X147129243Y-138889392D01*
X147110726Y-138907086D01*
X147068149Y-138923625D01*
X146994310Y-138939048D01*
X146882003Y-138953394D01*
X146724025Y-138966701D01*
X146513170Y-138979009D01*
X146242236Y-138990356D01*
X145904016Y-139000781D01*
X145491309Y-139010322D01*
X144996908Y-139019020D01*
X144413610Y-139026913D01*
X143734211Y-139034039D01*
X142951506Y-139040437D01*
X142058292Y-139046146D01*
X141047363Y-139051206D01*
X139911516Y-139055654D01*
X138643546Y-139059531D01*
X137236249Y-139062874D01*
X135682421Y-139065722D01*
X133974858Y-139068115D01*
X132106356Y-139070091D01*
X130069709Y-139071689D01*
X127857714Y-139072947D01*
X125463168Y-139073906D01*
X122878864Y-139074603D01*
X120097600Y-139075078D01*
X117112171Y-139075369D01*
X113915372Y-139075515D01*
X110500000Y-139075555D01*
X73867556Y-139075555D01*
X73867556Y-129981337D01*
X73867766Y-129359982D01*
X73869785Y-127978269D01*
X73871919Y-127285305D01*
X83719284Y-127285305D01*
X83797668Y-127644266D01*
X83986165Y-127823897D01*
X84291319Y-127836774D01*
X84351091Y-127827437D01*
X84509618Y-127857244D01*
X84535533Y-128040976D01*
X84532699Y-128178575D01*
X84606981Y-128642362D01*
X84781333Y-129072395D01*
X85021157Y-129373722D01*
X85087906Y-129424265D01*
X85282693Y-129522853D01*
X85393953Y-129461018D01*
X85397396Y-129455651D01*
X85480607Y-129444142D01*
X85562349Y-129652145D01*
X85676575Y-129920198D01*
X85880550Y-130178724D01*
X86066358Y-130309808D01*
X86236084Y-130379354D01*
X86253114Y-130377967D01*
X86419275Y-130272295D01*
X86616644Y-130054524D01*
X86783041Y-129803135D01*
X86856282Y-129596606D01*
X86892697Y-129198198D01*
X86901994Y-129146036D01*
X87207818Y-129146036D01*
X87262449Y-129350560D01*
X87455514Y-129516134D01*
X87556711Y-129582648D01*
X87724909Y-129678781D01*
X87838006Y-129676766D01*
X87995438Y-129590254D01*
X88067821Y-129518145D01*
X88204472Y-129262769D01*
X88317142Y-128916354D01*
X88374472Y-128706333D01*
X88470752Y-128450840D01*
X88549255Y-128351110D01*
X88568436Y-128343796D01*
X88650682Y-128199195D01*
X88722417Y-127927777D01*
X88727741Y-127899459D01*
X88823548Y-127529950D01*
X88942689Y-127220142D01*
X89015322Y-126946479D01*
X88904077Y-126686502D01*
X88578755Y-126450439D01*
X88382016Y-126360084D01*
X88163486Y-126336633D01*
X88115119Y-126432702D01*
X88091556Y-126479505D01*
X88083150Y-126532175D01*
X88007891Y-126775572D01*
X87871348Y-127143872D01*
X87694072Y-127580172D01*
X87627773Y-127740397D01*
X87446404Y-128214468D01*
X87305566Y-128634057D01*
X87231336Y-128923468D01*
X87207818Y-129146036D01*
X86901994Y-129146036D01*
X86997026Y-128612824D01*
X87149300Y-128002973D01*
X87331433Y-127430878D01*
X87525339Y-126958772D01*
X87712932Y-126648888D01*
X87841928Y-126432702D01*
X87815552Y-126187072D01*
X87570584Y-125995074D01*
X87444765Y-125944530D01*
X87214061Y-125908184D01*
X87015012Y-125984019D01*
X86831735Y-126193731D01*
X86648346Y-126559019D01*
X86448962Y-127101579D01*
X86217697Y-127843110D01*
X86053718Y-128357806D01*
X85897154Y-128771360D01*
X85772400Y-129017611D01*
X85687884Y-129084367D01*
X85652031Y-128959440D01*
X85673268Y-128630640D01*
X85718617Y-128328569D01*
X85971139Y-127347540D01*
X86364978Y-126392552D01*
X86472086Y-126170037D01*
X86577251Y-125922898D01*
X86603368Y-125814242D01*
X86431800Y-125708176D01*
X86148928Y-125574665D01*
X85862323Y-125462868D01*
X85672950Y-125415999D01*
X85569002Y-125449699D01*
X85395940Y-125648908D01*
X85205797Y-126040432D01*
X84989965Y-126639693D01*
X84873734Y-126954824D01*
X84764877Y-127128231D01*
X84669284Y-127118883D01*
X84657605Y-127105837D01*
X84609841Y-126942054D01*
X84647310Y-126654394D01*
X84775659Y-126217039D01*
X85000533Y-125604167D01*
X85109367Y-125313779D01*
X85155518Y-125118204D01*
X85117085Y-125002885D01*
X84993364Y-124898612D01*
X84774998Y-124795062D01*
X84615320Y-124767009D01*
X90125096Y-124767009D01*
X90195044Y-124917186D01*
X90434000Y-124955531D01*
X90720106Y-124929634D01*
X90942723Y-124852488D01*
X90969037Y-124736748D01*
X90975014Y-124646694D01*
X91109445Y-124492390D01*
X91173777Y-124434186D01*
X91311073Y-124199344D01*
X91345691Y-123950551D01*
X91257846Y-123782449D01*
X91209504Y-123762956D01*
X91139556Y-123827558D01*
X91129517Y-123854202D01*
X90976536Y-123945166D01*
X90697803Y-124016414D01*
X90643385Y-124025913D01*
X90332848Y-124142328D01*
X90172665Y-124372835D01*
X90125097Y-124766888D01*
X90125096Y-124767009D01*
X84615320Y-124767009D01*
X84453992Y-124738666D01*
X84213100Y-124777873D01*
X84064552Y-124935846D01*
X83971053Y-125266072D01*
X83946304Y-125379362D01*
X83912106Y-125472444D01*
X83909662Y-125473528D01*
X83886920Y-125553895D01*
X83853336Y-125780380D01*
X83805446Y-126179203D01*
X83739786Y-126776583D01*
X83719284Y-127285305D01*
X73871919Y-127285305D01*
X73873807Y-126672024D01*
X73879665Y-125457948D01*
X73887192Y-124352743D01*
X73896220Y-123373108D01*
X73897295Y-123286254D01*
X90236444Y-123286254D01*
X90236701Y-123301972D01*
X90281694Y-123424722D01*
X90442124Y-123483053D01*
X90772667Y-123498617D01*
X90935202Y-123503433D01*
X91264018Y-123539907D01*
X91466396Y-123600079D01*
X91555521Y-123737194D01*
X91556846Y-123950551D01*
X91557303Y-124024136D01*
X91450010Y-124381994D01*
X91245680Y-124748166D01*
X91011293Y-125077332D01*
X91244757Y-125077332D01*
X91383500Y-125051829D01*
X91478222Y-124947906D01*
X91486607Y-124898273D01*
X91603303Y-124651009D01*
X91838782Y-124280613D01*
X92169216Y-123820791D01*
X92570775Y-123305246D01*
X93019632Y-122767683D01*
X93449938Y-122305092D01*
X94197717Y-121610474D01*
X95017864Y-120951760D01*
X95845231Y-120380076D01*
X96614667Y-119946547D01*
X96878859Y-119828366D01*
X97424533Y-119614544D01*
X98043648Y-119398380D01*
X98646667Y-119212231D01*
X99021944Y-119102837D01*
X99642857Y-118911735D01*
X100222897Y-118722423D01*
X100673470Y-118563266D01*
X100996675Y-118436229D01*
X101240435Y-118319354D01*
X101312592Y-118239671D01*
X101237915Y-118180377D01*
X100988711Y-118119095D01*
X100658296Y-118086156D01*
X100563209Y-118086628D01*
X100345912Y-118142057D01*
X100263185Y-118308471D01*
X100258471Y-118335246D01*
X100167494Y-118516859D01*
X100042228Y-118497808D01*
X99937123Y-118282439D01*
X99928349Y-118248923D01*
X99852393Y-118103890D01*
X99690023Y-118047040D01*
X99372679Y-118050159D01*
X98912019Y-118082807D01*
X98607540Y-118135794D01*
X98452858Y-118232711D01*
X98408943Y-118398992D01*
X98436766Y-118660073D01*
X98467686Y-118907052D01*
X98448198Y-119060271D01*
X98354740Y-119072172D01*
X98347799Y-119069549D01*
X98210475Y-118924218D01*
X98095802Y-118662043D01*
X98084712Y-118624686D01*
X97998845Y-118431273D01*
X97863656Y-118332955D01*
X97639282Y-118327452D01*
X97285860Y-118412480D01*
X96763530Y-118585757D01*
X96419932Y-118707843D01*
X96085240Y-118838484D01*
X95915478Y-118930880D01*
X95880941Y-119002830D01*
X95951925Y-119072137D01*
X96114693Y-119251195D01*
X96267618Y-119550056D01*
X96332444Y-119834400D01*
X96331873Y-119869439D01*
X96293358Y-119963479D01*
X96155668Y-119878266D01*
X95986082Y-119685544D01*
X95811131Y-119407143D01*
X95755461Y-119308481D01*
X95639127Y-119182648D01*
X95481124Y-119150157D01*
X95244413Y-119218231D01*
X94891956Y-119394095D01*
X94386713Y-119684973D01*
X93626315Y-120134049D01*
X93963380Y-120542967D01*
X94051249Y-120653431D01*
X94253122Y-120972153D01*
X94282987Y-121170707D01*
X94138334Y-121239110D01*
X94080370Y-121219628D01*
X93907348Y-121058487D01*
X93722436Y-120787555D01*
X93642428Y-120653059D01*
X93480053Y-120425826D01*
X93371726Y-120335999D01*
X93263153Y-120367490D01*
X92989246Y-120533183D01*
X92620701Y-120812906D01*
X92191390Y-121174783D01*
X91735190Y-121586939D01*
X91285974Y-122017497D01*
X90877616Y-122434584D01*
X90543993Y-122806322D01*
X90318977Y-123100837D01*
X90236444Y-123286254D01*
X73897295Y-123286254D01*
X73906583Y-122535746D01*
X73918113Y-121857356D01*
X73930643Y-121354641D01*
X73944006Y-121044301D01*
X73958034Y-120943038D01*
X74051531Y-120977603D01*
X74305438Y-121049117D01*
X74728664Y-121158005D01*
X75333918Y-121307450D01*
X76133906Y-121500636D01*
X77141333Y-121740748D01*
X77209625Y-121756966D01*
X77563461Y-121841155D01*
X78081026Y-121964449D01*
X78719417Y-122116621D01*
X79435735Y-122287445D01*
X80187077Y-122466697D01*
X80505867Y-122542590D01*
X81186849Y-122703443D01*
X81779414Y-122841694D01*
X82250786Y-122949793D01*
X82568191Y-123020189D01*
X82698854Y-123045332D01*
X82755848Y-122976092D01*
X82785778Y-122764460D01*
X82788174Y-122716751D01*
X82846884Y-122400197D01*
X82883123Y-122265310D01*
X88994667Y-122265310D01*
X88998521Y-122374399D01*
X89064529Y-122549735D01*
X89251770Y-122593777D01*
X89439129Y-122620482D01*
X89731548Y-122741347D01*
X89803005Y-122779706D01*
X89912490Y-122787299D01*
X90056151Y-122718515D01*
X90264395Y-122551596D01*
X90567625Y-122264784D01*
X90996249Y-121836320D01*
X92082032Y-120848528D01*
X93536681Y-119801984D01*
X95137346Y-118924139D01*
X96877530Y-118218987D01*
X97177767Y-118117630D01*
X97638039Y-117974445D01*
X98024959Y-117883192D01*
X98413300Y-117831943D01*
X98877834Y-117808773D01*
X99493333Y-117801753D01*
X99681439Y-117801472D01*
X100307475Y-117811988D01*
X100773582Y-117845126D01*
X101131962Y-117906233D01*
X101434817Y-118000657D01*
X101718929Y-118098601D01*
X101991666Y-118139499D01*
X102199131Y-118080114D01*
X102285676Y-118040813D01*
X102613112Y-117926052D01*
X103085763Y-117784546D01*
X103651684Y-117630695D01*
X104258930Y-117478904D01*
X104855556Y-117343575D01*
X105125455Y-117284610D01*
X105691448Y-117155166D01*
X106210222Y-117030420D01*
X106409871Y-116983760D01*
X106906222Y-116880432D01*
X107490025Y-116770149D01*
X108072889Y-116670013D01*
X108440007Y-116610393D01*
X108916315Y-116532139D01*
X109287075Y-116470157D01*
X109363170Y-116456905D01*
X109911906Y-116456905D01*
X110262398Y-116449119D01*
X110384366Y-116443120D01*
X110765479Y-116405960D01*
X111177333Y-116348202D01*
X111351333Y-116319826D01*
X111761582Y-116255020D01*
X112080444Y-116207289D01*
X112108976Y-116203233D01*
X112286481Y-116164194D01*
X112375079Y-116074531D01*
X112400534Y-115875961D01*
X112388615Y-115510197D01*
X112370780Y-115171686D01*
X112325456Y-114493063D01*
X112296658Y-114144610D01*
X112579067Y-114144610D01*
X112597037Y-114578666D01*
X112601234Y-114654092D01*
X112622357Y-115127649D01*
X112635728Y-115576000D01*
X112641344Y-115875961D01*
X112644889Y-116065334D01*
X113660889Y-116113210D01*
X113903606Y-116128161D01*
X114450626Y-116182514D01*
X115000131Y-116260195D01*
X115506659Y-116352384D01*
X115924751Y-116450264D01*
X116208944Y-116545016D01*
X116313778Y-116627821D01*
X116326084Y-116666887D01*
X116463060Y-116842401D01*
X116707891Y-117082662D01*
X117005438Y-117339101D01*
X117300559Y-117563150D01*
X117538116Y-117706241D01*
X117546373Y-117709922D01*
X117876979Y-117805055D01*
X118249220Y-117847352D01*
X118649810Y-117887250D01*
X119320552Y-118051552D01*
X119841112Y-118239671D01*
X120062719Y-118319755D01*
X120817641Y-118666906D01*
X121526644Y-119068053D01*
X122131059Y-119498244D01*
X122320996Y-119647250D01*
X122565953Y-119817121D01*
X122703627Y-119882415D01*
X122769286Y-119840094D01*
X122935997Y-119649788D01*
X123151372Y-119356705D01*
X123377288Y-119016454D01*
X123575625Y-118684645D01*
X123708262Y-118416888D01*
X123711084Y-118409888D01*
X123848639Y-118106244D01*
X124018706Y-117773383D01*
X124045281Y-117723527D01*
X124152202Y-117468966D01*
X124199872Y-117196935D01*
X124187250Y-116857629D01*
X124113295Y-116401243D01*
X123976963Y-115777973D01*
X123651783Y-114530038D01*
X123093521Y-112891422D01*
X122402650Y-111364347D01*
X121556533Y-109893777D01*
X121423588Y-109682914D01*
X121180366Y-109284114D01*
X120996381Y-108965048D01*
X120903695Y-108780396D01*
X120889412Y-108743202D01*
X120799522Y-108634297D01*
X120647490Y-108718826D01*
X120594278Y-108764965D01*
X120234825Y-109154195D01*
X119835610Y-109694378D01*
X119430056Y-110333449D01*
X119421139Y-110349610D01*
X119051588Y-111019344D01*
X118733630Y-111699999D01*
X118728679Y-111711789D01*
X118580392Y-112049650D01*
X118377706Y-112493380D01*
X118162971Y-112950198D01*
X118124816Y-113030819D01*
X117950359Y-113421631D01*
X117827681Y-113733182D01*
X117781333Y-113904109D01*
X117763771Y-113986862D01*
X117664039Y-113942083D01*
X117627299Y-113783156D01*
X117681080Y-113453410D01*
X117828807Y-112936569D01*
X117873423Y-112794142D01*
X117987854Y-112406737D01*
X118059593Y-112128526D01*
X118074647Y-112012127D01*
X118041769Y-111997757D01*
X117848357Y-112040929D01*
X117549383Y-112187703D01*
X117197020Y-112409818D01*
X116843438Y-112679018D01*
X116577195Y-112888219D01*
X116347581Y-113037355D01*
X116234486Y-113069448D01*
X116229597Y-113063878D01*
X116241822Y-112914927D01*
X116388064Y-112678641D01*
X116626893Y-112403196D01*
X116916876Y-112136765D01*
X117216584Y-111927521D01*
X117724889Y-111639781D01*
X116821778Y-111658681D01*
X116527319Y-111666626D01*
X116116286Y-111692449D01*
X115758200Y-111746746D01*
X115364400Y-111844946D01*
X114846222Y-112002479D01*
X114597515Y-112100218D01*
X114066086Y-112398566D01*
X113513506Y-112804113D01*
X113011981Y-113267075D01*
X112880485Y-113407336D01*
X112695938Y-113637500D01*
X112603750Y-113857073D01*
X112579067Y-114144610D01*
X112296658Y-114144610D01*
X112269755Y-113819097D01*
X112208895Y-113205007D01*
X112148094Y-112706013D01*
X112092571Y-112377332D01*
X112062978Y-112236321D01*
X112030736Y-112038666D01*
X111988788Y-112034763D01*
X111878912Y-112158887D01*
X111745849Y-112356503D01*
X111634276Y-112560402D01*
X111588870Y-112703378D01*
X111587609Y-112723986D01*
X111495122Y-112872711D01*
X111408817Y-112979276D01*
X111268012Y-113228952D01*
X111134791Y-113519181D01*
X111056508Y-113754733D01*
X111007664Y-113894402D01*
X110972778Y-113976435D01*
X110884740Y-114183453D01*
X110718477Y-114544956D01*
X110585682Y-114832033D01*
X110354930Y-115356493D01*
X110159636Y-115828230D01*
X109911906Y-116456905D01*
X109363170Y-116456905D01*
X109493597Y-116434191D01*
X109527953Y-116425606D01*
X109720157Y-116266931D01*
X109872625Y-115910466D01*
X109968744Y-115630189D01*
X110145494Y-115184960D01*
X110342805Y-114739899D01*
X110506747Y-114383067D01*
X110624431Y-114107981D01*
X110669333Y-113976435D01*
X110640096Y-113916518D01*
X110467713Y-113724512D01*
X110172646Y-113447399D01*
X109791767Y-113116779D01*
X109361948Y-112764252D01*
X108920064Y-112421418D01*
X108502986Y-112119878D01*
X108462321Y-112091838D01*
X108096549Y-111838533D01*
X107734222Y-111586227D01*
X107683361Y-111551147D01*
X107316397Y-111315517D01*
X106972222Y-111117217D01*
X106917780Y-111087588D01*
X106695476Y-110940020D01*
X106605333Y-110832424D01*
X106603894Y-110817030D01*
X106503289Y-110740444D01*
X106366009Y-110691737D01*
X106091063Y-110558467D01*
X105741289Y-110370289D01*
X105506789Y-110244946D01*
X105096715Y-110040048D01*
X104626240Y-109815576D01*
X104147869Y-109595565D01*
X103714110Y-109404049D01*
X103377466Y-109265062D01*
X103190444Y-109202640D01*
X103021111Y-109160742D01*
X102851778Y-109146631D01*
X102844216Y-109147471D01*
X102767111Y-109071301D01*
X102737454Y-109023015D01*
X102569556Y-108971355D01*
X102439717Y-108951727D01*
X102128490Y-108880306D01*
X101751111Y-108776873D01*
X101046470Y-108586808D01*
X99618565Y-108322923D01*
X98147056Y-108221875D01*
X96857222Y-108200444D01*
X96657700Y-108539110D01*
X96556584Y-108766375D01*
X96433260Y-109168410D01*
X96338867Y-109611555D01*
X96282796Y-109955875D01*
X96199509Y-110463417D01*
X96136856Y-110837364D01*
X96084995Y-111136042D01*
X96034084Y-111417777D01*
X96031634Y-111431167D01*
X95972659Y-111773598D01*
X95930692Y-112050389D01*
X95929218Y-112061632D01*
X95847594Y-112557984D01*
X95726079Y-113150409D01*
X95580342Y-113775198D01*
X95426051Y-114368639D01*
X95278875Y-114867022D01*
X95154481Y-115206637D01*
X95149813Y-115216873D01*
X94915209Y-115603692D01*
X94565101Y-116032771D01*
X94141388Y-116467016D01*
X93685971Y-116869333D01*
X93240746Y-117202628D01*
X92847615Y-117429807D01*
X92548475Y-117513777D01*
X92499949Y-117517061D01*
X92372269Y-117587803D01*
X92272603Y-117787158D01*
X92229194Y-117951488D01*
X92173351Y-118162888D01*
X92062499Y-118636740D01*
X91808064Y-119584858D01*
X91554747Y-120326645D01*
X91297548Y-120875601D01*
X91031465Y-121245224D01*
X90861268Y-121408444D01*
X90823617Y-121444552D01*
X90580690Y-121603882D01*
X90270071Y-121710427D01*
X89813111Y-121799998D01*
X89550296Y-121844920D01*
X89235971Y-121911768D01*
X89070252Y-121986115D01*
X89005648Y-122094962D01*
X88994667Y-122265310D01*
X82883123Y-122265310D01*
X82974065Y-121926810D01*
X83051001Y-121678361D01*
X88902393Y-121678361D01*
X88988665Y-121659199D01*
X89243175Y-121607575D01*
X89600582Y-121537250D01*
X90262941Y-121408444D01*
X89811316Y-120900751D01*
X89359691Y-120393058D01*
X89190622Y-120797695D01*
X89172544Y-120841282D01*
X89039941Y-121177662D01*
X88944059Y-121446499D01*
X88903231Y-121597861D01*
X88902393Y-121678361D01*
X83051001Y-121678361D01*
X83156165Y-121338756D01*
X83379634Y-120678202D01*
X83630921Y-119987316D01*
X83896475Y-119308265D01*
X84002245Y-119045082D01*
X84158187Y-118628454D01*
X84233360Y-118361325D01*
X84236713Y-118205961D01*
X84177195Y-118124629D01*
X84088985Y-118017082D01*
X84019632Y-117732182D01*
X84212966Y-117732182D01*
X84251656Y-117979725D01*
X84342277Y-118078221D01*
X84430434Y-118034701D01*
X84611221Y-117891493D01*
X84787959Y-117798225D01*
X85145280Y-117722937D01*
X85562034Y-117708010D01*
X85946667Y-117762304D01*
X86133890Y-117815785D01*
X86584868Y-117964595D01*
X86960346Y-118114679D01*
X87188444Y-118238474D01*
X87389169Y-118370982D01*
X87673635Y-118528396D01*
X87882065Y-118656156D01*
X88242858Y-118930372D01*
X88664195Y-119289681D01*
X89106647Y-119696339D01*
X89530784Y-120112599D01*
X89897175Y-120500719D01*
X90166391Y-120822952D01*
X90299001Y-121041555D01*
X90355965Y-121146451D01*
X90508778Y-121239110D01*
X90667288Y-121177280D01*
X90900674Y-120947975D01*
X91125438Y-120596695D01*
X91188766Y-120447487D01*
X91310283Y-120084698D01*
X91447512Y-119614657D01*
X91583606Y-119101839D01*
X91701717Y-118610721D01*
X91784999Y-118205778D01*
X91816604Y-117951488D01*
X91772065Y-117783131D01*
X91575673Y-117477723D01*
X91265722Y-117140915D01*
X90889584Y-116822178D01*
X90494632Y-116570981D01*
X90162556Y-116399258D01*
X90014821Y-116984740D01*
X89909295Y-117350208D01*
X89751961Y-117787798D01*
X89585787Y-118165132D01*
X89434269Y-118429897D01*
X89320901Y-118529777D01*
X89301187Y-118527710D01*
X89220444Y-118423616D01*
X89225478Y-118386248D01*
X89285867Y-118163716D01*
X89396944Y-117817293D01*
X89536395Y-117410912D01*
X89681905Y-117008508D01*
X89811159Y-116674015D01*
X89901842Y-116471367D01*
X89922837Y-116427331D01*
X89918525Y-116302441D01*
X89777028Y-116172292D01*
X89462042Y-115997793D01*
X88913768Y-115719962D01*
X88710853Y-116390143D01*
X88644352Y-116597324D01*
X88463410Y-117064553D01*
X88279044Y-117426925D01*
X88112333Y-117646823D01*
X87984357Y-117686627D01*
X87970637Y-117574938D01*
X88019751Y-117305528D01*
X88118238Y-116938366D01*
X88248750Y-116531703D01*
X88393939Y-116143791D01*
X88536453Y-115832884D01*
X88558818Y-115789653D01*
X88604031Y-115615340D01*
X88492183Y-115524717D01*
X88411932Y-115476029D01*
X88381089Y-115357059D01*
X88392173Y-115314037D01*
X88291694Y-115243246D01*
X88063333Y-115242631D01*
X88039006Y-115241376D01*
X87978667Y-115135612D01*
X87904453Y-115064297D01*
X87691448Y-115050945D01*
X87642027Y-115059215D01*
X87499171Y-115125053D01*
X87367324Y-115281403D01*
X87218524Y-115569326D01*
X87024809Y-116029882D01*
X86898516Y-116336694D01*
X86680732Y-116817691D01*
X86524269Y-117085333D01*
X86429856Y-117138519D01*
X86398222Y-116976145D01*
X86398452Y-116964083D01*
X86447902Y-116696079D01*
X86564514Y-116306869D01*
X86720541Y-115873864D01*
X86888236Y-115474472D01*
X87039852Y-115186104D01*
X87124911Y-115026226D01*
X87073364Y-114937322D01*
X86836921Y-114875250D01*
X86517701Y-114869461D01*
X86270806Y-114968250D01*
X86172444Y-115143256D01*
X86172337Y-115145573D01*
X86112511Y-115288030D01*
X85967658Y-115555877D01*
X85774365Y-115887829D01*
X85569218Y-116222598D01*
X85388803Y-116498900D01*
X85269706Y-116655448D01*
X85218321Y-116694845D01*
X85093976Y-116698716D01*
X85083684Y-116670609D01*
X85126102Y-116477921D01*
X85259831Y-116157190D01*
X85463600Y-115755551D01*
X85716136Y-115320135D01*
X85837504Y-115108519D01*
X85880890Y-114958551D01*
X85800265Y-114917332D01*
X85773814Y-114923793D01*
X85613119Y-115058896D01*
X85383210Y-115334257D01*
X85114912Y-115703753D01*
X84839049Y-116121259D01*
X84586448Y-116540652D01*
X84387933Y-116915807D01*
X84274330Y-117200600D01*
X84231777Y-117407513D01*
X84212966Y-117732182D01*
X84019632Y-117732182D01*
X84015764Y-117716291D01*
X84019933Y-117311482D01*
X84098696Y-116867642D01*
X84249256Y-116449755D01*
X84346282Y-116264463D01*
X84501138Y-116026446D01*
X84608733Y-115933332D01*
X84640647Y-115927988D01*
X84656350Y-115833235D01*
X84652877Y-115748710D01*
X84769083Y-115588234D01*
X84826432Y-115531727D01*
X85012812Y-115292731D01*
X85212212Y-114982777D01*
X85222475Y-114965152D01*
X85363926Y-114700744D01*
X85422112Y-114487461D01*
X85405980Y-114235390D01*
X85324478Y-113854617D01*
X85229161Y-113271942D01*
X85218534Y-112809741D01*
X85514358Y-112809741D01*
X85533686Y-113308403D01*
X85586755Y-113764867D01*
X85668972Y-114118234D01*
X85775741Y-114307606D01*
X85856342Y-114389087D01*
X85869653Y-114505161D01*
X85895648Y-114535951D01*
X86087768Y-114566744D01*
X86409899Y-114578666D01*
X86506947Y-114580430D01*
X87168494Y-114657743D01*
X87910857Y-114831282D01*
X88642650Y-115075897D01*
X89272487Y-115366439D01*
X89464034Y-115476858D01*
X89892395Y-115736877D01*
X90391232Y-116050955D01*
X90887562Y-116373581D01*
X91222582Y-116601744D01*
X91604549Y-116879361D01*
X91884749Y-117103911D01*
X92018805Y-117241351D01*
X92098661Y-117341714D01*
X92201341Y-117305245D01*
X92207960Y-117296204D01*
X92359814Y-117172680D01*
X92647772Y-116984368D01*
X93015788Y-116768222D01*
X93267890Y-116623907D01*
X93802141Y-116276893D01*
X94207693Y-115922179D01*
X94529016Y-115506602D01*
X94810576Y-114976995D01*
X95096844Y-114280196D01*
X95101968Y-114266156D01*
X95173395Y-114017342D01*
X95275516Y-113602524D01*
X95397419Y-113072250D01*
X95528194Y-112477068D01*
X95656930Y-111867526D01*
X95772717Y-111294172D01*
X95864644Y-110807555D01*
X95921801Y-110458221D01*
X95927827Y-110414984D01*
X95991042Y-110010849D01*
X96056528Y-109653468D01*
X96076425Y-109386999D01*
X96005990Y-109223991D01*
X95983443Y-109203659D01*
X95976623Y-109025546D01*
X96116093Y-108689966D01*
X96243840Y-108407089D01*
X96285501Y-108163343D01*
X96222068Y-107924287D01*
X96079952Y-107696018D01*
X95807077Y-107359110D01*
X95449401Y-106965216D01*
X95050640Y-106560431D01*
X94654509Y-106190850D01*
X94304724Y-105902569D01*
X94197609Y-105822305D01*
X93967091Y-105645387D01*
X93848889Y-105548197D01*
X93844586Y-105543917D01*
X93612138Y-105376779D01*
X93230208Y-105163274D01*
X92759986Y-104932015D01*
X92262660Y-104711613D01*
X91799422Y-104530680D01*
X91431460Y-104417828D01*
X91158602Y-104361034D01*
X90609974Y-104304880D01*
X90237219Y-104370766D01*
X90029606Y-104559777D01*
X89928557Y-104747305D01*
X89788385Y-104983110D01*
X89762251Y-105024466D01*
X89625357Y-105251913D01*
X89421644Y-105598124D01*
X89184708Y-106006162D01*
X89137707Y-106087102D01*
X88856042Y-106557218D01*
X88533699Y-107076002D01*
X88197006Y-107603189D01*
X87872290Y-108098515D01*
X87585879Y-108521712D01*
X87364101Y-108832518D01*
X87233282Y-108990666D01*
X87156909Y-109074985D01*
X86954643Y-109361242D01*
X86698158Y-109772704D01*
X86415843Y-110258466D01*
X86136087Y-110767621D01*
X85887280Y-111249265D01*
X85697811Y-111652490D01*
X85596069Y-111926391D01*
X85595311Y-111929416D01*
X85533368Y-112329779D01*
X85514358Y-112809741D01*
X85218534Y-112809741D01*
X85213173Y-112576570D01*
X85300584Y-111951014D01*
X85486800Y-111462957D01*
X85534748Y-111379314D01*
X85667552Y-111115600D01*
X85720889Y-110954282D01*
X85721342Y-110948573D01*
X85789371Y-110792108D01*
X85950510Y-110511206D01*
X86172445Y-110162530D01*
X86195052Y-110128390D01*
X86412021Y-109789014D01*
X86565672Y-109527875D01*
X86624000Y-109399080D01*
X86692310Y-109266937D01*
X86858777Y-109063458D01*
X86928929Y-108976070D01*
X87124421Y-108700393D01*
X87401675Y-108289424D01*
X87738176Y-107778421D01*
X88111404Y-107202643D01*
X88498844Y-106597350D01*
X88877977Y-105997801D01*
X89226287Y-105439255D01*
X89521256Y-104956970D01*
X89740367Y-104586206D01*
X89861103Y-104362221D01*
X89890148Y-104300415D01*
X90073471Y-103944352D01*
X90138719Y-103830900D01*
X90567902Y-103830900D01*
X90605390Y-103987489D01*
X90760666Y-104059703D01*
X91034399Y-104078270D01*
X91436653Y-104130701D01*
X92004921Y-104291599D01*
X92644942Y-104536250D01*
X93297963Y-104839524D01*
X93905235Y-105176288D01*
X94408007Y-105521410D01*
X94657373Y-105732746D01*
X95013218Y-106057635D01*
X95367562Y-106400437D01*
X95669065Y-106711278D01*
X96016239Y-107087388D01*
X96282949Y-107395662D01*
X96628565Y-107820228D01*
X96637758Y-107805332D01*
X97003019Y-107805332D01*
X97599065Y-107808848D01*
X97963955Y-107814175D01*
X98510395Y-107838515D01*
X99045734Y-107888265D01*
X99607803Y-107970206D01*
X100234433Y-108091122D01*
X100550329Y-108163343D01*
X100963455Y-108257793D01*
X101832701Y-108477002D01*
X102880000Y-108755529D01*
X103096576Y-108828539D01*
X103388000Y-108942960D01*
X103403513Y-108949444D01*
X103649691Y-109051073D01*
X103783111Y-109103845D01*
X103879513Y-109137306D01*
X104138176Y-109235424D01*
X104435572Y-109363290D01*
X104825949Y-109544953D01*
X105363556Y-109804460D01*
X105659833Y-109952945D01*
X106148880Y-110214945D01*
X106567105Y-110458819D01*
X106847356Y-110646460D01*
X106973152Y-110741416D01*
X107209138Y-110902524D01*
X107339060Y-110966221D01*
X107363371Y-110972372D01*
X107531473Y-111070461D01*
X107774371Y-111250145D01*
X107895548Y-111346975D01*
X108139894Y-111539048D01*
X108339851Y-111685602D01*
X108573658Y-111842294D01*
X108919556Y-112064781D01*
X109129870Y-112206786D01*
X109567524Y-112534996D01*
X109942792Y-112853235D01*
X110094604Y-112996963D01*
X110360129Y-113251637D01*
X110561215Y-113417756D01*
X110722571Y-113479685D01*
X110868907Y-113421792D01*
X111024931Y-113228445D01*
X111215353Y-112884011D01*
X111464880Y-112372857D01*
X111798222Y-111679350D01*
X111840666Y-111591288D01*
X112237972Y-111591288D01*
X112384986Y-112459486D01*
X112532000Y-113327685D01*
X113054391Y-112793311D01*
X113546421Y-112352081D01*
X114215668Y-111924207D01*
X114993464Y-111605359D01*
X115915492Y-111381540D01*
X117017434Y-111238752D01*
X117091890Y-111232342D01*
X117577738Y-111207049D01*
X117888322Y-111230593D01*
X118064384Y-111305576D01*
X118171753Y-111381133D01*
X118272175Y-111405641D01*
X118334984Y-111322821D01*
X118595630Y-110948895D01*
X118736873Y-110650452D01*
X118785624Y-110349610D01*
X118768796Y-109968488D01*
X118732805Y-109628260D01*
X118629731Y-109046810D01*
X118474964Y-108626361D01*
X118249198Y-108323634D01*
X117933122Y-108095347D01*
X117555124Y-107906356D01*
X116758298Y-107661612D01*
X115960757Y-107633810D01*
X115144402Y-107823628D01*
X114291139Y-108231743D01*
X114266694Y-108246179D01*
X113887691Y-108485882D01*
X113643300Y-108699000D01*
X113624526Y-108726833D01*
X113469615Y-108956496D01*
X113302735Y-109329332D01*
X113118886Y-109758713D01*
X112874063Y-110296418D01*
X112632565Y-110798977D01*
X112237972Y-111591288D01*
X111840666Y-111591288D01*
X112107689Y-111037272D01*
X112399261Y-110423568D01*
X112649798Y-109887470D01*
X112839817Y-109470670D01*
X112949836Y-109214858D01*
X113141894Y-108726833D01*
X112601165Y-108267689D01*
X112351595Y-108054672D01*
X112019023Y-107767835D01*
X111773817Y-107552939D01*
X111650110Y-107444152D01*
X111493261Y-107312379D01*
X111295226Y-107154392D01*
X111021095Y-106942946D01*
X110635953Y-106650802D01*
X110104889Y-106250717D01*
X108797192Y-105302449D01*
X107543734Y-104478086D01*
X106371867Y-103808080D01*
X105252431Y-103280315D01*
X104156267Y-102882674D01*
X103054217Y-102603041D01*
X101917121Y-102429300D01*
X100715820Y-102349335D01*
X100075641Y-102330221D01*
X99949649Y-102583646D01*
X99486343Y-103515555D01*
X99260657Y-103956858D01*
X98920664Y-104593204D01*
X98542899Y-105277045D01*
X98155630Y-105958757D01*
X97787124Y-106588717D01*
X97465651Y-107117302D01*
X97219479Y-107494888D01*
X97003019Y-107805332D01*
X96637758Y-107805332D01*
X97521408Y-106373447D01*
X97928807Y-105697950D01*
X98339086Y-104986462D01*
X98711242Y-104310269D01*
X99029009Y-103700632D01*
X99276124Y-103188810D01*
X99436320Y-102806061D01*
X99493333Y-102583646D01*
X99430678Y-102339814D01*
X99214579Y-101964171D01*
X98877058Y-101530882D01*
X98452341Y-101079122D01*
X97974651Y-100648070D01*
X97478212Y-100276902D01*
X96980698Y-99990776D01*
X96090813Y-99626751D01*
X95121934Y-99373661D01*
X94151382Y-99249879D01*
X93256483Y-99273778D01*
X92650855Y-99349446D01*
X92108958Y-100557612D01*
X91955796Y-100893134D01*
X91636162Y-101568750D01*
X91302796Y-102248625D01*
X91007098Y-102826897D01*
X90843607Y-103141688D01*
X90647531Y-103559209D01*
X90567902Y-103830900D01*
X90138719Y-103830900D01*
X90274458Y-103594882D01*
X90453917Y-103317297D01*
X90572652Y-103176888D01*
X90648591Y-103071628D01*
X90742582Y-102838221D01*
X90829776Y-102626602D01*
X91001071Y-102358444D01*
X91097748Y-102230965D01*
X91110298Y-102160888D01*
X91108297Y-102160480D01*
X91127025Y-102057111D01*
X91226117Y-101806618D01*
X91385482Y-101460168D01*
X91599937Y-100996877D01*
X91844761Y-100436219D01*
X92062987Y-99907946D01*
X92105839Y-99801048D01*
X92273927Y-99400545D01*
X92415146Y-99091578D01*
X92495271Y-98946986D01*
X92832889Y-98946986D01*
X92834800Y-98949057D01*
X92963546Y-98957920D01*
X93254391Y-98954798D01*
X93651333Y-98940160D01*
X93887775Y-98933706D01*
X94919836Y-99005727D01*
X95941359Y-99226540D01*
X96902088Y-99578652D01*
X97751763Y-100044572D01*
X98440126Y-100606808D01*
X98726332Y-100901103D01*
X99044303Y-101236214D01*
X99255684Y-101475060D01*
X99392995Y-101655071D01*
X99488760Y-101813676D01*
X99586957Y-101960300D01*
X99703260Y-102047999D01*
X99711136Y-102047033D01*
X99828367Y-101923186D01*
X100001610Y-101606403D01*
X100221895Y-101117723D01*
X100480251Y-100478181D01*
X100767705Y-99708816D01*
X101075288Y-98830666D01*
X101242541Y-98365149D01*
X101403557Y-97968037D01*
X101532435Y-97703445D01*
X101611004Y-97612683D01*
X101653246Y-97611579D01*
X101720046Y-97499794D01*
X101725993Y-97182806D01*
X101771725Y-96951544D01*
X101850374Y-96903133D01*
X101864953Y-96919571D01*
X101881623Y-97105425D01*
X101835251Y-97446021D01*
X101735828Y-97894585D01*
X101593344Y-98404343D01*
X101417789Y-98928521D01*
X101310416Y-99245755D01*
X101237082Y-99519349D01*
X101229641Y-99645048D01*
X101267860Y-99635468D01*
X101410041Y-99495278D01*
X101618289Y-99238562D01*
X101858136Y-98912906D01*
X102095114Y-98565894D01*
X102294753Y-98245112D01*
X102422586Y-97998143D01*
X102548875Y-97754192D01*
X102672416Y-97651522D01*
X102737230Y-97754337D01*
X102715019Y-98056948D01*
X102592185Y-98455390D01*
X102282961Y-99013660D01*
X101865487Y-99505920D01*
X101398283Y-99852372D01*
X101212653Y-100009413D01*
X100941248Y-100377924D01*
X100636283Y-100918301D01*
X100536845Y-101115391D01*
X100349139Y-101503558D01*
X100219216Y-101795217D01*
X100170667Y-101938673D01*
X100172310Y-101945659D01*
X100299517Y-101997713D01*
X100590257Y-102034597D01*
X100989111Y-102048852D01*
X102157672Y-102122300D01*
X103547175Y-102375235D01*
X104920857Y-102791998D01*
X106210222Y-103355448D01*
X106403858Y-103457722D01*
X106877859Y-103722470D01*
X107402915Y-104030724D01*
X107943811Y-104360125D01*
X108465330Y-104688311D01*
X108932258Y-104992921D01*
X109309378Y-105251596D01*
X109561475Y-105441974D01*
X109653333Y-105541695D01*
X109713690Y-105622811D01*
X109907333Y-105741489D01*
X109951262Y-105764202D01*
X110212413Y-105935419D01*
X110587608Y-106213512D01*
X111033969Y-106563655D01*
X111508618Y-106951023D01*
X111968677Y-107340789D01*
X112371267Y-107698126D01*
X112673511Y-107988210D01*
X112898374Y-108215070D01*
X113100777Y-108408353D01*
X113194280Y-108482666D01*
X113220386Y-108452749D01*
X113301683Y-108250734D01*
X113414363Y-107894942D01*
X113545892Y-107428660D01*
X113683734Y-106895176D01*
X113815357Y-106337777D01*
X113849414Y-106180660D01*
X113991459Y-105363824D01*
X114091430Y-104453260D01*
X114153126Y-103405649D01*
X114180349Y-102177673D01*
X114182190Y-102004947D01*
X114195558Y-101489880D01*
X114221261Y-101170759D01*
X114262166Y-101024142D01*
X114321141Y-101026590D01*
X114339638Y-101055088D01*
X114388346Y-101272669D01*
X114421163Y-101689291D01*
X114438581Y-102313713D01*
X114441095Y-103154694D01*
X114437488Y-103547751D01*
X114409334Y-104487656D01*
X114347873Y-105290315D01*
X114244902Y-106019654D01*
X114092216Y-106739602D01*
X113881610Y-107514086D01*
X113823296Y-107721466D01*
X113759928Y-107984055D01*
X113747803Y-108099209D01*
X113764105Y-108098432D01*
X113928572Y-108035816D01*
X114228788Y-107900126D01*
X114615829Y-107713122D01*
X114924694Y-107563549D01*
X115276113Y-107418371D01*
X115595503Y-107338368D01*
X115968757Y-107304401D01*
X116481765Y-107297332D01*
X116890639Y-107302732D01*
X117313291Y-107332865D01*
X117606039Y-107397072D01*
X117824483Y-107503908D01*
X117852557Y-107521990D01*
X118072231Y-107639650D01*
X118189349Y-107660724D01*
X118191310Y-107617781D01*
X118144789Y-107400984D01*
X118044770Y-107047668D01*
X117904673Y-106607482D01*
X117631158Y-105721590D01*
X117367157Y-104721155D01*
X117172043Y-103808339D01*
X117125847Y-103582085D01*
X117059288Y-103317031D01*
X117013595Y-103140884D01*
X116951377Y-102838221D01*
X116943124Y-102792706D01*
X116874415Y-102470424D01*
X116785389Y-102104444D01*
X116729248Y-101844439D01*
X116655216Y-101389969D01*
X116598717Y-100919110D01*
X116574587Y-100680245D01*
X116442206Y-99756226D01*
X116267019Y-99045706D01*
X116047407Y-98541704D01*
X115999835Y-98466054D01*
X115778192Y-98150007D01*
X115477094Y-97752844D01*
X115132294Y-97318240D01*
X114779547Y-96889867D01*
X114454605Y-96511397D01*
X114193223Y-96226503D01*
X114031153Y-96078858D01*
X113965655Y-96039616D01*
X113865077Y-96012619D01*
X113759183Y-96063786D01*
X113619147Y-96221290D01*
X113502774Y-96388686D01*
X113416140Y-96513304D01*
X113121334Y-96967999D01*
X112821749Y-97389259D01*
X112734821Y-97495623D01*
X112337474Y-97981813D01*
X111768336Y-98613669D01*
X111165585Y-99230597D01*
X110580472Y-99778367D01*
X110064248Y-100202750D01*
X110025847Y-100231124D01*
X109697409Y-100465068D01*
X109444327Y-100630557D01*
X109318663Y-100693332D01*
X109247531Y-100610732D01*
X109098996Y-100361889D01*
X108897931Y-99986730D01*
X108666917Y-99525711D01*
X108326954Y-98859219D01*
X107625123Y-97619139D01*
X106791941Y-96285376D01*
X105850430Y-94894138D01*
X104823616Y-93481632D01*
X104702737Y-93321143D01*
X104286621Y-92771092D01*
X103920858Y-92291256D01*
X103626690Y-91909264D01*
X103425356Y-91652746D01*
X103338099Y-91549332D01*
X103284469Y-91487381D01*
X103120403Y-91269883D01*
X102880516Y-90937920D01*
X102595392Y-90533332D01*
X102312886Y-90127767D01*
X101971319Y-89645406D01*
X101708848Y-89303304D01*
X101493852Y-89075330D01*
X101440110Y-89037555D01*
X101977898Y-89037555D01*
X101978781Y-89042494D01*
X102055732Y-89175115D01*
X102231745Y-89431723D01*
X102471106Y-89763555D01*
X102738099Y-90121845D01*
X102997010Y-90457830D01*
X103212124Y-90722744D01*
X103213731Y-90724644D01*
X103335445Y-90883677D01*
X103541540Y-91166427D01*
X103788319Y-91512966D01*
X103879078Y-91641069D01*
X104197091Y-92083867D01*
X104565129Y-92590019D01*
X104920645Y-93073332D01*
X105400086Y-93727350D01*
X106263987Y-94944653D01*
X107046247Y-96099138D01*
X107733366Y-97169469D01*
X108311846Y-98134305D01*
X108768186Y-98972309D01*
X109088889Y-99662141D01*
X109241266Y-100004960D01*
X109378256Y-100257523D01*
X109465549Y-100354179D01*
X109510065Y-100333054D01*
X109696659Y-100189993D01*
X109984516Y-99941826D01*
X110335031Y-99623894D01*
X110709601Y-99271533D01*
X111069619Y-98920085D01*
X111376482Y-98604888D01*
X111570038Y-98394249D01*
X111898890Y-98013271D01*
X112138422Y-97703629D01*
X112266069Y-97495623D01*
X112259264Y-97419555D01*
X112188087Y-97377152D01*
X112136889Y-97193777D01*
X112135995Y-97154999D01*
X112081326Y-96988468D01*
X111960201Y-97021631D01*
X111798222Y-97250221D01*
X111669531Y-97443774D01*
X111555519Y-97532444D01*
X111477080Y-97461457D01*
X111393024Y-97250221D01*
X111308785Y-97064185D01*
X111171758Y-96967999D01*
X111018747Y-97008219D01*
X110945003Y-97162951D01*
X111052812Y-97367605D01*
X111143673Y-97493430D01*
X111271829Y-97833224D01*
X111328397Y-98213968D01*
X111289483Y-98519371D01*
X111275132Y-98548488D01*
X111206140Y-98564449D01*
X111109569Y-98401861D01*
X110971976Y-98040444D01*
X110971677Y-98039583D01*
X110847717Y-97724489D01*
X110748929Y-97548605D01*
X110696676Y-97549989D01*
X110614108Y-97681005D01*
X110393874Y-97802881D01*
X110229316Y-97881566D01*
X110125197Y-98062577D01*
X110057967Y-98406224D01*
X109972242Y-98946165D01*
X109875533Y-99410798D01*
X109777931Y-99774046D01*
X109688656Y-100016287D01*
X109616926Y-100117899D01*
X109571961Y-100059258D01*
X109562980Y-99820741D01*
X109599200Y-99382726D01*
X109633856Y-99058553D01*
X109666397Y-98593685D01*
X109653220Y-98262173D01*
X109589735Y-98006015D01*
X109471352Y-97767209D01*
X109288508Y-97457680D01*
X108917088Y-97840119D01*
X108750649Y-97997771D01*
X108556025Y-98122492D01*
X108485779Y-98078141D01*
X108550111Y-97883094D01*
X108759222Y-97555725D01*
X109099191Y-97093438D01*
X108845091Y-96705804D01*
X108670669Y-96439720D01*
X112301498Y-96439720D01*
X112387376Y-96759905D01*
X112538503Y-97213287D01*
X112831860Y-96800986D01*
X113125216Y-96388686D01*
X112899419Y-95921340D01*
X112673622Y-95453994D01*
X112454935Y-95880259D01*
X112446780Y-95896203D01*
X112317977Y-96195071D01*
X112301498Y-96439720D01*
X108670669Y-96439720D01*
X108590990Y-96318169D01*
X108286517Y-96543277D01*
X108216456Y-96592831D01*
X107949412Y-96727866D01*
X107816158Y-96711204D01*
X107842889Y-96567871D01*
X108055801Y-96322888D01*
X108129148Y-96253551D01*
X108304132Y-96032611D01*
X108286174Y-95889191D01*
X108065547Y-95810945D01*
X107632527Y-95785525D01*
X107449511Y-95782358D01*
X107222198Y-95743018D01*
X107101250Y-95611742D01*
X107007711Y-95331110D01*
X106973555Y-95226111D01*
X106931207Y-95142390D01*
X112896043Y-95142390D01*
X113005034Y-95383962D01*
X113100940Y-95599071D01*
X113123810Y-95903135D01*
X113088362Y-96113920D01*
X113117293Y-96157507D01*
X113243200Y-96042310D01*
X113302324Y-95942188D01*
X113363813Y-95644286D01*
X113370921Y-95270220D01*
X113324752Y-94911102D01*
X113226412Y-94658042D01*
X113120085Y-94536630D01*
X113044092Y-94570453D01*
X112953957Y-94794625D01*
X112931318Y-94863400D01*
X112896043Y-95142390D01*
X106931207Y-95142390D01*
X106845487Y-94972926D01*
X106714296Y-94864354D01*
X106645840Y-94857778D01*
X106450400Y-94836132D01*
X106418667Y-94798183D01*
X106487949Y-94659194D01*
X106536473Y-94569237D01*
X106558659Y-94339228D01*
X106497524Y-94126464D01*
X106371948Y-94032888D01*
X106307159Y-93979944D01*
X106266667Y-93784532D01*
X106266319Y-93750989D01*
X106234501Y-93613395D01*
X106131200Y-93671644D01*
X106029758Y-93741382D01*
X105775037Y-93807110D01*
X105652149Y-93801770D01*
X105621343Y-93748070D01*
X105752261Y-93588411D01*
X105861209Y-93440535D01*
X105890146Y-93251186D01*
X105814143Y-92957509D01*
X105742659Y-92765703D01*
X105625717Y-92619947D01*
X105436255Y-92616203D01*
X105109556Y-92733936D01*
X105047373Y-92755440D01*
X104926101Y-92737624D01*
X104953656Y-92606810D01*
X105127713Y-92405107D01*
X105264828Y-92256994D01*
X105273089Y-92114244D01*
X105155935Y-91879435D01*
X105146692Y-91863472D01*
X104973526Y-91655085D01*
X104816846Y-91606082D01*
X104496529Y-91702726D01*
X104236508Y-91730714D01*
X104109821Y-91685617D01*
X104146301Y-91579674D01*
X104375778Y-91425124D01*
X104549758Y-91331606D01*
X104668036Y-91260598D01*
X104669667Y-91242696D01*
X104598314Y-91093606D01*
X104442258Y-90852556D01*
X104254600Y-90621486D01*
X104052985Y-90515000D01*
X103754889Y-90511925D01*
X103473074Y-90503788D01*
X103338698Y-90430354D01*
X103402878Y-90327006D01*
X103676601Y-90232901D01*
X104021647Y-90163892D01*
X103749594Y-89868834D01*
X103734164Y-89851905D01*
X103530524Y-89592712D01*
X103407442Y-89374527D01*
X103288176Y-89215377D01*
X103044877Y-89064083D01*
X102934198Y-89029017D01*
X102718357Y-88989765D01*
X105627715Y-88989765D01*
X105663185Y-89078120D01*
X105826170Y-89299135D01*
X106091637Y-89615658D01*
X106431324Y-89992427D01*
X106472904Y-90037420D01*
X106890291Y-90509258D01*
X107376603Y-91086787D01*
X107874760Y-91701055D01*
X108327678Y-92283110D01*
X108433788Y-92424662D01*
X108831766Y-92979708D01*
X109200411Y-93528359D01*
X109502575Y-94013908D01*
X109701111Y-94379649D01*
X110048444Y-95121521D01*
X110500000Y-94568682D01*
X110814965Y-94182001D01*
X111132494Y-93779357D01*
X111339968Y-93480757D01*
X111456135Y-93245307D01*
X111499742Y-93032109D01*
X111489538Y-92800268D01*
X111444271Y-92508888D01*
X111406607Y-92220112D01*
X111379058Y-91724733D01*
X111396624Y-91310193D01*
X111416578Y-91138656D01*
X111414362Y-90877320D01*
X111319041Y-90699008D01*
X111094584Y-90508037D01*
X110721742Y-90263967D01*
X110124780Y-89949927D01*
X109429736Y-89639976D01*
X108703784Y-89361572D01*
X108014101Y-89142175D01*
X107427862Y-89009241D01*
X107348083Y-88997560D01*
X106940447Y-88956409D01*
X106500281Y-88934359D01*
X106091897Y-88932104D01*
X105779604Y-88950341D01*
X105627715Y-88989765D01*
X102718357Y-88989765D01*
X102629440Y-88973595D01*
X102317643Y-88955281D01*
X102075048Y-88975969D01*
X101977898Y-89037555D01*
X101440110Y-89037555D01*
X101294710Y-88935354D01*
X101079802Y-88857245D01*
X100817505Y-88814873D01*
X100476200Y-88782108D01*
X100168801Y-88760896D01*
X99200344Y-88804790D01*
X98344101Y-89021708D01*
X97617219Y-89405819D01*
X97036850Y-89951293D01*
X96844784Y-90187269D01*
X96648154Y-90420873D01*
X96544560Y-90533332D01*
X96510644Y-90577433D01*
X96383820Y-90803498D01*
X96190543Y-91185727D01*
X95946299Y-91690253D01*
X95719871Y-92170221D01*
X95666570Y-92283206D01*
X95366841Y-92930718D01*
X95062597Y-93598921D01*
X94769322Y-94253945D01*
X94502500Y-94861923D01*
X94277616Y-95388985D01*
X94110154Y-95801263D01*
X94015598Y-96064888D01*
X93940448Y-96273735D01*
X93795735Y-96639451D01*
X93602703Y-97109210D01*
X93382276Y-97631257D01*
X93365110Y-97671397D01*
X93157791Y-98158746D01*
X92988636Y-98560965D01*
X92874662Y-98837298D01*
X92832889Y-98946986D01*
X92495271Y-98946986D01*
X92502574Y-98933808D01*
X92533579Y-98887518D01*
X92647072Y-98654159D01*
X92772078Y-98335043D01*
X92881366Y-98050437D01*
X93069055Y-97605650D01*
X93271646Y-97159455D01*
X93426582Y-96815062D01*
X93650114Y-96270558D01*
X93829081Y-95782666D01*
X93967666Y-95379985D01*
X94164604Y-94830534D01*
X94356342Y-94315110D01*
X94371280Y-94275898D01*
X94525368Y-93865913D01*
X94649512Y-93526356D01*
X94718040Y-93327332D01*
X94764579Y-93221969D01*
X94871039Y-93129777D01*
X94918528Y-93099508D01*
X94952827Y-92932221D01*
X94962941Y-92793906D01*
X95045014Y-92503283D01*
X95177985Y-92210926D01*
X95205250Y-92170221D01*
X95429333Y-92170221D01*
X95485778Y-92226666D01*
X95542222Y-92170221D01*
X95485778Y-92113777D01*
X95429333Y-92170221D01*
X95205250Y-92170221D01*
X95325824Y-91990215D01*
X95452499Y-91914536D01*
X95514000Y-91912798D01*
X95569308Y-91799924D01*
X95600465Y-91578171D01*
X95762344Y-91226379D01*
X96026187Y-90803352D01*
X96359420Y-90352845D01*
X96729471Y-89918612D01*
X97103767Y-89544407D01*
X97449734Y-89273985D01*
X97489949Y-89248762D01*
X98091189Y-88944280D01*
X98788609Y-88725980D01*
X99622989Y-88584065D01*
X100303539Y-88533415D01*
X100962629Y-88533415D01*
X101060317Y-88660085D01*
X101303099Y-88746501D01*
X101612109Y-88776018D01*
X101908483Y-88731989D01*
X102235586Y-88670069D01*
X102587020Y-88677531D01*
X102853884Y-88744341D01*
X103116391Y-88845679D01*
X103283349Y-88895274D01*
X103388023Y-88813901D01*
X103325836Y-88608831D01*
X103290232Y-88517299D01*
X103240615Y-88229157D01*
X103220395Y-87861454D01*
X103209223Y-87414543D01*
X103162416Y-87134991D01*
X103058577Y-87050400D01*
X102876222Y-87145056D01*
X102593866Y-87403247D01*
X102387845Y-87588573D01*
X101953037Y-87915154D01*
X101535047Y-88164706D01*
X101297369Y-88289309D01*
X101056611Y-88438972D01*
X100962644Y-88532349D01*
X100962629Y-88533415D01*
X100303539Y-88533415D01*
X100635108Y-88508738D01*
X100658025Y-88503840D01*
X100797950Y-88372056D01*
X100950522Y-88118242D01*
X101080934Y-87819643D01*
X101154376Y-87553506D01*
X101136040Y-87397076D01*
X101093673Y-87378201D01*
X100977360Y-87458681D01*
X100856073Y-87549752D01*
X100591654Y-87677754D01*
X100256218Y-87811434D01*
X99918702Y-87925574D01*
X99648040Y-87994954D01*
X99513168Y-87994353D01*
X99504107Y-87971567D01*
X99518345Y-87788456D01*
X99588135Y-87501185D01*
X99637635Y-87330586D01*
X99702196Y-87029293D01*
X99661135Y-86922857D01*
X99497360Y-87000444D01*
X99193783Y-87251223D01*
X99080280Y-87345769D01*
X98737688Y-87585180D01*
X98393706Y-87774026D01*
X98107812Y-87882461D01*
X97939487Y-87880637D01*
X97965091Y-87782948D01*
X98065587Y-87534747D01*
X98219082Y-87192078D01*
X98236258Y-87154877D01*
X98387279Y-86787869D01*
X98388586Y-86782857D01*
X105906254Y-86782857D01*
X105916673Y-86885935D01*
X105961975Y-87120033D01*
X106057094Y-87198026D01*
X106249399Y-87173897D01*
X106318449Y-87162073D01*
X106631131Y-87133848D01*
X107070676Y-87114028D01*
X107564889Y-87106324D01*
X107912483Y-87112857D01*
X108824026Y-87212627D01*
X109692410Y-87449547D01*
X110606987Y-87845324D01*
X110946219Y-88031050D01*
X111348589Y-88289421D01*
X111642114Y-88520624D01*
X111868970Y-88718139D01*
X111993680Y-88763709D01*
X112063356Y-88674491D01*
X112128828Y-88588108D01*
X112385238Y-88409404D01*
X112779814Y-88210912D01*
X113261479Y-88014674D01*
X113779159Y-87842730D01*
X114281778Y-87717125D01*
X114857790Y-87589455D01*
X116041976Y-87221564D01*
X117051904Y-86738024D01*
X117908593Y-86125028D01*
X118633059Y-85368767D01*
X119246322Y-84455433D01*
X119378090Y-84203278D01*
X119597275Y-83713468D01*
X119806542Y-83173880D01*
X119983607Y-82647680D01*
X120106188Y-82198037D01*
X120152000Y-81888117D01*
X120149149Y-81870074D01*
X120067445Y-81688276D01*
X119895828Y-81386666D01*
X119665108Y-81020169D01*
X119648346Y-80994516D01*
X119388751Y-80566012D01*
X119166696Y-80147328D01*
X119028653Y-79825681D01*
X118936492Y-79615259D01*
X118701442Y-79232463D01*
X118414878Y-78873862D01*
X118201206Y-78641412D01*
X117713684Y-78079710D01*
X117386222Y-77647219D01*
X117382692Y-77641943D01*
X117261387Y-77458430D01*
X117060557Y-77152615D01*
X116821778Y-76787804D01*
X116812774Y-76774026D01*
X116570215Y-76403088D01*
X116363224Y-76086914D01*
X116235750Y-75892638D01*
X116181403Y-75826306D01*
X116131538Y-75849626D01*
X116106852Y-76038214D01*
X116099594Y-76422221D01*
X116099717Y-76479233D01*
X116162107Y-77206856D01*
X116353321Y-77812876D01*
X116695777Y-78370551D01*
X116769493Y-78468391D01*
X116906807Y-78679517D01*
X116916544Y-78797323D01*
X116812364Y-78881701D01*
X116738218Y-78905756D01*
X116526999Y-78883143D01*
X116194248Y-78761863D01*
X115705306Y-78530934D01*
X115428553Y-78387599D01*
X114204852Y-77614466D01*
X113155499Y-76699345D01*
X112276054Y-75637837D01*
X111562077Y-74425543D01*
X111347815Y-73995403D01*
X111151388Y-73614406D01*
X111010504Y-73356306D01*
X110946437Y-73261332D01*
X110932848Y-73278198D01*
X110961346Y-73415471D01*
X110963809Y-73487497D01*
X110880687Y-73745710D01*
X110701511Y-74122839D01*
X110451155Y-74576954D01*
X110154493Y-75066129D01*
X109836397Y-75548437D01*
X109521742Y-75981950D01*
X109235402Y-76324741D01*
X109223635Y-76337422D01*
X109055632Y-76553186D01*
X109015484Y-76756269D01*
X109079415Y-77058519D01*
X109152314Y-77383471D01*
X109191327Y-77841854D01*
X109157018Y-78362621D01*
X109045317Y-78994630D01*
X108852154Y-79786733D01*
X108704244Y-80423506D01*
X108562395Y-81288250D01*
X108486374Y-82125524D01*
X108478154Y-82888844D01*
X108539708Y-83531726D01*
X108673010Y-84007689D01*
X108772472Y-84306094D01*
X108781524Y-84593083D01*
X108685347Y-84756154D01*
X108507232Y-84762283D01*
X108270471Y-84578444D01*
X108150250Y-84410726D01*
X107966471Y-84100587D01*
X107766146Y-83727228D01*
X107582240Y-83354980D01*
X107447721Y-83048176D01*
X107395556Y-82871145D01*
X107390958Y-82832111D01*
X107300746Y-82743999D01*
X107293123Y-82746357D01*
X107225637Y-82876798D01*
X107142919Y-83167223D01*
X107061127Y-83562444D01*
X107035076Y-83704941D01*
X106979243Y-83941150D01*
X106845757Y-84505887D01*
X106606681Y-85138516D01*
X106300342Y-85650888D01*
X106236567Y-85740110D01*
X106114664Y-85938584D01*
X106099652Y-86017777D01*
X106111575Y-86046854D01*
X106016252Y-86171430D01*
X105916479Y-86396079D01*
X105906254Y-86782857D01*
X98388586Y-86782857D01*
X98476085Y-86447266D01*
X98518119Y-86049193D01*
X98528825Y-85509777D01*
X98527919Y-85392678D01*
X98502450Y-84820020D01*
X98466353Y-84441797D01*
X104811410Y-84441797D01*
X105213566Y-85116898D01*
X105226400Y-85138419D01*
X105427132Y-85468511D01*
X105576721Y-85702875D01*
X105643627Y-85791999D01*
X105657419Y-85785025D01*
X105707450Y-85632444D01*
X105748522Y-85319538D01*
X105779144Y-84898534D01*
X105797826Y-84421662D01*
X105803076Y-83941150D01*
X105793403Y-83509226D01*
X105767317Y-83178120D01*
X105723327Y-83000059D01*
X105627789Y-83014183D01*
X105459362Y-83233483D01*
X105223205Y-83651403D01*
X104811410Y-84441797D01*
X98466353Y-84441797D01*
X98449038Y-84260364D01*
X98377218Y-83820011D01*
X98225312Y-83146245D01*
X98021653Y-83543217D01*
X97851576Y-83946147D01*
X97662562Y-84562011D01*
X97510362Y-85240783D01*
X97417740Y-85893860D01*
X97385189Y-86134969D01*
X97306942Y-86439644D01*
X97214396Y-86597687D01*
X97151286Y-86646258D01*
X97157551Y-86693382D01*
X97187992Y-86704310D01*
X97174566Y-86815353D01*
X97153756Y-86842022D01*
X97020317Y-86851714D01*
X96854663Y-86694888D01*
X96688564Y-86411211D01*
X96553794Y-86040348D01*
X96504621Y-85869200D01*
X96401664Y-85565120D01*
X96320839Y-85392444D01*
X96272549Y-85306904D01*
X96211396Y-85139550D01*
X96130629Y-84859146D01*
X96020025Y-84430005D01*
X95869360Y-83816444D01*
X95830107Y-83641065D01*
X95745143Y-83196738D01*
X95672712Y-82743999D01*
X95585608Y-82123110D01*
X95455488Y-82563240D01*
X95434722Y-82643801D01*
X95381023Y-83079815D01*
X95396017Y-83522796D01*
X95418427Y-83695678D01*
X95431506Y-83910259D01*
X95388354Y-83960272D01*
X95275938Y-83885023D01*
X95109766Y-83775229D01*
X95033229Y-83795030D01*
X95084765Y-83945849D01*
X95265396Y-84197379D01*
X95313711Y-84256285D01*
X95456269Y-84470615D01*
X95447087Y-84542701D01*
X95309847Y-84467453D01*
X95068230Y-84239777D01*
X94727186Y-83805866D01*
X94499340Y-83328026D01*
X94366358Y-82749150D01*
X94308121Y-82010221D01*
X94301394Y-81889878D01*
X94265359Y-81768965D01*
X94187556Y-81840888D01*
X94137872Y-81891241D01*
X94087022Y-81823668D01*
X94074983Y-81603220D01*
X94099753Y-81273078D01*
X94159332Y-80876424D01*
X94251717Y-80456439D01*
X94334031Y-80182332D01*
X94532118Y-79656493D01*
X94781387Y-79093392D01*
X95051398Y-78555960D01*
X95311712Y-78107129D01*
X95531889Y-77809830D01*
X95722253Y-77577701D01*
X95752732Y-77458887D01*
X95616948Y-77472030D01*
X95442976Y-77481168D01*
X95148682Y-77370620D01*
X94862830Y-77162735D01*
X94667333Y-76906313D01*
X94628388Y-76820504D01*
X94538199Y-76563389D01*
X94575673Y-76473033D01*
X94744579Y-76531138D01*
X94894411Y-76589441D01*
X95267966Y-76638057D01*
X95701857Y-76612152D01*
X96138891Y-76525049D01*
X96521871Y-76390071D01*
X96793602Y-76220542D01*
X96896889Y-76029783D01*
X96900415Y-76016119D01*
X97004296Y-75880871D01*
X97207333Y-75681993D01*
X97683283Y-75239714D01*
X98316212Y-74588904D01*
X98812593Y-73994291D01*
X99144742Y-73487238D01*
X99196435Y-73383063D01*
X99320580Y-73091999D01*
X111008000Y-73091999D01*
X111064444Y-73148444D01*
X111120889Y-73091999D01*
X111064444Y-73035555D01*
X111008000Y-73091999D01*
X99320580Y-73091999D01*
X99367115Y-72982895D01*
X99571378Y-72445222D01*
X99787969Y-71827508D01*
X99995628Y-71187214D01*
X100092142Y-70879043D01*
X100276752Y-70306240D01*
X100440982Y-69817460D01*
X100569854Y-69456736D01*
X100648390Y-69268103D01*
X100732323Y-69087025D01*
X100816336Y-68812183D01*
X100821192Y-68788122D01*
X100916386Y-68533538D01*
X101075856Y-68234414D01*
X101077964Y-68231001D01*
X101253058Y-67916293D01*
X101289771Y-67766096D01*
X101186667Y-67786221D01*
X101083310Y-67824297D01*
X101055294Y-67749769D01*
X101126328Y-67579427D01*
X101275021Y-67360408D01*
X101479983Y-67139848D01*
X101637762Y-66986155D01*
X101972590Y-66617971D01*
X102275615Y-66239727D01*
X102762445Y-65709429D01*
X103422282Y-65222665D01*
X104270360Y-64772459D01*
X105325247Y-64347290D01*
X105455234Y-64301111D01*
X106649295Y-63913180D01*
X107706980Y-63647613D01*
X108673666Y-63499757D01*
X109594730Y-63464958D01*
X110515550Y-63538562D01*
X111481505Y-63715915D01*
X111873700Y-63806557D01*
X112388182Y-63938265D01*
X112768450Y-64064285D01*
X113069324Y-64208008D01*
X113345625Y-64392826D01*
X113652176Y-64642131D01*
X113695242Y-64678498D01*
X113979737Y-64896252D01*
X114123175Y-64959732D01*
X114132988Y-64882391D01*
X114016609Y-64677682D01*
X113781471Y-64359060D01*
X113435006Y-63939979D01*
X112984649Y-63433890D01*
X112669113Y-63107106D01*
X112204030Y-62652792D01*
X111656484Y-62136139D01*
X111073452Y-61600283D01*
X110501914Y-61088358D01*
X109988846Y-60643501D01*
X109581226Y-60308847D01*
X109521109Y-60260102D01*
X109382523Y-60110168D01*
X109427556Y-60055709D01*
X109460958Y-60057297D01*
X109735205Y-60111237D01*
X110141575Y-60226647D01*
X110616325Y-60382810D01*
X111095714Y-60559008D01*
X111516000Y-60734522D01*
X111742655Y-60834825D01*
X112048733Y-60960281D01*
X112231376Y-61021905D01*
X112267326Y-61030185D01*
X112634820Y-61205546D01*
X113021890Y-61516310D01*
X113373431Y-61902846D01*
X113634335Y-62305521D01*
X113749497Y-62664702D01*
X113763343Y-62733721D01*
X113863214Y-63007700D01*
X114036402Y-63391867D01*
X114256544Y-63825851D01*
X114744851Y-64738221D01*
X114692434Y-63722221D01*
X114680877Y-63517463D01*
X114648312Y-63068548D01*
X114613175Y-62720982D01*
X114581290Y-62536888D01*
X114558571Y-62451109D01*
X114503584Y-62159904D01*
X114443801Y-61771941D01*
X114391652Y-61371062D01*
X114359564Y-61041110D01*
X114339284Y-60937357D01*
X114257587Y-60843555D01*
X114201693Y-60785135D01*
X114168889Y-60583910D01*
X114142349Y-60403867D01*
X114027778Y-60170446D01*
X114004039Y-60135860D01*
X114072380Y-60135129D01*
X114281778Y-60236120D01*
X114322214Y-60259543D01*
X114527410Y-60418967D01*
X114726050Y-60661335D01*
X114948125Y-61028933D01*
X115223627Y-61564048D01*
X115459211Y-62073678D01*
X115683470Y-62712401D01*
X115776449Y-63292871D01*
X115746731Y-63882655D01*
X115602902Y-64549317D01*
X115439252Y-65150634D01*
X115728580Y-65078017D01*
X116313765Y-64978761D01*
X117260503Y-64969389D01*
X118277893Y-65108801D01*
X119320172Y-65384026D01*
X120341579Y-65782094D01*
X121296352Y-66290034D01*
X122138726Y-66894875D01*
X122487283Y-67238082D01*
X122993984Y-67939796D01*
X123420777Y-68795616D01*
X123744377Y-69763935D01*
X123821399Y-70062385D01*
X123930046Y-70513824D01*
X124011451Y-70920162D01*
X124073053Y-71335530D01*
X124122289Y-71814060D01*
X124166601Y-72409885D01*
X124208229Y-73091999D01*
X124213425Y-73177137D01*
G37*
G36*
X126323259Y-96892740D02*
G01*
X126340920Y-96926695D01*
X126248000Y-96967999D01*
X126188237Y-96959852D01*
X126172741Y-96892740D01*
X126189287Y-96879229D01*
X126323259Y-96892740D01*
G37*
G36*
X94187556Y-82123110D02*
G01*
X94131111Y-82179555D01*
X94074667Y-82123110D01*
X94131111Y-82066666D01*
X94187556Y-82123110D01*
G37*
G36*
X86462220Y-129034712D02*
G01*
X86567231Y-129186952D01*
X86622211Y-129508889D01*
X86555478Y-129865877D01*
X86465106Y-129994373D01*
X86259873Y-130026449D01*
X86011175Y-129867047D01*
X85878291Y-129687861D01*
X85864119Y-129423807D01*
X86067109Y-129133779D01*
X86130791Y-129073033D01*
X86307560Y-128970820D01*
X86462220Y-129034712D01*
G37*
G36*
X85450198Y-128291345D02*
G01*
X85522640Y-128430919D01*
X85543802Y-128644305D01*
X85522875Y-128712185D01*
X85442210Y-128971999D01*
X85439811Y-128979363D01*
X85304569Y-129124396D01*
X85109275Y-129103002D01*
X84934639Y-128922976D01*
X84846593Y-128713668D01*
X84853324Y-128429949D01*
X85062841Y-128227900D01*
X85109195Y-128204104D01*
X85301837Y-128162132D01*
X85450198Y-128291345D01*
G37*
G36*
X84263673Y-126832625D02*
G01*
X84398412Y-126933457D01*
X84458703Y-127202875D01*
X84468530Y-127430189D01*
X84408427Y-127541186D01*
X84232926Y-127541541D01*
X84160746Y-127527604D01*
X84010341Y-127420011D01*
X83971111Y-127165777D01*
X83973440Y-127078354D01*
X84031627Y-126880331D01*
X84196889Y-126827110D01*
X84263673Y-126832625D01*
G37*
G36*
X87844187Y-128497292D02*
G01*
X88025676Y-128653182D01*
X88077028Y-128925855D01*
X87981783Y-129248398D01*
X87862990Y-129427671D01*
X87725379Y-129455734D01*
X87516879Y-129301405D01*
X87473875Y-129255150D01*
X87386451Y-129012081D01*
X87428863Y-128749536D01*
X87573885Y-128547535D01*
X87794290Y-128486097D01*
X87844187Y-128497292D01*
G37*
G36*
X91902060Y-121896924D02*
G01*
X91963811Y-121944533D01*
X92163014Y-122158771D01*
X92373184Y-122440978D01*
X92539491Y-122713312D01*
X92607111Y-122897931D01*
X92596379Y-122985546D01*
X92501111Y-123031718D01*
X92303709Y-122886228D01*
X91999821Y-122546556D01*
X91831006Y-122328131D01*
X91645445Y-122029765D01*
X91593375Y-121844763D01*
X91677884Y-121793643D01*
X91902060Y-121896924D01*
G37*
G36*
X91241321Y-117526905D02*
G01*
X91217220Y-117824542D01*
X91151301Y-118208335D01*
X91050782Y-118635710D01*
X90922880Y-119064095D01*
X90774813Y-119450917D01*
X90773366Y-119454168D01*
X90630001Y-119678437D01*
X90484447Y-119771555D01*
X90425765Y-119759763D01*
X90405516Y-119659090D01*
X90442882Y-119582902D01*
X90514985Y-119348646D01*
X90555712Y-119160973D01*
X90666825Y-118719401D01*
X90797974Y-118259917D01*
X90930803Y-117841842D01*
X91046956Y-117524499D01*
X91128078Y-117367210D01*
X91135199Y-117360387D01*
X91216387Y-117357995D01*
X91241321Y-117526905D01*
G37*
G36*
X124948828Y-110630540D02*
G01*
X124983822Y-110744250D01*
X124942179Y-110967362D01*
X124845455Y-111221094D01*
X124715205Y-111426666D01*
X124622515Y-111546812D01*
X124554667Y-111698232D01*
X124543482Y-111737959D01*
X124435869Y-111927913D01*
X124251058Y-112189628D01*
X124216523Y-112233906D01*
X124016223Y-112437530D01*
X123912494Y-112448964D01*
X123919785Y-112284806D01*
X124052550Y-111961652D01*
X124172179Y-111732996D01*
X124408662Y-111320111D01*
X124635142Y-110966919D01*
X124820543Y-110720456D01*
X124933794Y-110627756D01*
X124948828Y-110630540D01*
G37*
G36*
X124402026Y-108856840D02*
G01*
X124389936Y-108970574D01*
X124289717Y-109231218D01*
X124124870Y-109584455D01*
X123921345Y-109977854D01*
X123705086Y-110358986D01*
X123502041Y-110675420D01*
X123425018Y-110779567D01*
X123286515Y-110918551D01*
X123237475Y-110880080D01*
X123275277Y-110684592D01*
X123397300Y-110352526D01*
X123600923Y-109904319D01*
X123823707Y-109469589D01*
X124075937Y-109056100D01*
X124267840Y-108852988D01*
X124402026Y-108856840D01*
G37*
G36*
X123536612Y-107043332D02*
G01*
X123515897Y-107124207D01*
X123386497Y-107384561D01*
X123163780Y-107750199D01*
X122877203Y-108174074D01*
X122556225Y-108609137D01*
X122413706Y-108784525D01*
X122261812Y-108929085D01*
X122217137Y-108896685D01*
X122277281Y-108699619D01*
X122439842Y-108350180D01*
X122702419Y-107860660D01*
X122905857Y-107516223D01*
X123163474Y-107142098D01*
X123363838Y-106929398D01*
X123492901Y-106891888D01*
X123536612Y-107043332D01*
G37*
G36*
X111340683Y-82035858D02*
G01*
X111519499Y-82235999D01*
X111570110Y-82298971D01*
X111732079Y-82521554D01*
X111797662Y-82648605D01*
X111804818Y-82675164D01*
X111949044Y-82810555D01*
X112232460Y-82975399D01*
X112593943Y-83140924D01*
X112972371Y-83278356D01*
X113306622Y-83358925D01*
X113545647Y-83412416D01*
X114006424Y-83577957D01*
X114433844Y-83794832D01*
X114956968Y-84046981D01*
X115587010Y-84153108D01*
X116257333Y-84048318D01*
X116453320Y-83996444D01*
X116525143Y-84012560D01*
X116446691Y-84129608D01*
X116322010Y-84238456D01*
X116051580Y-84358737D01*
X115865741Y-84388824D01*
X115255391Y-84385861D01*
X114655308Y-84206252D01*
X114012025Y-83836303D01*
X113881508Y-83752879D01*
X113569282Y-83596093D01*
X113334691Y-83533592D01*
X112895028Y-83479705D01*
X112273404Y-83230619D01*
X111713928Y-82802301D01*
X111506748Y-82573714D01*
X111311600Y-82299982D01*
X111237838Y-82109742D01*
X111257826Y-82005928D01*
X111340683Y-82035858D01*
G37*
G36*
X115962997Y-79996019D02*
G01*
X116083191Y-80349189D01*
X116097145Y-80400471D01*
X116190092Y-80916890D01*
X116147150Y-81301228D01*
X115963760Y-81601287D01*
X115879717Y-81685657D01*
X115711406Y-81797065D01*
X115662295Y-81729390D01*
X115753910Y-81493670D01*
X115771149Y-81457565D01*
X115838917Y-81088706D01*
X115815415Y-80515259D01*
X115794253Y-80222350D01*
X115807862Y-79939214D01*
X115867665Y-79861566D01*
X115962997Y-79996019D01*
G37*
%TD*%
M02*
