%TF.GenerationSoftware,KiCad,Pcbnew,9.0.6*%
%TF.CreationDate,2025-12-06T16:02:11-05:00*%
%TF.ProjectId,hackpad,6861636b-7061-4642-9e6b-696361645f70,rev?*%
%TF.SameCoordinates,Original*%
%TF.FileFunction,Legend,Top*%
%TF.FilePolarity,Positive*%
%FSLAX46Y46*%
G04 Gerber Fmt 4.6, Leading zero omitted, Abs format (unit mm)*
G04 Created by KiCad (PCBNEW 9.0.6) date 2025-12-06 16:02:11*
%MOMM*%
%LPD*%
G01*
G04 APERTURE LIST*
%ADD10C,0.100000*%
%ADD11C,0.150000*%
%ADD12C,0.120000*%
%ADD13C,0.040000*%
%ADD14C,0.127000*%
%ADD15C,0.504000*%
G04 APERTURE END LIST*
D10*
X84952381Y-52372419D02*
X85619047Y-53372419D01*
X85619047Y-52372419D02*
X84952381Y-53372419D01*
X86000000Y-53372419D02*
X86000000Y-52705752D01*
X86000000Y-52372419D02*
X85952381Y-52420038D01*
X85952381Y-52420038D02*
X86000000Y-52467657D01*
X86000000Y-52467657D02*
X86047619Y-52420038D01*
X86047619Y-52420038D02*
X86000000Y-52372419D01*
X86000000Y-52372419D02*
X86000000Y-52467657D01*
X86904761Y-53372419D02*
X86904761Y-52848609D01*
X86904761Y-52848609D02*
X86857142Y-52753371D01*
X86857142Y-52753371D02*
X86761904Y-52705752D01*
X86761904Y-52705752D02*
X86571428Y-52705752D01*
X86571428Y-52705752D02*
X86476190Y-52753371D01*
X86904761Y-53324800D02*
X86809523Y-53372419D01*
X86809523Y-53372419D02*
X86571428Y-53372419D01*
X86571428Y-53372419D02*
X86476190Y-53324800D01*
X86476190Y-53324800D02*
X86428571Y-53229561D01*
X86428571Y-53229561D02*
X86428571Y-53134323D01*
X86428571Y-53134323D02*
X86476190Y-53039085D01*
X86476190Y-53039085D02*
X86571428Y-52991466D01*
X86571428Y-52991466D02*
X86809523Y-52991466D01*
X86809523Y-52991466D02*
X86904761Y-52943847D01*
X87523809Y-53372419D02*
X87428571Y-53324800D01*
X87428571Y-53324800D02*
X87380952Y-53277180D01*
X87380952Y-53277180D02*
X87333333Y-53181942D01*
X87333333Y-53181942D02*
X87333333Y-52896228D01*
X87333333Y-52896228D02*
X87380952Y-52800990D01*
X87380952Y-52800990D02*
X87428571Y-52753371D01*
X87428571Y-52753371D02*
X87523809Y-52705752D01*
X87523809Y-52705752D02*
X87666666Y-52705752D01*
X87666666Y-52705752D02*
X87761904Y-52753371D01*
X87761904Y-52753371D02*
X87809523Y-52800990D01*
X87809523Y-52800990D02*
X87857142Y-52896228D01*
X87857142Y-52896228D02*
X87857142Y-53181942D01*
X87857142Y-53181942D02*
X87809523Y-53277180D01*
X87809523Y-53277180D02*
X87761904Y-53324800D01*
X87761904Y-53324800D02*
X87666666Y-53372419D01*
X87666666Y-53372419D02*
X87523809Y-53372419D01*
X89047619Y-53372419D02*
X89047619Y-52372419D01*
X89047619Y-52848609D02*
X89619047Y-52848609D01*
X89619047Y-53372419D02*
X89619047Y-52372419D01*
X90476190Y-53324800D02*
X90380952Y-53372419D01*
X90380952Y-53372419D02*
X90190476Y-53372419D01*
X90190476Y-53372419D02*
X90095238Y-53324800D01*
X90095238Y-53324800D02*
X90047619Y-53229561D01*
X90047619Y-53229561D02*
X90047619Y-52848609D01*
X90047619Y-52848609D02*
X90095238Y-52753371D01*
X90095238Y-52753371D02*
X90190476Y-52705752D01*
X90190476Y-52705752D02*
X90380952Y-52705752D01*
X90380952Y-52705752D02*
X90476190Y-52753371D01*
X90476190Y-52753371D02*
X90523809Y-52848609D01*
X90523809Y-52848609D02*
X90523809Y-52943847D01*
X90523809Y-52943847D02*
X90047619Y-53039085D01*
X90952381Y-53372419D02*
X90952381Y-52705752D01*
X90952381Y-52896228D02*
X91000000Y-52800990D01*
X91000000Y-52800990D02*
X91047619Y-52753371D01*
X91047619Y-52753371D02*
X91142857Y-52705752D01*
X91142857Y-52705752D02*
X91238095Y-52705752D01*
X91952381Y-53324800D02*
X91857143Y-53372419D01*
X91857143Y-53372419D02*
X91666667Y-53372419D01*
X91666667Y-53372419D02*
X91571429Y-53324800D01*
X91571429Y-53324800D02*
X91523810Y-53229561D01*
X91523810Y-53229561D02*
X91523810Y-52848609D01*
X91523810Y-52848609D02*
X91571429Y-52753371D01*
X91571429Y-52753371D02*
X91666667Y-52705752D01*
X91666667Y-52705752D02*
X91857143Y-52705752D01*
X91857143Y-52705752D02*
X91952381Y-52753371D01*
X91952381Y-52753371D02*
X92000000Y-52848609D01*
X92000000Y-52848609D02*
X92000000Y-52943847D01*
X92000000Y-52943847D02*
X91523810Y-53039085D01*
D11*
X138166667Y-67033200D02*
X138309524Y-67080819D01*
X138309524Y-67080819D02*
X138547619Y-67080819D01*
X138547619Y-67080819D02*
X138642857Y-67033200D01*
X138642857Y-67033200D02*
X138690476Y-66985580D01*
X138690476Y-66985580D02*
X138738095Y-66890342D01*
X138738095Y-66890342D02*
X138738095Y-66795104D01*
X138738095Y-66795104D02*
X138690476Y-66699866D01*
X138690476Y-66699866D02*
X138642857Y-66652247D01*
X138642857Y-66652247D02*
X138547619Y-66604628D01*
X138547619Y-66604628D02*
X138357143Y-66557009D01*
X138357143Y-66557009D02*
X138261905Y-66509390D01*
X138261905Y-66509390D02*
X138214286Y-66461771D01*
X138214286Y-66461771D02*
X138166667Y-66366533D01*
X138166667Y-66366533D02*
X138166667Y-66271295D01*
X138166667Y-66271295D02*
X138214286Y-66176057D01*
X138214286Y-66176057D02*
X138261905Y-66128438D01*
X138261905Y-66128438D02*
X138357143Y-66080819D01*
X138357143Y-66080819D02*
X138595238Y-66080819D01*
X138595238Y-66080819D02*
X138738095Y-66128438D01*
X139071429Y-66080819D02*
X139309524Y-67080819D01*
X139309524Y-67080819D02*
X139500000Y-66366533D01*
X139500000Y-66366533D02*
X139690476Y-67080819D01*
X139690476Y-67080819D02*
X139928572Y-66080819D01*
X140738095Y-66414152D02*
X140738095Y-67080819D01*
X140500000Y-66033200D02*
X140261905Y-66747485D01*
X140261905Y-66747485D02*
X140880952Y-66747485D01*
X99690476Y-124033200D02*
X99833333Y-124080819D01*
X99833333Y-124080819D02*
X100071428Y-124080819D01*
X100071428Y-124080819D02*
X100166666Y-124033200D01*
X100166666Y-124033200D02*
X100214285Y-123985580D01*
X100214285Y-123985580D02*
X100261904Y-123890342D01*
X100261904Y-123890342D02*
X100261904Y-123795104D01*
X100261904Y-123795104D02*
X100214285Y-123699866D01*
X100214285Y-123699866D02*
X100166666Y-123652247D01*
X100166666Y-123652247D02*
X100071428Y-123604628D01*
X100071428Y-123604628D02*
X99880952Y-123557009D01*
X99880952Y-123557009D02*
X99785714Y-123509390D01*
X99785714Y-123509390D02*
X99738095Y-123461771D01*
X99738095Y-123461771D02*
X99690476Y-123366533D01*
X99690476Y-123366533D02*
X99690476Y-123271295D01*
X99690476Y-123271295D02*
X99738095Y-123176057D01*
X99738095Y-123176057D02*
X99785714Y-123128438D01*
X99785714Y-123128438D02*
X99880952Y-123080819D01*
X99880952Y-123080819D02*
X100119047Y-123080819D01*
X100119047Y-123080819D02*
X100261904Y-123128438D01*
X100595238Y-123080819D02*
X100833333Y-124080819D01*
X100833333Y-124080819D02*
X101023809Y-123366533D01*
X101023809Y-123366533D02*
X101214285Y-124080819D01*
X101214285Y-124080819D02*
X101452381Y-123080819D01*
X102357142Y-124080819D02*
X101785714Y-124080819D01*
X102071428Y-124080819D02*
X102071428Y-123080819D01*
X102071428Y-123080819D02*
X101976190Y-123223676D01*
X101976190Y-123223676D02*
X101880952Y-123318914D01*
X101880952Y-123318914D02*
X101785714Y-123366533D01*
X103214285Y-123414152D02*
X103214285Y-124080819D01*
X102976190Y-123033200D02*
X102738095Y-123747485D01*
X102738095Y-123747485D02*
X103357142Y-123747485D01*
X80690476Y-124033200D02*
X80833333Y-124080819D01*
X80833333Y-124080819D02*
X81071428Y-124080819D01*
X81071428Y-124080819D02*
X81166666Y-124033200D01*
X81166666Y-124033200D02*
X81214285Y-123985580D01*
X81214285Y-123985580D02*
X81261904Y-123890342D01*
X81261904Y-123890342D02*
X81261904Y-123795104D01*
X81261904Y-123795104D02*
X81214285Y-123699866D01*
X81214285Y-123699866D02*
X81166666Y-123652247D01*
X81166666Y-123652247D02*
X81071428Y-123604628D01*
X81071428Y-123604628D02*
X80880952Y-123557009D01*
X80880952Y-123557009D02*
X80785714Y-123509390D01*
X80785714Y-123509390D02*
X80738095Y-123461771D01*
X80738095Y-123461771D02*
X80690476Y-123366533D01*
X80690476Y-123366533D02*
X80690476Y-123271295D01*
X80690476Y-123271295D02*
X80738095Y-123176057D01*
X80738095Y-123176057D02*
X80785714Y-123128438D01*
X80785714Y-123128438D02*
X80880952Y-123080819D01*
X80880952Y-123080819D02*
X81119047Y-123080819D01*
X81119047Y-123080819D02*
X81261904Y-123128438D01*
X81595238Y-123080819D02*
X81833333Y-124080819D01*
X81833333Y-124080819D02*
X82023809Y-123366533D01*
X82023809Y-123366533D02*
X82214285Y-124080819D01*
X82214285Y-124080819D02*
X82452381Y-123080819D01*
X83357142Y-124080819D02*
X82785714Y-124080819D01*
X83071428Y-124080819D02*
X83071428Y-123080819D01*
X83071428Y-123080819D02*
X82976190Y-123223676D01*
X82976190Y-123223676D02*
X82880952Y-123318914D01*
X82880952Y-123318914D02*
X82785714Y-123366533D01*
X83690476Y-123080819D02*
X84309523Y-123080819D01*
X84309523Y-123080819D02*
X83976190Y-123461771D01*
X83976190Y-123461771D02*
X84119047Y-123461771D01*
X84119047Y-123461771D02*
X84214285Y-123509390D01*
X84214285Y-123509390D02*
X84261904Y-123557009D01*
X84261904Y-123557009D02*
X84309523Y-123652247D01*
X84309523Y-123652247D02*
X84309523Y-123890342D01*
X84309523Y-123890342D02*
X84261904Y-123985580D01*
X84261904Y-123985580D02*
X84214285Y-124033200D01*
X84214285Y-124033200D02*
X84119047Y-124080819D01*
X84119047Y-124080819D02*
X83833333Y-124080819D01*
X83833333Y-124080819D02*
X83738095Y-124033200D01*
X83738095Y-124033200D02*
X83690476Y-123985580D01*
X137690476Y-105033200D02*
X137833333Y-105080819D01*
X137833333Y-105080819D02*
X138071428Y-105080819D01*
X138071428Y-105080819D02*
X138166666Y-105033200D01*
X138166666Y-105033200D02*
X138214285Y-104985580D01*
X138214285Y-104985580D02*
X138261904Y-104890342D01*
X138261904Y-104890342D02*
X138261904Y-104795104D01*
X138261904Y-104795104D02*
X138214285Y-104699866D01*
X138214285Y-104699866D02*
X138166666Y-104652247D01*
X138166666Y-104652247D02*
X138071428Y-104604628D01*
X138071428Y-104604628D02*
X137880952Y-104557009D01*
X137880952Y-104557009D02*
X137785714Y-104509390D01*
X137785714Y-104509390D02*
X137738095Y-104461771D01*
X137738095Y-104461771D02*
X137690476Y-104366533D01*
X137690476Y-104366533D02*
X137690476Y-104271295D01*
X137690476Y-104271295D02*
X137738095Y-104176057D01*
X137738095Y-104176057D02*
X137785714Y-104128438D01*
X137785714Y-104128438D02*
X137880952Y-104080819D01*
X137880952Y-104080819D02*
X138119047Y-104080819D01*
X138119047Y-104080819D02*
X138261904Y-104128438D01*
X138595238Y-104080819D02*
X138833333Y-105080819D01*
X138833333Y-105080819D02*
X139023809Y-104366533D01*
X139023809Y-104366533D02*
X139214285Y-105080819D01*
X139214285Y-105080819D02*
X139452381Y-104080819D01*
X140357142Y-105080819D02*
X139785714Y-105080819D01*
X140071428Y-105080819D02*
X140071428Y-104080819D01*
X140071428Y-104080819D02*
X139976190Y-104223676D01*
X139976190Y-104223676D02*
X139880952Y-104318914D01*
X139880952Y-104318914D02*
X139785714Y-104366533D01*
X140738095Y-104176057D02*
X140785714Y-104128438D01*
X140785714Y-104128438D02*
X140880952Y-104080819D01*
X140880952Y-104080819D02*
X141119047Y-104080819D01*
X141119047Y-104080819D02*
X141214285Y-104128438D01*
X141214285Y-104128438D02*
X141261904Y-104176057D01*
X141261904Y-104176057D02*
X141309523Y-104271295D01*
X141309523Y-104271295D02*
X141309523Y-104366533D01*
X141309523Y-104366533D02*
X141261904Y-104509390D01*
X141261904Y-104509390D02*
X140690476Y-105080819D01*
X140690476Y-105080819D02*
X141309523Y-105080819D01*
X99690476Y-105033200D02*
X99833333Y-105080819D01*
X99833333Y-105080819D02*
X100071428Y-105080819D01*
X100071428Y-105080819D02*
X100166666Y-105033200D01*
X100166666Y-105033200D02*
X100214285Y-104985580D01*
X100214285Y-104985580D02*
X100261904Y-104890342D01*
X100261904Y-104890342D02*
X100261904Y-104795104D01*
X100261904Y-104795104D02*
X100214285Y-104699866D01*
X100214285Y-104699866D02*
X100166666Y-104652247D01*
X100166666Y-104652247D02*
X100071428Y-104604628D01*
X100071428Y-104604628D02*
X99880952Y-104557009D01*
X99880952Y-104557009D02*
X99785714Y-104509390D01*
X99785714Y-104509390D02*
X99738095Y-104461771D01*
X99738095Y-104461771D02*
X99690476Y-104366533D01*
X99690476Y-104366533D02*
X99690476Y-104271295D01*
X99690476Y-104271295D02*
X99738095Y-104176057D01*
X99738095Y-104176057D02*
X99785714Y-104128438D01*
X99785714Y-104128438D02*
X99880952Y-104080819D01*
X99880952Y-104080819D02*
X100119047Y-104080819D01*
X100119047Y-104080819D02*
X100261904Y-104128438D01*
X100595238Y-104080819D02*
X100833333Y-105080819D01*
X100833333Y-105080819D02*
X101023809Y-104366533D01*
X101023809Y-104366533D02*
X101214285Y-105080819D01*
X101214285Y-105080819D02*
X101452381Y-104080819D01*
X102357142Y-105080819D02*
X101785714Y-105080819D01*
X102071428Y-105080819D02*
X102071428Y-104080819D01*
X102071428Y-104080819D02*
X101976190Y-104223676D01*
X101976190Y-104223676D02*
X101880952Y-104318914D01*
X101880952Y-104318914D02*
X101785714Y-104366533D01*
X102976190Y-104080819D02*
X103071428Y-104080819D01*
X103071428Y-104080819D02*
X103166666Y-104128438D01*
X103166666Y-104128438D02*
X103214285Y-104176057D01*
X103214285Y-104176057D02*
X103261904Y-104271295D01*
X103261904Y-104271295D02*
X103309523Y-104461771D01*
X103309523Y-104461771D02*
X103309523Y-104699866D01*
X103309523Y-104699866D02*
X103261904Y-104890342D01*
X103261904Y-104890342D02*
X103214285Y-104985580D01*
X103214285Y-104985580D02*
X103166666Y-105033200D01*
X103166666Y-105033200D02*
X103071428Y-105080819D01*
X103071428Y-105080819D02*
X102976190Y-105080819D01*
X102976190Y-105080819D02*
X102880952Y-105033200D01*
X102880952Y-105033200D02*
X102833333Y-104985580D01*
X102833333Y-104985580D02*
X102785714Y-104890342D01*
X102785714Y-104890342D02*
X102738095Y-104699866D01*
X102738095Y-104699866D02*
X102738095Y-104461771D01*
X102738095Y-104461771D02*
X102785714Y-104271295D01*
X102785714Y-104271295D02*
X102833333Y-104176057D01*
X102833333Y-104176057D02*
X102880952Y-104128438D01*
X102880952Y-104128438D02*
X102976190Y-104080819D01*
X81166667Y-86033200D02*
X81309524Y-86080819D01*
X81309524Y-86080819D02*
X81547619Y-86080819D01*
X81547619Y-86080819D02*
X81642857Y-86033200D01*
X81642857Y-86033200D02*
X81690476Y-85985580D01*
X81690476Y-85985580D02*
X81738095Y-85890342D01*
X81738095Y-85890342D02*
X81738095Y-85795104D01*
X81738095Y-85795104D02*
X81690476Y-85699866D01*
X81690476Y-85699866D02*
X81642857Y-85652247D01*
X81642857Y-85652247D02*
X81547619Y-85604628D01*
X81547619Y-85604628D02*
X81357143Y-85557009D01*
X81357143Y-85557009D02*
X81261905Y-85509390D01*
X81261905Y-85509390D02*
X81214286Y-85461771D01*
X81214286Y-85461771D02*
X81166667Y-85366533D01*
X81166667Y-85366533D02*
X81166667Y-85271295D01*
X81166667Y-85271295D02*
X81214286Y-85176057D01*
X81214286Y-85176057D02*
X81261905Y-85128438D01*
X81261905Y-85128438D02*
X81357143Y-85080819D01*
X81357143Y-85080819D02*
X81595238Y-85080819D01*
X81595238Y-85080819D02*
X81738095Y-85128438D01*
X82071429Y-85080819D02*
X82309524Y-86080819D01*
X82309524Y-86080819D02*
X82500000Y-85366533D01*
X82500000Y-85366533D02*
X82690476Y-86080819D01*
X82690476Y-86080819D02*
X82928572Y-85080819D01*
X83785714Y-85080819D02*
X83309524Y-85080819D01*
X83309524Y-85080819D02*
X83261905Y-85557009D01*
X83261905Y-85557009D02*
X83309524Y-85509390D01*
X83309524Y-85509390D02*
X83404762Y-85461771D01*
X83404762Y-85461771D02*
X83642857Y-85461771D01*
X83642857Y-85461771D02*
X83738095Y-85509390D01*
X83738095Y-85509390D02*
X83785714Y-85557009D01*
X83785714Y-85557009D02*
X83833333Y-85652247D01*
X83833333Y-85652247D02*
X83833333Y-85890342D01*
X83833333Y-85890342D02*
X83785714Y-85985580D01*
X83785714Y-85985580D02*
X83738095Y-86033200D01*
X83738095Y-86033200D02*
X83642857Y-86080819D01*
X83642857Y-86080819D02*
X83404762Y-86080819D01*
X83404762Y-86080819D02*
X83309524Y-86033200D01*
X83309524Y-86033200D02*
X83261905Y-85985580D01*
X119166667Y-86033200D02*
X119309524Y-86080819D01*
X119309524Y-86080819D02*
X119547619Y-86080819D01*
X119547619Y-86080819D02*
X119642857Y-86033200D01*
X119642857Y-86033200D02*
X119690476Y-85985580D01*
X119690476Y-85985580D02*
X119738095Y-85890342D01*
X119738095Y-85890342D02*
X119738095Y-85795104D01*
X119738095Y-85795104D02*
X119690476Y-85699866D01*
X119690476Y-85699866D02*
X119642857Y-85652247D01*
X119642857Y-85652247D02*
X119547619Y-85604628D01*
X119547619Y-85604628D02*
X119357143Y-85557009D01*
X119357143Y-85557009D02*
X119261905Y-85509390D01*
X119261905Y-85509390D02*
X119214286Y-85461771D01*
X119214286Y-85461771D02*
X119166667Y-85366533D01*
X119166667Y-85366533D02*
X119166667Y-85271295D01*
X119166667Y-85271295D02*
X119214286Y-85176057D01*
X119214286Y-85176057D02*
X119261905Y-85128438D01*
X119261905Y-85128438D02*
X119357143Y-85080819D01*
X119357143Y-85080819D02*
X119595238Y-85080819D01*
X119595238Y-85080819D02*
X119738095Y-85128438D01*
X120071429Y-85080819D02*
X120309524Y-86080819D01*
X120309524Y-86080819D02*
X120500000Y-85366533D01*
X120500000Y-85366533D02*
X120690476Y-86080819D01*
X120690476Y-86080819D02*
X120928572Y-85080819D01*
X121214286Y-85080819D02*
X121880952Y-85080819D01*
X121880952Y-85080819D02*
X121452381Y-86080819D01*
X137690476Y-124033200D02*
X137833333Y-124080819D01*
X137833333Y-124080819D02*
X138071428Y-124080819D01*
X138071428Y-124080819D02*
X138166666Y-124033200D01*
X138166666Y-124033200D02*
X138214285Y-123985580D01*
X138214285Y-123985580D02*
X138261904Y-123890342D01*
X138261904Y-123890342D02*
X138261904Y-123795104D01*
X138261904Y-123795104D02*
X138214285Y-123699866D01*
X138214285Y-123699866D02*
X138166666Y-123652247D01*
X138166666Y-123652247D02*
X138071428Y-123604628D01*
X138071428Y-123604628D02*
X137880952Y-123557009D01*
X137880952Y-123557009D02*
X137785714Y-123509390D01*
X137785714Y-123509390D02*
X137738095Y-123461771D01*
X137738095Y-123461771D02*
X137690476Y-123366533D01*
X137690476Y-123366533D02*
X137690476Y-123271295D01*
X137690476Y-123271295D02*
X137738095Y-123176057D01*
X137738095Y-123176057D02*
X137785714Y-123128438D01*
X137785714Y-123128438D02*
X137880952Y-123080819D01*
X137880952Y-123080819D02*
X138119047Y-123080819D01*
X138119047Y-123080819D02*
X138261904Y-123128438D01*
X138595238Y-123080819D02*
X138833333Y-124080819D01*
X138833333Y-124080819D02*
X139023809Y-123366533D01*
X139023809Y-123366533D02*
X139214285Y-124080819D01*
X139214285Y-124080819D02*
X139452381Y-123080819D01*
X140357142Y-124080819D02*
X139785714Y-124080819D01*
X140071428Y-124080819D02*
X140071428Y-123080819D01*
X140071428Y-123080819D02*
X139976190Y-123223676D01*
X139976190Y-123223676D02*
X139880952Y-123318914D01*
X139880952Y-123318914D02*
X139785714Y-123366533D01*
X141214285Y-123080819D02*
X141023809Y-123080819D01*
X141023809Y-123080819D02*
X140928571Y-123128438D01*
X140928571Y-123128438D02*
X140880952Y-123176057D01*
X140880952Y-123176057D02*
X140785714Y-123318914D01*
X140785714Y-123318914D02*
X140738095Y-123509390D01*
X140738095Y-123509390D02*
X140738095Y-123890342D01*
X140738095Y-123890342D02*
X140785714Y-123985580D01*
X140785714Y-123985580D02*
X140833333Y-124033200D01*
X140833333Y-124033200D02*
X140928571Y-124080819D01*
X140928571Y-124080819D02*
X141119047Y-124080819D01*
X141119047Y-124080819D02*
X141214285Y-124033200D01*
X141214285Y-124033200D02*
X141261904Y-123985580D01*
X141261904Y-123985580D02*
X141309523Y-123890342D01*
X141309523Y-123890342D02*
X141309523Y-123652247D01*
X141309523Y-123652247D02*
X141261904Y-123557009D01*
X141261904Y-123557009D02*
X141214285Y-123509390D01*
X141214285Y-123509390D02*
X141119047Y-123461771D01*
X141119047Y-123461771D02*
X140928571Y-123461771D01*
X140928571Y-123461771D02*
X140833333Y-123509390D01*
X140833333Y-123509390D02*
X140785714Y-123557009D01*
X140785714Y-123557009D02*
X140738095Y-123652247D01*
X138166667Y-86033200D02*
X138309524Y-86080819D01*
X138309524Y-86080819D02*
X138547619Y-86080819D01*
X138547619Y-86080819D02*
X138642857Y-86033200D01*
X138642857Y-86033200D02*
X138690476Y-85985580D01*
X138690476Y-85985580D02*
X138738095Y-85890342D01*
X138738095Y-85890342D02*
X138738095Y-85795104D01*
X138738095Y-85795104D02*
X138690476Y-85699866D01*
X138690476Y-85699866D02*
X138642857Y-85652247D01*
X138642857Y-85652247D02*
X138547619Y-85604628D01*
X138547619Y-85604628D02*
X138357143Y-85557009D01*
X138357143Y-85557009D02*
X138261905Y-85509390D01*
X138261905Y-85509390D02*
X138214286Y-85461771D01*
X138214286Y-85461771D02*
X138166667Y-85366533D01*
X138166667Y-85366533D02*
X138166667Y-85271295D01*
X138166667Y-85271295D02*
X138214286Y-85176057D01*
X138214286Y-85176057D02*
X138261905Y-85128438D01*
X138261905Y-85128438D02*
X138357143Y-85080819D01*
X138357143Y-85080819D02*
X138595238Y-85080819D01*
X138595238Y-85080819D02*
X138738095Y-85128438D01*
X139071429Y-85080819D02*
X139309524Y-86080819D01*
X139309524Y-86080819D02*
X139500000Y-85366533D01*
X139500000Y-85366533D02*
X139690476Y-86080819D01*
X139690476Y-86080819D02*
X139928572Y-85080819D01*
X140452381Y-85509390D02*
X140357143Y-85461771D01*
X140357143Y-85461771D02*
X140309524Y-85414152D01*
X140309524Y-85414152D02*
X140261905Y-85318914D01*
X140261905Y-85318914D02*
X140261905Y-85271295D01*
X140261905Y-85271295D02*
X140309524Y-85176057D01*
X140309524Y-85176057D02*
X140357143Y-85128438D01*
X140357143Y-85128438D02*
X140452381Y-85080819D01*
X140452381Y-85080819D02*
X140642857Y-85080819D01*
X140642857Y-85080819D02*
X140738095Y-85128438D01*
X140738095Y-85128438D02*
X140785714Y-85176057D01*
X140785714Y-85176057D02*
X140833333Y-85271295D01*
X140833333Y-85271295D02*
X140833333Y-85318914D01*
X140833333Y-85318914D02*
X140785714Y-85414152D01*
X140785714Y-85414152D02*
X140738095Y-85461771D01*
X140738095Y-85461771D02*
X140642857Y-85509390D01*
X140642857Y-85509390D02*
X140452381Y-85509390D01*
X140452381Y-85509390D02*
X140357143Y-85557009D01*
X140357143Y-85557009D02*
X140309524Y-85604628D01*
X140309524Y-85604628D02*
X140261905Y-85699866D01*
X140261905Y-85699866D02*
X140261905Y-85890342D01*
X140261905Y-85890342D02*
X140309524Y-85985580D01*
X140309524Y-85985580D02*
X140357143Y-86033200D01*
X140357143Y-86033200D02*
X140452381Y-86080819D01*
X140452381Y-86080819D02*
X140642857Y-86080819D01*
X140642857Y-86080819D02*
X140738095Y-86033200D01*
X140738095Y-86033200D02*
X140785714Y-85985580D01*
X140785714Y-85985580D02*
X140833333Y-85890342D01*
X140833333Y-85890342D02*
X140833333Y-85699866D01*
X140833333Y-85699866D02*
X140785714Y-85604628D01*
X140785714Y-85604628D02*
X140738095Y-85557009D01*
X140738095Y-85557009D02*
X140642857Y-85509390D01*
X100166667Y-86033200D02*
X100309524Y-86080819D01*
X100309524Y-86080819D02*
X100547619Y-86080819D01*
X100547619Y-86080819D02*
X100642857Y-86033200D01*
X100642857Y-86033200D02*
X100690476Y-85985580D01*
X100690476Y-85985580D02*
X100738095Y-85890342D01*
X100738095Y-85890342D02*
X100738095Y-85795104D01*
X100738095Y-85795104D02*
X100690476Y-85699866D01*
X100690476Y-85699866D02*
X100642857Y-85652247D01*
X100642857Y-85652247D02*
X100547619Y-85604628D01*
X100547619Y-85604628D02*
X100357143Y-85557009D01*
X100357143Y-85557009D02*
X100261905Y-85509390D01*
X100261905Y-85509390D02*
X100214286Y-85461771D01*
X100214286Y-85461771D02*
X100166667Y-85366533D01*
X100166667Y-85366533D02*
X100166667Y-85271295D01*
X100166667Y-85271295D02*
X100214286Y-85176057D01*
X100214286Y-85176057D02*
X100261905Y-85128438D01*
X100261905Y-85128438D02*
X100357143Y-85080819D01*
X100357143Y-85080819D02*
X100595238Y-85080819D01*
X100595238Y-85080819D02*
X100738095Y-85128438D01*
X101071429Y-85080819D02*
X101309524Y-86080819D01*
X101309524Y-86080819D02*
X101500000Y-85366533D01*
X101500000Y-85366533D02*
X101690476Y-86080819D01*
X101690476Y-86080819D02*
X101928572Y-85080819D01*
X102738095Y-85080819D02*
X102547619Y-85080819D01*
X102547619Y-85080819D02*
X102452381Y-85128438D01*
X102452381Y-85128438D02*
X102404762Y-85176057D01*
X102404762Y-85176057D02*
X102309524Y-85318914D01*
X102309524Y-85318914D02*
X102261905Y-85509390D01*
X102261905Y-85509390D02*
X102261905Y-85890342D01*
X102261905Y-85890342D02*
X102309524Y-85985580D01*
X102309524Y-85985580D02*
X102357143Y-86033200D01*
X102357143Y-86033200D02*
X102452381Y-86080819D01*
X102452381Y-86080819D02*
X102642857Y-86080819D01*
X102642857Y-86080819D02*
X102738095Y-86033200D01*
X102738095Y-86033200D02*
X102785714Y-85985580D01*
X102785714Y-85985580D02*
X102833333Y-85890342D01*
X102833333Y-85890342D02*
X102833333Y-85652247D01*
X102833333Y-85652247D02*
X102785714Y-85557009D01*
X102785714Y-85557009D02*
X102738095Y-85509390D01*
X102738095Y-85509390D02*
X102642857Y-85461771D01*
X102642857Y-85461771D02*
X102452381Y-85461771D01*
X102452381Y-85461771D02*
X102357143Y-85509390D01*
X102357143Y-85509390D02*
X102309524Y-85557009D01*
X102309524Y-85557009D02*
X102261905Y-85652247D01*
X100166667Y-67033200D02*
X100309524Y-67080819D01*
X100309524Y-67080819D02*
X100547619Y-67080819D01*
X100547619Y-67080819D02*
X100642857Y-67033200D01*
X100642857Y-67033200D02*
X100690476Y-66985580D01*
X100690476Y-66985580D02*
X100738095Y-66890342D01*
X100738095Y-66890342D02*
X100738095Y-66795104D01*
X100738095Y-66795104D02*
X100690476Y-66699866D01*
X100690476Y-66699866D02*
X100642857Y-66652247D01*
X100642857Y-66652247D02*
X100547619Y-66604628D01*
X100547619Y-66604628D02*
X100357143Y-66557009D01*
X100357143Y-66557009D02*
X100261905Y-66509390D01*
X100261905Y-66509390D02*
X100214286Y-66461771D01*
X100214286Y-66461771D02*
X100166667Y-66366533D01*
X100166667Y-66366533D02*
X100166667Y-66271295D01*
X100166667Y-66271295D02*
X100214286Y-66176057D01*
X100214286Y-66176057D02*
X100261905Y-66128438D01*
X100261905Y-66128438D02*
X100357143Y-66080819D01*
X100357143Y-66080819D02*
X100595238Y-66080819D01*
X100595238Y-66080819D02*
X100738095Y-66128438D01*
X101071429Y-66080819D02*
X101309524Y-67080819D01*
X101309524Y-67080819D02*
X101500000Y-66366533D01*
X101500000Y-66366533D02*
X101690476Y-67080819D01*
X101690476Y-67080819D02*
X101928572Y-66080819D01*
X102261905Y-66176057D02*
X102309524Y-66128438D01*
X102309524Y-66128438D02*
X102404762Y-66080819D01*
X102404762Y-66080819D02*
X102642857Y-66080819D01*
X102642857Y-66080819D02*
X102738095Y-66128438D01*
X102738095Y-66128438D02*
X102785714Y-66176057D01*
X102785714Y-66176057D02*
X102833333Y-66271295D01*
X102833333Y-66271295D02*
X102833333Y-66366533D01*
X102833333Y-66366533D02*
X102785714Y-66509390D01*
X102785714Y-66509390D02*
X102214286Y-67080819D01*
X102214286Y-67080819D02*
X102833333Y-67080819D01*
X81166667Y-105033200D02*
X81309524Y-105080819D01*
X81309524Y-105080819D02*
X81547619Y-105080819D01*
X81547619Y-105080819D02*
X81642857Y-105033200D01*
X81642857Y-105033200D02*
X81690476Y-104985580D01*
X81690476Y-104985580D02*
X81738095Y-104890342D01*
X81738095Y-104890342D02*
X81738095Y-104795104D01*
X81738095Y-104795104D02*
X81690476Y-104699866D01*
X81690476Y-104699866D02*
X81642857Y-104652247D01*
X81642857Y-104652247D02*
X81547619Y-104604628D01*
X81547619Y-104604628D02*
X81357143Y-104557009D01*
X81357143Y-104557009D02*
X81261905Y-104509390D01*
X81261905Y-104509390D02*
X81214286Y-104461771D01*
X81214286Y-104461771D02*
X81166667Y-104366533D01*
X81166667Y-104366533D02*
X81166667Y-104271295D01*
X81166667Y-104271295D02*
X81214286Y-104176057D01*
X81214286Y-104176057D02*
X81261905Y-104128438D01*
X81261905Y-104128438D02*
X81357143Y-104080819D01*
X81357143Y-104080819D02*
X81595238Y-104080819D01*
X81595238Y-104080819D02*
X81738095Y-104128438D01*
X82071429Y-104080819D02*
X82309524Y-105080819D01*
X82309524Y-105080819D02*
X82500000Y-104366533D01*
X82500000Y-104366533D02*
X82690476Y-105080819D01*
X82690476Y-105080819D02*
X82928572Y-104080819D01*
X83357143Y-105080819D02*
X83547619Y-105080819D01*
X83547619Y-105080819D02*
X83642857Y-105033200D01*
X83642857Y-105033200D02*
X83690476Y-104985580D01*
X83690476Y-104985580D02*
X83785714Y-104842723D01*
X83785714Y-104842723D02*
X83833333Y-104652247D01*
X83833333Y-104652247D02*
X83833333Y-104271295D01*
X83833333Y-104271295D02*
X83785714Y-104176057D01*
X83785714Y-104176057D02*
X83738095Y-104128438D01*
X83738095Y-104128438D02*
X83642857Y-104080819D01*
X83642857Y-104080819D02*
X83452381Y-104080819D01*
X83452381Y-104080819D02*
X83357143Y-104128438D01*
X83357143Y-104128438D02*
X83309524Y-104176057D01*
X83309524Y-104176057D02*
X83261905Y-104271295D01*
X83261905Y-104271295D02*
X83261905Y-104509390D01*
X83261905Y-104509390D02*
X83309524Y-104604628D01*
X83309524Y-104604628D02*
X83357143Y-104652247D01*
X83357143Y-104652247D02*
X83452381Y-104699866D01*
X83452381Y-104699866D02*
X83642857Y-104699866D01*
X83642857Y-104699866D02*
X83738095Y-104652247D01*
X83738095Y-104652247D02*
X83785714Y-104604628D01*
X83785714Y-104604628D02*
X83833333Y-104509390D01*
X141939819Y-54236904D02*
X142749342Y-54236904D01*
X142749342Y-54236904D02*
X142844580Y-54189285D01*
X142844580Y-54189285D02*
X142892200Y-54141666D01*
X142892200Y-54141666D02*
X142939819Y-54046428D01*
X142939819Y-54046428D02*
X142939819Y-53855952D01*
X142939819Y-53855952D02*
X142892200Y-53760714D01*
X142892200Y-53760714D02*
X142844580Y-53713095D01*
X142844580Y-53713095D02*
X142749342Y-53665476D01*
X142749342Y-53665476D02*
X141939819Y-53665476D01*
X142035057Y-53236904D02*
X141987438Y-53189285D01*
X141987438Y-53189285D02*
X141939819Y-53094047D01*
X141939819Y-53094047D02*
X141939819Y-52855952D01*
X141939819Y-52855952D02*
X141987438Y-52760714D01*
X141987438Y-52760714D02*
X142035057Y-52713095D01*
X142035057Y-52713095D02*
X142130295Y-52665476D01*
X142130295Y-52665476D02*
X142225533Y-52665476D01*
X142225533Y-52665476D02*
X142368390Y-52713095D01*
X142368390Y-52713095D02*
X142939819Y-53284523D01*
X142939819Y-53284523D02*
X142939819Y-52665476D01*
X110188450Y-50410713D02*
X110224164Y-50303571D01*
X110224164Y-50303571D02*
X110224164Y-50124999D01*
X110224164Y-50124999D02*
X110188450Y-50053571D01*
X110188450Y-50053571D02*
X110152735Y-50017856D01*
X110152735Y-50017856D02*
X110081307Y-49982142D01*
X110081307Y-49982142D02*
X110009878Y-49982142D01*
X110009878Y-49982142D02*
X109938450Y-50017856D01*
X109938450Y-50017856D02*
X109902735Y-50053571D01*
X109902735Y-50053571D02*
X109867021Y-50124999D01*
X109867021Y-50124999D02*
X109831307Y-50267856D01*
X109831307Y-50267856D02*
X109795592Y-50339285D01*
X109795592Y-50339285D02*
X109759878Y-50374999D01*
X109759878Y-50374999D02*
X109688450Y-50410713D01*
X109688450Y-50410713D02*
X109617021Y-50410713D01*
X109617021Y-50410713D02*
X109545592Y-50374999D01*
X109545592Y-50374999D02*
X109509878Y-50339285D01*
X109509878Y-50339285D02*
X109474164Y-50267856D01*
X109474164Y-50267856D02*
X109474164Y-50089285D01*
X109474164Y-50089285D02*
X109509878Y-49982142D01*
X110224164Y-49660713D02*
X109474164Y-49660713D01*
X109474164Y-49660713D02*
X109474164Y-49482142D01*
X109474164Y-49482142D02*
X109509878Y-49374999D01*
X109509878Y-49374999D02*
X109581307Y-49303570D01*
X109581307Y-49303570D02*
X109652735Y-49267856D01*
X109652735Y-49267856D02*
X109795592Y-49232142D01*
X109795592Y-49232142D02*
X109902735Y-49232142D01*
X109902735Y-49232142D02*
X110045592Y-49267856D01*
X110045592Y-49267856D02*
X110117021Y-49303570D01*
X110117021Y-49303570D02*
X110188450Y-49374999D01*
X110188450Y-49374999D02*
X110224164Y-49482142D01*
X110224164Y-49482142D02*
X110224164Y-49660713D01*
X110009878Y-48946427D02*
X110009878Y-48589285D01*
X110224164Y-49017856D02*
X109474164Y-48767856D01*
X109474164Y-48767856D02*
X110224164Y-48517856D01*
X121456428Y-52839819D02*
X121646904Y-52839819D01*
X121646904Y-52839819D02*
X121742142Y-52887438D01*
X121742142Y-52887438D02*
X121837380Y-52982676D01*
X121837380Y-52982676D02*
X121884999Y-53173152D01*
X121884999Y-53173152D02*
X121884999Y-53506485D01*
X121884999Y-53506485D02*
X121837380Y-53696961D01*
X121837380Y-53696961D02*
X121742142Y-53792200D01*
X121742142Y-53792200D02*
X121646904Y-53839819D01*
X121646904Y-53839819D02*
X121456428Y-53839819D01*
X121456428Y-53839819D02*
X121361190Y-53792200D01*
X121361190Y-53792200D02*
X121265952Y-53696961D01*
X121265952Y-53696961D02*
X121218333Y-53506485D01*
X121218333Y-53506485D02*
X121218333Y-53173152D01*
X121218333Y-53173152D02*
X121265952Y-52982676D01*
X121265952Y-52982676D02*
X121361190Y-52887438D01*
X121361190Y-52887438D02*
X121456428Y-52839819D01*
X122789761Y-53839819D02*
X122313571Y-53839819D01*
X122313571Y-53839819D02*
X122313571Y-52839819D01*
X123123095Y-53316009D02*
X123456428Y-53316009D01*
X123599285Y-53839819D02*
X123123095Y-53839819D01*
X123123095Y-53839819D02*
X123123095Y-52839819D01*
X123123095Y-52839819D02*
X123599285Y-52839819D01*
X124027857Y-53839819D02*
X124027857Y-52839819D01*
X124027857Y-52839819D02*
X124265952Y-52839819D01*
X124265952Y-52839819D02*
X124408809Y-52887438D01*
X124408809Y-52887438D02*
X124504047Y-52982676D01*
X124504047Y-52982676D02*
X124551666Y-53077914D01*
X124551666Y-53077914D02*
X124599285Y-53268390D01*
X124599285Y-53268390D02*
X124599285Y-53411247D01*
X124599285Y-53411247D02*
X124551666Y-53601723D01*
X124551666Y-53601723D02*
X124504047Y-53696961D01*
X124504047Y-53696961D02*
X124408809Y-53792200D01*
X124408809Y-53792200D02*
X124265952Y-53839819D01*
X124265952Y-53839819D02*
X124027857Y-53839819D01*
X125789762Y-53839819D02*
X125789762Y-52839819D01*
X125789762Y-52839819D02*
X126170714Y-52839819D01*
X126170714Y-52839819D02*
X126265952Y-52887438D01*
X126265952Y-52887438D02*
X126313571Y-52935057D01*
X126313571Y-52935057D02*
X126361190Y-53030295D01*
X126361190Y-53030295D02*
X126361190Y-53173152D01*
X126361190Y-53173152D02*
X126313571Y-53268390D01*
X126313571Y-53268390D02*
X126265952Y-53316009D01*
X126265952Y-53316009D02*
X126170714Y-53363628D01*
X126170714Y-53363628D02*
X125789762Y-53363628D01*
X127218333Y-53839819D02*
X127218333Y-53316009D01*
X127218333Y-53316009D02*
X127170714Y-53220771D01*
X127170714Y-53220771D02*
X127075476Y-53173152D01*
X127075476Y-53173152D02*
X126885000Y-53173152D01*
X126885000Y-53173152D02*
X126789762Y-53220771D01*
X127218333Y-53792200D02*
X127123095Y-53839819D01*
X127123095Y-53839819D02*
X126885000Y-53839819D01*
X126885000Y-53839819D02*
X126789762Y-53792200D01*
X126789762Y-53792200D02*
X126742143Y-53696961D01*
X126742143Y-53696961D02*
X126742143Y-53601723D01*
X126742143Y-53601723D02*
X126789762Y-53506485D01*
X126789762Y-53506485D02*
X126885000Y-53458866D01*
X126885000Y-53458866D02*
X127123095Y-53458866D01*
X127123095Y-53458866D02*
X127218333Y-53411247D01*
X127694524Y-53173152D02*
X127694524Y-53839819D01*
X127694524Y-53268390D02*
X127742143Y-53220771D01*
X127742143Y-53220771D02*
X127837381Y-53173152D01*
X127837381Y-53173152D02*
X127980238Y-53173152D01*
X127980238Y-53173152D02*
X128075476Y-53220771D01*
X128075476Y-53220771D02*
X128123095Y-53316009D01*
X128123095Y-53316009D02*
X128123095Y-53839819D01*
X128980238Y-53792200D02*
X128885000Y-53839819D01*
X128885000Y-53839819D02*
X128694524Y-53839819D01*
X128694524Y-53839819D02*
X128599286Y-53792200D01*
X128599286Y-53792200D02*
X128551667Y-53696961D01*
X128551667Y-53696961D02*
X128551667Y-53316009D01*
X128551667Y-53316009D02*
X128599286Y-53220771D01*
X128599286Y-53220771D02*
X128694524Y-53173152D01*
X128694524Y-53173152D02*
X128885000Y-53173152D01*
X128885000Y-53173152D02*
X128980238Y-53220771D01*
X128980238Y-53220771D02*
X129027857Y-53316009D01*
X129027857Y-53316009D02*
X129027857Y-53411247D01*
X129027857Y-53411247D02*
X128551667Y-53506485D01*
X129599286Y-53839819D02*
X129504048Y-53792200D01*
X129504048Y-53792200D02*
X129456429Y-53696961D01*
X129456429Y-53696961D02*
X129456429Y-52839819D01*
X109474164Y-55654999D02*
X110224164Y-55404999D01*
X110224164Y-55404999D02*
X109474164Y-55154999D01*
X110152735Y-54476428D02*
X110188450Y-54512142D01*
X110188450Y-54512142D02*
X110224164Y-54619285D01*
X110224164Y-54619285D02*
X110224164Y-54690713D01*
X110224164Y-54690713D02*
X110188450Y-54797856D01*
X110188450Y-54797856D02*
X110117021Y-54869285D01*
X110117021Y-54869285D02*
X110045592Y-54904999D01*
X110045592Y-54904999D02*
X109902735Y-54940713D01*
X109902735Y-54940713D02*
X109795592Y-54940713D01*
X109795592Y-54940713D02*
X109652735Y-54904999D01*
X109652735Y-54904999D02*
X109581307Y-54869285D01*
X109581307Y-54869285D02*
X109509878Y-54797856D01*
X109509878Y-54797856D02*
X109474164Y-54690713D01*
X109474164Y-54690713D02*
X109474164Y-54619285D01*
X109474164Y-54619285D02*
X109509878Y-54512142D01*
X109509878Y-54512142D02*
X109545592Y-54476428D01*
X110152735Y-53726428D02*
X110188450Y-53762142D01*
X110188450Y-53762142D02*
X110224164Y-53869285D01*
X110224164Y-53869285D02*
X110224164Y-53940713D01*
X110224164Y-53940713D02*
X110188450Y-54047856D01*
X110188450Y-54047856D02*
X110117021Y-54119285D01*
X110117021Y-54119285D02*
X110045592Y-54154999D01*
X110045592Y-54154999D02*
X109902735Y-54190713D01*
X109902735Y-54190713D02*
X109795592Y-54190713D01*
X109795592Y-54190713D02*
X109652735Y-54154999D01*
X109652735Y-54154999D02*
X109581307Y-54119285D01*
X109581307Y-54119285D02*
X109509878Y-54047856D01*
X109509878Y-54047856D02*
X109474164Y-53940713D01*
X109474164Y-53940713D02*
X109474164Y-53869285D01*
X109474164Y-53869285D02*
X109509878Y-53762142D01*
X109509878Y-53762142D02*
X109545592Y-53726428D01*
X109509878Y-57766428D02*
X109474164Y-57837857D01*
X109474164Y-57837857D02*
X109474164Y-57944999D01*
X109474164Y-57944999D02*
X109509878Y-58052142D01*
X109509878Y-58052142D02*
X109581307Y-58123571D01*
X109581307Y-58123571D02*
X109652735Y-58159285D01*
X109652735Y-58159285D02*
X109795592Y-58194999D01*
X109795592Y-58194999D02*
X109902735Y-58194999D01*
X109902735Y-58194999D02*
X110045592Y-58159285D01*
X110045592Y-58159285D02*
X110117021Y-58123571D01*
X110117021Y-58123571D02*
X110188450Y-58052142D01*
X110188450Y-58052142D02*
X110224164Y-57944999D01*
X110224164Y-57944999D02*
X110224164Y-57873571D01*
X110224164Y-57873571D02*
X110188450Y-57766428D01*
X110188450Y-57766428D02*
X110152735Y-57730714D01*
X110152735Y-57730714D02*
X109902735Y-57730714D01*
X109902735Y-57730714D02*
X109902735Y-57873571D01*
X110224164Y-57409285D02*
X109474164Y-57409285D01*
X109474164Y-57409285D02*
X110224164Y-56980714D01*
X110224164Y-56980714D02*
X109474164Y-56980714D01*
X110224164Y-56623571D02*
X109474164Y-56623571D01*
X109474164Y-56623571D02*
X109474164Y-56445000D01*
X109474164Y-56445000D02*
X109509878Y-56337857D01*
X109509878Y-56337857D02*
X109581307Y-56266428D01*
X109581307Y-56266428D02*
X109652735Y-56230714D01*
X109652735Y-56230714D02*
X109795592Y-56195000D01*
X109795592Y-56195000D02*
X109902735Y-56195000D01*
X109902735Y-56195000D02*
X110045592Y-56230714D01*
X110045592Y-56230714D02*
X110117021Y-56266428D01*
X110117021Y-56266428D02*
X110188450Y-56337857D01*
X110188450Y-56337857D02*
X110224164Y-56445000D01*
X110224164Y-56445000D02*
X110224164Y-56623571D01*
X110188450Y-53007856D02*
X110224164Y-52900714D01*
X110224164Y-52900714D02*
X110224164Y-52722142D01*
X110224164Y-52722142D02*
X110188450Y-52650714D01*
X110188450Y-52650714D02*
X110152735Y-52614999D01*
X110152735Y-52614999D02*
X110081307Y-52579285D01*
X110081307Y-52579285D02*
X110009878Y-52579285D01*
X110009878Y-52579285D02*
X109938450Y-52614999D01*
X109938450Y-52614999D02*
X109902735Y-52650714D01*
X109902735Y-52650714D02*
X109867021Y-52722142D01*
X109867021Y-52722142D02*
X109831307Y-52864999D01*
X109831307Y-52864999D02*
X109795592Y-52936428D01*
X109795592Y-52936428D02*
X109759878Y-52972142D01*
X109759878Y-52972142D02*
X109688450Y-53007856D01*
X109688450Y-53007856D02*
X109617021Y-53007856D01*
X109617021Y-53007856D02*
X109545592Y-52972142D01*
X109545592Y-52972142D02*
X109509878Y-52936428D01*
X109509878Y-52936428D02*
X109474164Y-52864999D01*
X109474164Y-52864999D02*
X109474164Y-52686428D01*
X109474164Y-52686428D02*
X109509878Y-52579285D01*
X110152735Y-51829285D02*
X110188450Y-51864999D01*
X110188450Y-51864999D02*
X110224164Y-51972142D01*
X110224164Y-51972142D02*
X110224164Y-52043570D01*
X110224164Y-52043570D02*
X110188450Y-52150713D01*
X110188450Y-52150713D02*
X110117021Y-52222142D01*
X110117021Y-52222142D02*
X110045592Y-52257856D01*
X110045592Y-52257856D02*
X109902735Y-52293570D01*
X109902735Y-52293570D02*
X109795592Y-52293570D01*
X109795592Y-52293570D02*
X109652735Y-52257856D01*
X109652735Y-52257856D02*
X109581307Y-52222142D01*
X109581307Y-52222142D02*
X109509878Y-52150713D01*
X109509878Y-52150713D02*
X109474164Y-52043570D01*
X109474164Y-52043570D02*
X109474164Y-51972142D01*
X109474164Y-51972142D02*
X109509878Y-51864999D01*
X109509878Y-51864999D02*
X109545592Y-51829285D01*
X110224164Y-51150713D02*
X110224164Y-51507856D01*
X110224164Y-51507856D02*
X109474164Y-51507856D01*
X118690476Y-105033200D02*
X118833333Y-105080819D01*
X118833333Y-105080819D02*
X119071428Y-105080819D01*
X119071428Y-105080819D02*
X119166666Y-105033200D01*
X119166666Y-105033200D02*
X119214285Y-104985580D01*
X119214285Y-104985580D02*
X119261904Y-104890342D01*
X119261904Y-104890342D02*
X119261904Y-104795104D01*
X119261904Y-104795104D02*
X119214285Y-104699866D01*
X119214285Y-104699866D02*
X119166666Y-104652247D01*
X119166666Y-104652247D02*
X119071428Y-104604628D01*
X119071428Y-104604628D02*
X118880952Y-104557009D01*
X118880952Y-104557009D02*
X118785714Y-104509390D01*
X118785714Y-104509390D02*
X118738095Y-104461771D01*
X118738095Y-104461771D02*
X118690476Y-104366533D01*
X118690476Y-104366533D02*
X118690476Y-104271295D01*
X118690476Y-104271295D02*
X118738095Y-104176057D01*
X118738095Y-104176057D02*
X118785714Y-104128438D01*
X118785714Y-104128438D02*
X118880952Y-104080819D01*
X118880952Y-104080819D02*
X119119047Y-104080819D01*
X119119047Y-104080819D02*
X119261904Y-104128438D01*
X119595238Y-104080819D02*
X119833333Y-105080819D01*
X119833333Y-105080819D02*
X120023809Y-104366533D01*
X120023809Y-104366533D02*
X120214285Y-105080819D01*
X120214285Y-105080819D02*
X120452381Y-104080819D01*
X121357142Y-105080819D02*
X120785714Y-105080819D01*
X121071428Y-105080819D02*
X121071428Y-104080819D01*
X121071428Y-104080819D02*
X120976190Y-104223676D01*
X120976190Y-104223676D02*
X120880952Y-104318914D01*
X120880952Y-104318914D02*
X120785714Y-104366533D01*
X122309523Y-105080819D02*
X121738095Y-105080819D01*
X122023809Y-105080819D02*
X122023809Y-104080819D01*
X122023809Y-104080819D02*
X121928571Y-104223676D01*
X121928571Y-104223676D02*
X121833333Y-104318914D01*
X121833333Y-104318914D02*
X121738095Y-104366533D01*
X81166667Y-67033200D02*
X81309524Y-67080819D01*
X81309524Y-67080819D02*
X81547619Y-67080819D01*
X81547619Y-67080819D02*
X81642857Y-67033200D01*
X81642857Y-67033200D02*
X81690476Y-66985580D01*
X81690476Y-66985580D02*
X81738095Y-66890342D01*
X81738095Y-66890342D02*
X81738095Y-66795104D01*
X81738095Y-66795104D02*
X81690476Y-66699866D01*
X81690476Y-66699866D02*
X81642857Y-66652247D01*
X81642857Y-66652247D02*
X81547619Y-66604628D01*
X81547619Y-66604628D02*
X81357143Y-66557009D01*
X81357143Y-66557009D02*
X81261905Y-66509390D01*
X81261905Y-66509390D02*
X81214286Y-66461771D01*
X81214286Y-66461771D02*
X81166667Y-66366533D01*
X81166667Y-66366533D02*
X81166667Y-66271295D01*
X81166667Y-66271295D02*
X81214286Y-66176057D01*
X81214286Y-66176057D02*
X81261905Y-66128438D01*
X81261905Y-66128438D02*
X81357143Y-66080819D01*
X81357143Y-66080819D02*
X81595238Y-66080819D01*
X81595238Y-66080819D02*
X81738095Y-66128438D01*
X82071429Y-66080819D02*
X82309524Y-67080819D01*
X82309524Y-67080819D02*
X82500000Y-66366533D01*
X82500000Y-66366533D02*
X82690476Y-67080819D01*
X82690476Y-67080819D02*
X82928572Y-66080819D01*
X83833333Y-67080819D02*
X83261905Y-67080819D01*
X83547619Y-67080819D02*
X83547619Y-66080819D01*
X83547619Y-66080819D02*
X83452381Y-66223676D01*
X83452381Y-66223676D02*
X83357143Y-66318914D01*
X83357143Y-66318914D02*
X83261905Y-66366533D01*
X118690476Y-124033200D02*
X118833333Y-124080819D01*
X118833333Y-124080819D02*
X119071428Y-124080819D01*
X119071428Y-124080819D02*
X119166666Y-124033200D01*
X119166666Y-124033200D02*
X119214285Y-123985580D01*
X119214285Y-123985580D02*
X119261904Y-123890342D01*
X119261904Y-123890342D02*
X119261904Y-123795104D01*
X119261904Y-123795104D02*
X119214285Y-123699866D01*
X119214285Y-123699866D02*
X119166666Y-123652247D01*
X119166666Y-123652247D02*
X119071428Y-123604628D01*
X119071428Y-123604628D02*
X118880952Y-123557009D01*
X118880952Y-123557009D02*
X118785714Y-123509390D01*
X118785714Y-123509390D02*
X118738095Y-123461771D01*
X118738095Y-123461771D02*
X118690476Y-123366533D01*
X118690476Y-123366533D02*
X118690476Y-123271295D01*
X118690476Y-123271295D02*
X118738095Y-123176057D01*
X118738095Y-123176057D02*
X118785714Y-123128438D01*
X118785714Y-123128438D02*
X118880952Y-123080819D01*
X118880952Y-123080819D02*
X119119047Y-123080819D01*
X119119047Y-123080819D02*
X119261904Y-123128438D01*
X119595238Y-123080819D02*
X119833333Y-124080819D01*
X119833333Y-124080819D02*
X120023809Y-123366533D01*
X120023809Y-123366533D02*
X120214285Y-124080819D01*
X120214285Y-124080819D02*
X120452381Y-123080819D01*
X121357142Y-124080819D02*
X120785714Y-124080819D01*
X121071428Y-124080819D02*
X121071428Y-123080819D01*
X121071428Y-123080819D02*
X120976190Y-123223676D01*
X120976190Y-123223676D02*
X120880952Y-123318914D01*
X120880952Y-123318914D02*
X120785714Y-123366533D01*
X122261904Y-123080819D02*
X121785714Y-123080819D01*
X121785714Y-123080819D02*
X121738095Y-123557009D01*
X121738095Y-123557009D02*
X121785714Y-123509390D01*
X121785714Y-123509390D02*
X121880952Y-123461771D01*
X121880952Y-123461771D02*
X122119047Y-123461771D01*
X122119047Y-123461771D02*
X122214285Y-123509390D01*
X122214285Y-123509390D02*
X122261904Y-123557009D01*
X122261904Y-123557009D02*
X122309523Y-123652247D01*
X122309523Y-123652247D02*
X122309523Y-123890342D01*
X122309523Y-123890342D02*
X122261904Y-123985580D01*
X122261904Y-123985580D02*
X122214285Y-124033200D01*
X122214285Y-124033200D02*
X122119047Y-124080819D01*
X122119047Y-124080819D02*
X121880952Y-124080819D01*
X121880952Y-124080819D02*
X121785714Y-124033200D01*
X121785714Y-124033200D02*
X121738095Y-123985580D01*
X119166667Y-67033200D02*
X119309524Y-67080819D01*
X119309524Y-67080819D02*
X119547619Y-67080819D01*
X119547619Y-67080819D02*
X119642857Y-67033200D01*
X119642857Y-67033200D02*
X119690476Y-66985580D01*
X119690476Y-66985580D02*
X119738095Y-66890342D01*
X119738095Y-66890342D02*
X119738095Y-66795104D01*
X119738095Y-66795104D02*
X119690476Y-66699866D01*
X119690476Y-66699866D02*
X119642857Y-66652247D01*
X119642857Y-66652247D02*
X119547619Y-66604628D01*
X119547619Y-66604628D02*
X119357143Y-66557009D01*
X119357143Y-66557009D02*
X119261905Y-66509390D01*
X119261905Y-66509390D02*
X119214286Y-66461771D01*
X119214286Y-66461771D02*
X119166667Y-66366533D01*
X119166667Y-66366533D02*
X119166667Y-66271295D01*
X119166667Y-66271295D02*
X119214286Y-66176057D01*
X119214286Y-66176057D02*
X119261905Y-66128438D01*
X119261905Y-66128438D02*
X119357143Y-66080819D01*
X119357143Y-66080819D02*
X119595238Y-66080819D01*
X119595238Y-66080819D02*
X119738095Y-66128438D01*
X120071429Y-66080819D02*
X120309524Y-67080819D01*
X120309524Y-67080819D02*
X120500000Y-66366533D01*
X120500000Y-66366533D02*
X120690476Y-67080819D01*
X120690476Y-67080819D02*
X120928572Y-66080819D01*
X121214286Y-66080819D02*
X121833333Y-66080819D01*
X121833333Y-66080819D02*
X121500000Y-66461771D01*
X121500000Y-66461771D02*
X121642857Y-66461771D01*
X121642857Y-66461771D02*
X121738095Y-66509390D01*
X121738095Y-66509390D02*
X121785714Y-66557009D01*
X121785714Y-66557009D02*
X121833333Y-66652247D01*
X121833333Y-66652247D02*
X121833333Y-66890342D01*
X121833333Y-66890342D02*
X121785714Y-66985580D01*
X121785714Y-66985580D02*
X121738095Y-67033200D01*
X121738095Y-67033200D02*
X121642857Y-67080819D01*
X121642857Y-67080819D02*
X121357143Y-67080819D01*
X121357143Y-67080819D02*
X121261905Y-67033200D01*
X121261905Y-67033200D02*
X121214286Y-66985580D01*
D12*
%TO.C,D6*%
X94230000Y-84000000D02*
X94880000Y-84000000D01*
X95480000Y-82880000D02*
X95480000Y-85120000D01*
X95600000Y-82880000D02*
X95600000Y-85120000D01*
X95720000Y-82880000D02*
X95720000Y-85120000D01*
X99770000Y-84000000D02*
X99120000Y-84000000D01*
X94880000Y-82880000D02*
X99120000Y-82880000D01*
X99120000Y-85120000D01*
X94880000Y-85120000D01*
X94880000Y-82880000D01*
%TO.C,SW4*%
X132515000Y-67515000D02*
X146485000Y-67515000D01*
X132515000Y-81485000D02*
X132515000Y-67515000D01*
X146485000Y-67515000D02*
X146485000Y-81485000D01*
X146485000Y-81485000D02*
X132515000Y-81485000D01*
%TO.C,SW14*%
X94515000Y-124515000D02*
X108485000Y-124515000D01*
X94515000Y-138485000D02*
X94515000Y-124515000D01*
X108485000Y-124515000D02*
X108485000Y-138485000D01*
X108485000Y-138485000D02*
X94515000Y-138485000D01*
%TO.C,SW13*%
X75515000Y-124515000D02*
X89485000Y-124515000D01*
X75515000Y-138485000D02*
X75515000Y-124515000D01*
X89485000Y-124515000D02*
X89485000Y-138485000D01*
X89485000Y-138485000D02*
X75515000Y-138485000D01*
%TO.C,SW12*%
X132515000Y-105515000D02*
X146485000Y-105515000D01*
X132515000Y-119485000D02*
X132515000Y-105515000D01*
X146485000Y-105515000D02*
X146485000Y-119485000D01*
X146485000Y-119485000D02*
X132515000Y-119485000D01*
%TO.C,D2*%
X94230000Y-65000000D02*
X94880000Y-65000000D01*
X95480000Y-63880000D02*
X95480000Y-66120000D01*
X95600000Y-63880000D02*
X95600000Y-66120000D01*
X95720000Y-63880000D02*
X95720000Y-66120000D01*
X99770000Y-65000000D02*
X99120000Y-65000000D01*
X94880000Y-63880000D02*
X99120000Y-63880000D01*
X99120000Y-66120000D01*
X94880000Y-66120000D01*
X94880000Y-63880000D01*
%TO.C,D14*%
X94230000Y-122000000D02*
X94880000Y-122000000D01*
X95480000Y-120880000D02*
X95480000Y-123120000D01*
X95600000Y-120880000D02*
X95600000Y-123120000D01*
X95720000Y-120880000D02*
X95720000Y-123120000D01*
X99770000Y-122000000D02*
X99120000Y-122000000D01*
X94880000Y-120880000D02*
X99120000Y-120880000D01*
X99120000Y-123120000D01*
X94880000Y-123120000D01*
X94880000Y-120880000D01*
%TO.C,SW10*%
X94515000Y-105515000D02*
X108485000Y-105515000D01*
X94515000Y-119485000D02*
X94515000Y-105515000D01*
X108485000Y-105515000D02*
X108485000Y-119485000D01*
X108485000Y-119485000D02*
X94515000Y-119485000D01*
%TO.C,SW5*%
X75515000Y-86515000D02*
X89485000Y-86515000D01*
X75515000Y-100485000D02*
X75515000Y-86515000D01*
X89485000Y-86515000D02*
X89485000Y-100485000D01*
X89485000Y-100485000D02*
X75515000Y-100485000D01*
%TO.C,D15*%
X113230000Y-122000000D02*
X113880000Y-122000000D01*
X114480000Y-120880000D02*
X114480000Y-123120000D01*
X114600000Y-120880000D02*
X114600000Y-123120000D01*
X114720000Y-120880000D02*
X114720000Y-123120000D01*
X118770000Y-122000000D02*
X118120000Y-122000000D01*
X113880000Y-120880000D02*
X118120000Y-120880000D01*
X118120000Y-123120000D01*
X113880000Y-123120000D01*
X113880000Y-120880000D01*
%TO.C,SW7*%
X113515000Y-86515000D02*
X127485000Y-86515000D01*
X113515000Y-100485000D02*
X113515000Y-86515000D01*
X127485000Y-86515000D02*
X127485000Y-100485000D01*
X127485000Y-100485000D02*
X113515000Y-100485000D01*
%TO.C,SW16*%
X132515000Y-124515000D02*
X146485000Y-124515000D01*
X132515000Y-138485000D02*
X132515000Y-124515000D01*
X146485000Y-124515000D02*
X146485000Y-138485000D01*
X146485000Y-138485000D02*
X132515000Y-138485000D01*
%TO.C,SW8*%
X132515000Y-86515000D02*
X146485000Y-86515000D01*
X132515000Y-100485000D02*
X132515000Y-86515000D01*
X146485000Y-86515000D02*
X146485000Y-100485000D01*
X146485000Y-100485000D02*
X132515000Y-100485000D01*
%TO.C,SW6*%
X94515000Y-86515000D02*
X108485000Y-86515000D01*
X94515000Y-100485000D02*
X94515000Y-86515000D01*
X108485000Y-86515000D02*
X108485000Y-100485000D01*
X108485000Y-100485000D02*
X94515000Y-100485000D01*
%TO.C,D9*%
X75230000Y-103000000D02*
X75880000Y-103000000D01*
X76480000Y-101880000D02*
X76480000Y-104120000D01*
X76600000Y-101880000D02*
X76600000Y-104120000D01*
X76720000Y-101880000D02*
X76720000Y-104120000D01*
X80770000Y-103000000D02*
X80120000Y-103000000D01*
X75880000Y-101880000D02*
X80120000Y-101880000D01*
X80120000Y-104120000D01*
X75880000Y-104120000D01*
X75880000Y-101880000D01*
%TO.C,SW2*%
X94515000Y-67515000D02*
X108485000Y-67515000D01*
X94515000Y-81485000D02*
X94515000Y-67515000D01*
X108485000Y-67515000D02*
X108485000Y-81485000D01*
X108485000Y-81485000D02*
X94515000Y-81485000D01*
%TO.C,D4*%
X132230000Y-65000000D02*
X132880000Y-65000000D01*
X133480000Y-63880000D02*
X133480000Y-66120000D01*
X133600000Y-63880000D02*
X133600000Y-66120000D01*
X133720000Y-63880000D02*
X133720000Y-66120000D01*
X137770000Y-65000000D02*
X137120000Y-65000000D01*
X132880000Y-63880000D02*
X137120000Y-63880000D01*
X137120000Y-66120000D01*
X132880000Y-66120000D01*
X132880000Y-63880000D01*
%TO.C,D10*%
X94230000Y-103000000D02*
X94880000Y-103000000D01*
X95480000Y-101880000D02*
X95480000Y-104120000D01*
X95600000Y-101880000D02*
X95600000Y-104120000D01*
X95720000Y-101880000D02*
X95720000Y-104120000D01*
X99770000Y-103000000D02*
X99120000Y-103000000D01*
X94880000Y-101880000D02*
X99120000Y-101880000D01*
X99120000Y-104120000D01*
X94880000Y-104120000D01*
X94880000Y-101880000D01*
%TO.C,SW9*%
X75515000Y-105515000D02*
X89485000Y-105515000D01*
X75515000Y-119485000D02*
X75515000Y-105515000D01*
X89485000Y-105515000D02*
X89485000Y-119485000D01*
X89485000Y-119485000D02*
X75515000Y-119485000D01*
D13*
%TO.C,U2*%
X106385000Y-47385000D02*
X106385000Y-59385000D01*
X106385000Y-59385000D02*
X144385000Y-59385000D01*
X111385000Y-59385000D02*
X111385000Y-47385000D01*
X140885000Y-59385000D02*
X140885000Y-47385000D01*
X144385000Y-47385000D02*
X106385000Y-47385000D01*
X144385000Y-59385000D02*
X144385000Y-47385000D01*
D12*
%TO.C,SW11*%
X113515000Y-105515000D02*
X127485000Y-105515000D01*
X113515000Y-119485000D02*
X113515000Y-105515000D01*
X127485000Y-105515000D02*
X127485000Y-119485000D01*
X127485000Y-119485000D02*
X113515000Y-119485000D01*
%TO.C,D8*%
X132230000Y-84000000D02*
X132880000Y-84000000D01*
X133480000Y-82880000D02*
X133480000Y-85120000D01*
X133600000Y-82880000D02*
X133600000Y-85120000D01*
X133720000Y-82880000D02*
X133720000Y-85120000D01*
X137770000Y-84000000D02*
X137120000Y-84000000D01*
X132880000Y-82880000D02*
X137120000Y-82880000D01*
X137120000Y-85120000D01*
X132880000Y-85120000D01*
X132880000Y-82880000D01*
%TO.C,D7*%
X113230000Y-84000000D02*
X113880000Y-84000000D01*
X114480000Y-82880000D02*
X114480000Y-85120000D01*
X114600000Y-82880000D02*
X114600000Y-85120000D01*
X114720000Y-82880000D02*
X114720000Y-85120000D01*
X118770000Y-84000000D02*
X118120000Y-84000000D01*
X113880000Y-82880000D02*
X118120000Y-82880000D01*
X118120000Y-85120000D01*
X113880000Y-85120000D01*
X113880000Y-82880000D01*
%TO.C,SW1*%
X75515000Y-67515000D02*
X89485000Y-67515000D01*
X75515000Y-81485000D02*
X75515000Y-67515000D01*
X89485000Y-67515000D02*
X89485000Y-81485000D01*
X89485000Y-81485000D02*
X75515000Y-81485000D01*
%TO.C,D5*%
X75230000Y-84000000D02*
X75880000Y-84000000D01*
X76480000Y-82880000D02*
X76480000Y-85120000D01*
X76600000Y-82880000D02*
X76600000Y-85120000D01*
X76720000Y-82880000D02*
X76720000Y-85120000D01*
X80770000Y-84000000D02*
X80120000Y-84000000D01*
X75880000Y-82880000D02*
X80120000Y-82880000D01*
X80120000Y-85120000D01*
X75880000Y-85120000D01*
X75880000Y-82880000D01*
%TO.C,D13*%
X75230000Y-122000000D02*
X75880000Y-122000000D01*
X76480000Y-120880000D02*
X76480000Y-123120000D01*
X76600000Y-120880000D02*
X76600000Y-123120000D01*
X76720000Y-120880000D02*
X76720000Y-123120000D01*
X80770000Y-122000000D02*
X80120000Y-122000000D01*
X75880000Y-120880000D02*
X80120000Y-120880000D01*
X80120000Y-123120000D01*
X75880000Y-123120000D01*
X75880000Y-120880000D01*
%TO.C,D16*%
X132230000Y-122000000D02*
X132880000Y-122000000D01*
X133480000Y-120880000D02*
X133480000Y-123120000D01*
X133600000Y-120880000D02*
X133600000Y-123120000D01*
X133720000Y-120880000D02*
X133720000Y-123120000D01*
X137770000Y-122000000D02*
X137120000Y-122000000D01*
X132880000Y-120880000D02*
X137120000Y-120880000D01*
X137120000Y-123120000D01*
X132880000Y-123120000D01*
X132880000Y-120880000D01*
%TO.C,D1*%
X75230000Y-65000000D02*
X75880000Y-65000000D01*
X76480000Y-63880000D02*
X76480000Y-66120000D01*
X76600000Y-63880000D02*
X76600000Y-66120000D01*
X76720000Y-63880000D02*
X76720000Y-66120000D01*
X80770000Y-65000000D02*
X80120000Y-65000000D01*
X75880000Y-63880000D02*
X80120000Y-63880000D01*
X80120000Y-66120000D01*
X75880000Y-66120000D01*
X75880000Y-63880000D01*
%TO.C,D3*%
X113230000Y-65000000D02*
X113880000Y-65000000D01*
X114480000Y-63880000D02*
X114480000Y-66120000D01*
X114600000Y-63880000D02*
X114600000Y-66120000D01*
X114720000Y-63880000D02*
X114720000Y-66120000D01*
X118770000Y-65000000D02*
X118120000Y-65000000D01*
X113880000Y-63880000D02*
X118120000Y-63880000D01*
X118120000Y-66120000D01*
X113880000Y-66120000D01*
X113880000Y-63880000D01*
%TO.C,SW15*%
X113515000Y-124515000D02*
X127485000Y-124515000D01*
X113515000Y-138485000D02*
X113515000Y-124515000D01*
X127485000Y-124515000D02*
X127485000Y-138485000D01*
X127485000Y-138485000D02*
X113515000Y-138485000D01*
%TO.C,D11*%
X113230000Y-103000000D02*
X113880000Y-103000000D01*
X114480000Y-101880000D02*
X114480000Y-104120000D01*
X114600000Y-101880000D02*
X114600000Y-104120000D01*
X114720000Y-101880000D02*
X114720000Y-104120000D01*
X118770000Y-103000000D02*
X118120000Y-103000000D01*
X113880000Y-101880000D02*
X118120000Y-101880000D01*
X118120000Y-104120000D01*
X113880000Y-104120000D01*
X113880000Y-101880000D01*
%TO.C,D12*%
X132230000Y-103000000D02*
X132880000Y-103000000D01*
X133480000Y-101880000D02*
X133480000Y-104120000D01*
X133600000Y-101880000D02*
X133600000Y-104120000D01*
X133720000Y-101880000D02*
X133720000Y-104120000D01*
X137770000Y-103000000D02*
X137120000Y-103000000D01*
X132880000Y-101880000D02*
X137120000Y-101880000D01*
X137120000Y-104120000D01*
X132880000Y-104120000D01*
X132880000Y-101880000D01*
%TO.C,SW3*%
X113515000Y-67515000D02*
X127485000Y-67515000D01*
X113515000Y-81485000D02*
X113515000Y-67515000D01*
X127485000Y-67515000D02*
X127485000Y-81485000D01*
X127485000Y-81485000D02*
X113515000Y-81485000D01*
D14*
%TO.C,U1*%
X79490000Y-61629000D02*
X79490000Y-44484000D01*
X81395000Y-63534000D02*
X95365000Y-63534000D01*
X83885000Y-42579000D02*
X83888728Y-41668728D01*
X84388728Y-41169000D02*
X92384000Y-41169000D01*
X92884000Y-41669000D02*
X92884000Y-42579000D01*
D10*
X95365000Y-42579000D02*
X81395000Y-42579000D01*
D14*
X95365000Y-42579000D02*
X81395000Y-42579000D01*
X97270000Y-61629000D02*
X97270000Y-44484000D01*
X79490000Y-44484000D02*
G75*
G02*
X81395000Y-42579000I1905001J-1D01*
G01*
X81395000Y-63534000D02*
G75*
G02*
X79490000Y-61629000I1J1905001D01*
G01*
X83888728Y-41668728D02*
G75*
G02*
X84388728Y-41169001I500018J-291D01*
G01*
X92384000Y-41169000D02*
G75*
G02*
X92884000Y-41669000I0J-500000D01*
G01*
X95365000Y-42579000D02*
G75*
G02*
X97270000Y-44484000I0J-1905000D01*
G01*
X97270000Y-61629000D02*
G75*
G02*
X95365000Y-63534000I-1905000J0D01*
G01*
D15*
X79682000Y-42820000D02*
G75*
G02*
X79178000Y-42820000I-252000J0D01*
G01*
X79178000Y-42820000D02*
G75*
G02*
X79682000Y-42820000I252000J0D01*
G01*
X80825000Y-43700000D02*
G75*
G02*
X80321000Y-43700000I-252000J0D01*
G01*
X80321000Y-43700000D02*
G75*
G02*
X80825000Y-43700000I252000J0D01*
G01*
%TD*%
M02*
