%TF.GenerationSoftware,KiCad,Pcbnew,9.0.6*%
%TF.CreationDate,2025-12-06T16:34:02-05:00*%
%TF.ProjectId,hackpad,6861636b-7061-4642-9e6b-696361645f70,rev?*%
%TF.SameCoordinates,Original*%
%TF.FileFunction,Soldermask,Bot*%
%TF.FilePolarity,Negative*%
%FSLAX46Y46*%
G04 Gerber Fmt 4.6, Leading zero omitted, Abs format (unit mm)*
G04 Created by KiCad (PCBNEW 9.0.6) date 2025-12-06 16:34:02*
%MOMM*%
%LPD*%
G01*
G04 APERTURE LIST*
G04 Aperture macros list*
%AMRoundRect*
0 Rectangle with rounded corners*
0 $1 Rounding radius*
0 $2 $3 $4 $5 $6 $7 $8 $9 X,Y pos of 4 corners*
0 Add a 4 corners polygon primitive as box body*
4,1,4,$2,$3,$4,$5,$6,$7,$8,$9,$2,$3,0*
0 Add four circle primitives for the rounded corners*
1,1,$1+$1,$2,$3*
1,1,$1+$1,$4,$5*
1,1,$1+$1,$6,$7*
1,1,$1+$1,$8,$9*
0 Add four rect primitives between the rounded corners*
20,1,$1+$1,$2,$3,$4,$5,0*
20,1,$1+$1,$4,$5,$6,$7,0*
20,1,$1+$1,$6,$7,$8,$9,0*
20,1,$1+$1,$8,$9,$2,$3,0*%
G04 Aperture macros list end*
%ADD10RoundRect,0.250000X-0.550000X-0.550000X0.550000X-0.550000X0.550000X0.550000X-0.550000X0.550000X0*%
%ADD11C,1.600000*%
%ADD12C,1.700000*%
%ADD13C,4.000000*%
%ADD14C,2.200000*%
%ADD15R,1.700000X1.700000*%
%ADD16O,1.700000X1.700000*%
%ADD17C,1.524000*%
G04 APERTURE END LIST*
D10*
%TO.C,D6*%
X93190000Y-84000000D03*
D11*
X100810000Y-84000000D03*
%TD*%
D12*
%TO.C,SW4*%
X134420000Y-74500000D03*
D13*
X139500000Y-74500000D03*
D12*
X144580000Y-74500000D03*
D14*
X142040000Y-69420000D03*
X135690000Y-71960000D03*
%TD*%
D12*
%TO.C,SW14*%
X96420000Y-131500000D03*
D13*
X101500000Y-131500000D03*
D12*
X106580000Y-131500000D03*
D14*
X104040000Y-126420000D03*
X97690000Y-128960000D03*
%TD*%
D12*
%TO.C,SW13*%
X77420000Y-131500000D03*
D13*
X82500000Y-131500000D03*
D12*
X87580000Y-131500000D03*
D14*
X85040000Y-126420000D03*
X78690000Y-128960000D03*
%TD*%
D12*
%TO.C,SW12*%
X134420000Y-112500000D03*
D13*
X139500000Y-112500000D03*
D12*
X144580000Y-112500000D03*
D14*
X142040000Y-107420000D03*
X135690000Y-109960000D03*
%TD*%
D10*
%TO.C,D2*%
X93190000Y-65000000D03*
D11*
X100810000Y-65000000D03*
%TD*%
D10*
%TO.C,D14*%
X93190000Y-122000000D03*
D11*
X100810000Y-122000000D03*
%TD*%
D12*
%TO.C,SW10*%
X96420000Y-112500000D03*
D13*
X101500000Y-112500000D03*
D12*
X106580000Y-112500000D03*
D14*
X104040000Y-107420000D03*
X97690000Y-109960000D03*
%TD*%
D12*
%TO.C,SW5*%
X77420000Y-93500000D03*
D13*
X82500000Y-93500000D03*
D12*
X87580000Y-93500000D03*
D14*
X85040000Y-88420000D03*
X78690000Y-90960000D03*
%TD*%
D10*
%TO.C,D15*%
X112190000Y-122000000D03*
D11*
X119810000Y-122000000D03*
%TD*%
D12*
%TO.C,SW7*%
X115420000Y-93500000D03*
D13*
X120500000Y-93500000D03*
D12*
X125580000Y-93500000D03*
D14*
X123040000Y-88420000D03*
X116690000Y-90960000D03*
%TD*%
D12*
%TO.C,SW16*%
X134420000Y-131500000D03*
D13*
X139500000Y-131500000D03*
D12*
X144580000Y-131500000D03*
D14*
X142040000Y-126420000D03*
X135690000Y-128960000D03*
%TD*%
D12*
%TO.C,SW8*%
X134420000Y-93500000D03*
D13*
X139500000Y-93500000D03*
D12*
X144580000Y-93500000D03*
D14*
X142040000Y-88420000D03*
X135690000Y-90960000D03*
%TD*%
D12*
%TO.C,SW6*%
X96420000Y-93500000D03*
D13*
X101500000Y-93500000D03*
D12*
X106580000Y-93500000D03*
D14*
X104040000Y-88420000D03*
X97690000Y-90960000D03*
%TD*%
D10*
%TO.C,D9*%
X74190000Y-103000000D03*
D11*
X81810000Y-103000000D03*
%TD*%
D12*
%TO.C,SW2*%
X96420000Y-74500000D03*
D13*
X101500000Y-74500000D03*
D12*
X106580000Y-74500000D03*
D14*
X104040000Y-69420000D03*
X97690000Y-71960000D03*
%TD*%
D10*
%TO.C,D4*%
X131190000Y-65000000D03*
D11*
X138810000Y-65000000D03*
%TD*%
D10*
%TO.C,D10*%
X93190000Y-103000000D03*
D11*
X100810000Y-103000000D03*
%TD*%
D12*
%TO.C,SW9*%
X77420000Y-112500000D03*
D13*
X82500000Y-112500000D03*
D12*
X87580000Y-112500000D03*
D14*
X85040000Y-107420000D03*
X78690000Y-109960000D03*
%TD*%
D15*
%TO.C,U2*%
X107885000Y-57195000D03*
D16*
X107885000Y-54655000D03*
X107885000Y-52115000D03*
X107885000Y-49575000D03*
%TD*%
D12*
%TO.C,SW11*%
X115420000Y-112500000D03*
D13*
X120500000Y-112500000D03*
D12*
X125580000Y-112500000D03*
D14*
X123040000Y-107420000D03*
X116690000Y-109960000D03*
%TD*%
D10*
%TO.C,D8*%
X131190000Y-84000000D03*
D11*
X138810000Y-84000000D03*
%TD*%
D10*
%TO.C,D7*%
X112190000Y-84000000D03*
D11*
X119810000Y-84000000D03*
%TD*%
D12*
%TO.C,SW1*%
X77420000Y-74500000D03*
D13*
X82500000Y-74500000D03*
D12*
X87580000Y-74500000D03*
D14*
X85040000Y-69420000D03*
X78690000Y-71960000D03*
%TD*%
D10*
%TO.C,D5*%
X74190000Y-84000000D03*
D11*
X81810000Y-84000000D03*
%TD*%
D10*
%TO.C,D13*%
X74190000Y-122000000D03*
D11*
X81810000Y-122000000D03*
%TD*%
D10*
%TO.C,D16*%
X131190000Y-122000000D03*
D11*
X138810000Y-122000000D03*
%TD*%
D10*
%TO.C,D1*%
X74190000Y-65000000D03*
D11*
X81810000Y-65000000D03*
%TD*%
D10*
%TO.C,D3*%
X112190000Y-65000000D03*
D11*
X119810000Y-65000000D03*
%TD*%
D12*
%TO.C,SW15*%
X115420000Y-131500000D03*
D13*
X120500000Y-131500000D03*
D12*
X125580000Y-131500000D03*
D14*
X123040000Y-126420000D03*
X116690000Y-128960000D03*
%TD*%
D10*
%TO.C,D11*%
X112190000Y-103000000D03*
D11*
X119810000Y-103000000D03*
%TD*%
D10*
%TO.C,D12*%
X131190000Y-103000000D03*
D11*
X138810000Y-103000000D03*
%TD*%
D12*
%TO.C,SW3*%
X115420000Y-74500000D03*
D13*
X120500000Y-74500000D03*
D12*
X125580000Y-74500000D03*
D14*
X123040000Y-69420000D03*
X116690000Y-71960000D03*
%TD*%
D17*
%TO.C,U1*%
X80760000Y-45500000D03*
X80760000Y-48040000D03*
X80760000Y-50580000D03*
X80760000Y-53120000D03*
X80760000Y-55660000D03*
X80760000Y-58200000D03*
X80760000Y-60740000D03*
X96000000Y-60740000D03*
X96000000Y-58200000D03*
X96000000Y-55660000D03*
X96000000Y-53120000D03*
X96000000Y-50580000D03*
X96000000Y-48040000D03*
X96000000Y-45500000D03*
%TD*%
M02*
