%TF.GenerationSoftware,KiCad,Pcbnew,9.0.6*%
%TF.CreationDate,2025-12-06T16:37:22-05:00*%
%TF.ProjectId,hackpad,6861636b-7061-4642-9e6b-696361645f70,rev?*%
%TF.SameCoordinates,Original*%
%TF.FileFunction,Copper,L2,Bot*%
%TF.FilePolarity,Positive*%
%FSLAX46Y46*%
G04 Gerber Fmt 4.6, Leading zero omitted, Abs format (unit mm)*
G04 Created by KiCad (PCBNEW 9.0.6) date 2025-12-06 16:37:22*
%MOMM*%
%LPD*%
G01*
G04 APERTURE LIST*
G04 Aperture macros list*
%AMRoundRect*
0 Rectangle with rounded corners*
0 $1 Rounding radius*
0 $2 $3 $4 $5 $6 $7 $8 $9 X,Y pos of 4 corners*
0 Add a 4 corners polygon primitive as box body*
4,1,4,$2,$3,$4,$5,$6,$7,$8,$9,$2,$3,0*
0 Add four circle primitives for the rounded corners*
1,1,$1+$1,$2,$3*
1,1,$1+$1,$4,$5*
1,1,$1+$1,$6,$7*
1,1,$1+$1,$8,$9*
0 Add four rect primitives between the rounded corners*
20,1,$1+$1,$2,$3,$4,$5,0*
20,1,$1+$1,$4,$5,$6,$7,0*
20,1,$1+$1,$6,$7,$8,$9,0*
20,1,$1+$1,$8,$9,$2,$3,0*%
G04 Aperture macros list end*
%TA.AperFunction,ComponentPad*%
%ADD10RoundRect,0.250000X-0.550000X-0.550000X0.550000X-0.550000X0.550000X0.550000X-0.550000X0.550000X0*%
%TD*%
%TA.AperFunction,ComponentPad*%
%ADD11C,1.600000*%
%TD*%
%TA.AperFunction,ComponentPad*%
%ADD12C,2.200000*%
%TD*%
%TA.AperFunction,ComponentPad*%
%ADD13R,1.700000X1.700000*%
%TD*%
%TA.AperFunction,ComponentPad*%
%ADD14O,1.700000X1.700000*%
%TD*%
%TA.AperFunction,ComponentPad*%
%ADD15C,1.524000*%
%TD*%
%TA.AperFunction,Conductor*%
%ADD16C,0.200000*%
%TD*%
G04 APERTURE END LIST*
D10*
%TO.P,D6,1,K*%
%TO.N,Row1*%
X93190000Y-84000000D03*
D11*
%TO.P,D6,2,A*%
%TO.N,Net-(D6-A)*%
X100810000Y-84000000D03*
%TD*%
D12*
%TO.P,SW4,1,1*%
%TO.N,Net-(D4-A)*%
X142040000Y-69420000D03*
%TO.P,SW4,2,2*%
%TO.N,Column3*%
X135690000Y-71960000D03*
%TD*%
%TO.P,SW14,1,1*%
%TO.N,Net-(D14-A)*%
X104040000Y-126420000D03*
%TO.P,SW14,2,2*%
%TO.N,Column1*%
X97690000Y-128960000D03*
%TD*%
%TO.P,SW13,1,1*%
%TO.N,Net-(D13-A)*%
X85040000Y-126420000D03*
%TO.P,SW13,2,2*%
%TO.N,Column0*%
X78690000Y-128960000D03*
%TD*%
%TO.P,SW12,1,1*%
%TO.N,Net-(D12-A)*%
X142040000Y-107420000D03*
%TO.P,SW12,2,2*%
%TO.N,Column3*%
X135690000Y-109960000D03*
%TD*%
D10*
%TO.P,D2,1,K*%
%TO.N,Row0*%
X93190000Y-65000000D03*
D11*
%TO.P,D2,2,A*%
%TO.N,Net-(D2-A)*%
X100810000Y-65000000D03*
%TD*%
D10*
%TO.P,D14,1,K*%
%TO.N,Row3*%
X93190000Y-122000000D03*
D11*
%TO.P,D14,2,A*%
%TO.N,Net-(D14-A)*%
X100810000Y-122000000D03*
%TD*%
D12*
%TO.P,SW10,1,1*%
%TO.N,Net-(D10-A)*%
X104040000Y-107420000D03*
%TO.P,SW10,2,2*%
%TO.N,Column1*%
X97690000Y-109960000D03*
%TD*%
%TO.P,SW5,1,1*%
%TO.N,Net-(D5-A)*%
X85040000Y-88420000D03*
%TO.P,SW5,2,2*%
%TO.N,Column0*%
X78690000Y-90960000D03*
%TD*%
D10*
%TO.P,D15,1,K*%
%TO.N,Row3*%
X112190000Y-122000000D03*
D11*
%TO.P,D15,2,A*%
%TO.N,Net-(D15-A)*%
X119810000Y-122000000D03*
%TD*%
D12*
%TO.P,SW7,1,1*%
%TO.N,Net-(D7-A)*%
X123040000Y-88420000D03*
%TO.P,SW7,2,2*%
%TO.N,Column2*%
X116690000Y-90960000D03*
%TD*%
%TO.P,SW16,1,1*%
%TO.N,Net-(D16-A)*%
X142040000Y-126420000D03*
%TO.P,SW16,2,2*%
%TO.N,Column3*%
X135690000Y-128960000D03*
%TD*%
%TO.P,SW8,1,1*%
%TO.N,Net-(D8-A)*%
X142040000Y-88420000D03*
%TO.P,SW8,2,2*%
%TO.N,Column3*%
X135690000Y-90960000D03*
%TD*%
%TO.P,SW6,1,1*%
%TO.N,Net-(D6-A)*%
X104040000Y-88420000D03*
%TO.P,SW6,2,2*%
%TO.N,Column1*%
X97690000Y-90960000D03*
%TD*%
D10*
%TO.P,D9,1,K*%
%TO.N,Row2*%
X74190000Y-103000000D03*
D11*
%TO.P,D9,2,A*%
%TO.N,Net-(D9-A)*%
X81810000Y-103000000D03*
%TD*%
D12*
%TO.P,SW2,1,1*%
%TO.N,Net-(D2-A)*%
X104040000Y-69420000D03*
%TO.P,SW2,2,2*%
%TO.N,Column1*%
X97690000Y-71960000D03*
%TD*%
D10*
%TO.P,D4,1,K*%
%TO.N,Row0*%
X131190000Y-65000000D03*
D11*
%TO.P,D4,2,A*%
%TO.N,Net-(D4-A)*%
X138810000Y-65000000D03*
%TD*%
D10*
%TO.P,D10,1,K*%
%TO.N,Row2*%
X93190000Y-103000000D03*
D11*
%TO.P,D10,2,A*%
%TO.N,Net-(D10-A)*%
X100810000Y-103000000D03*
%TD*%
D12*
%TO.P,SW9,1,1*%
%TO.N,Net-(D9-A)*%
X85040000Y-107420000D03*
%TO.P,SW9,2,2*%
%TO.N,Column0*%
X78690000Y-109960000D03*
%TD*%
D13*
%TO.P,U2,1,GND*%
%TO.N,GND*%
X107885000Y-57195000D03*
D14*
%TO.P,U2,2,VCC*%
%TO.N,+5V*%
X107885000Y-54655000D03*
%TO.P,U2,3,SCL*%
%TO.N,Net-(U1-GPIO4{slash}MISO)*%
X107885000Y-52115000D03*
%TO.P,U2,4,SDA*%
%TO.N,Net-(U1-GPIO3{slash}MOSI)*%
X107885000Y-49575000D03*
%TD*%
D12*
%TO.P,SW11,1,1*%
%TO.N,Net-(D11-A)*%
X123040000Y-107420000D03*
%TO.P,SW11,2,2*%
%TO.N,Column2*%
X116690000Y-109960000D03*
%TD*%
D10*
%TO.P,D8,1,K*%
%TO.N,Row1*%
X131190000Y-84000000D03*
D11*
%TO.P,D8,2,A*%
%TO.N,Net-(D8-A)*%
X138810000Y-84000000D03*
%TD*%
D10*
%TO.P,D7,1,K*%
%TO.N,Row1*%
X112190000Y-84000000D03*
D11*
%TO.P,D7,2,A*%
%TO.N,Net-(D7-A)*%
X119810000Y-84000000D03*
%TD*%
D12*
%TO.P,SW1,1,1*%
%TO.N,Net-(D1-A)*%
X85040000Y-69420000D03*
%TO.P,SW1,2,2*%
%TO.N,Column0*%
X78690000Y-71960000D03*
%TD*%
D10*
%TO.P,D5,1,K*%
%TO.N,Row1*%
X74190000Y-84000000D03*
D11*
%TO.P,D5,2,A*%
%TO.N,Net-(D5-A)*%
X81810000Y-84000000D03*
%TD*%
D10*
%TO.P,D13,1,K*%
%TO.N,Row3*%
X74190000Y-122000000D03*
D11*
%TO.P,D13,2,A*%
%TO.N,Net-(D13-A)*%
X81810000Y-122000000D03*
%TD*%
D10*
%TO.P,D16,1,K*%
%TO.N,Row3*%
X131190000Y-122000000D03*
D11*
%TO.P,D16,2,A*%
%TO.N,Net-(D16-A)*%
X138810000Y-122000000D03*
%TD*%
D10*
%TO.P,D1,1,K*%
%TO.N,Row0*%
X74190000Y-65000000D03*
D11*
%TO.P,D1,2,A*%
%TO.N,Net-(D1-A)*%
X81810000Y-65000000D03*
%TD*%
D10*
%TO.P,D3,1,K*%
%TO.N,Row0*%
X112190000Y-65000000D03*
D11*
%TO.P,D3,2,A*%
%TO.N,Net-(D3-A)*%
X119810000Y-65000000D03*
%TD*%
D12*
%TO.P,SW15,1,1*%
%TO.N,Net-(D15-A)*%
X123040000Y-126420000D03*
%TO.P,SW15,2,2*%
%TO.N,Column2*%
X116690000Y-128960000D03*
%TD*%
D10*
%TO.P,D11,1,K*%
%TO.N,Row2*%
X112190000Y-103000000D03*
D11*
%TO.P,D11,2,A*%
%TO.N,Net-(D11-A)*%
X119810000Y-103000000D03*
%TD*%
D10*
%TO.P,D12,1,K*%
%TO.N,Row2*%
X131190000Y-103000000D03*
D11*
%TO.P,D12,2,A*%
%TO.N,Net-(D12-A)*%
X138810000Y-103000000D03*
%TD*%
D12*
%TO.P,SW3,1,1*%
%TO.N,Net-(D3-A)*%
X123040000Y-69420000D03*
%TO.P,SW3,2,2*%
%TO.N,Column2*%
X116690000Y-71960000D03*
%TD*%
D15*
%TO.P,U1,1,GPIO26/ADC0/A0*%
%TO.N,unconnected-(U1-GPIO26{slash}ADC0{slash}A0-Pad1)*%
X80760000Y-45500000D03*
%TO.P,U1,2,GPIO27/ADC1/A1*%
%TO.N,Column1*%
X80760000Y-48040000D03*
%TO.P,U1,3,GPIO28/ADC2/A2*%
%TO.N,Column0*%
X80760000Y-50580000D03*
%TO.P,U1,4,GPIO29/ADC3/A3*%
%TO.N,Row3*%
X80760000Y-53120000D03*
%TO.P,U1,5,GPIO6/SDA*%
%TO.N,Row2*%
X80760000Y-55660000D03*
%TO.P,U1,6,GPIO7/SCL*%
%TO.N,Row1*%
X80760000Y-58200000D03*
%TO.P,U1,7,GPIO0/TX*%
%TO.N,Row0*%
X80760000Y-60740000D03*
%TO.P,U1,8,GPIO1/RX*%
%TO.N,Column2*%
X96000000Y-60740000D03*
%TO.P,U1,9,GPIO2/SCK*%
%TO.N,Column3*%
X96000000Y-58200000D03*
%TO.P,U1,10,GPIO4/MISO*%
%TO.N,Net-(U1-GPIO4{slash}MISO)*%
X96000000Y-55660000D03*
%TO.P,U1,11,GPIO3/MOSI*%
%TO.N,Net-(U1-GPIO3{slash}MOSI)*%
X96000000Y-53120000D03*
%TO.P,U1,12,3V3*%
%TO.N,unconnected-(U1-3V3-Pad12)*%
X96000000Y-50580000D03*
%TO.P,U1,13,GND*%
%TO.N,GND*%
X96000000Y-48040000D03*
%TO.P,U1,14,VBUS*%
%TO.N,+5V*%
X96000000Y-45500000D03*
%TD*%
D16*
%TO.N,Row3*%
X111089000Y-123101000D02*
X112190000Y-122000000D01*
X72099000Y-61541000D02*
X72099000Y-119909000D01*
X94291000Y-123101000D02*
X111089000Y-123101000D01*
X93190000Y-122000000D02*
X94291000Y-123101000D01*
X112190000Y-122000000D02*
X113291000Y-123101000D01*
X75291000Y-123101000D02*
X92089000Y-123101000D01*
X80760000Y-52880000D02*
X72099000Y-61541000D01*
X74190000Y-122000000D02*
X75291000Y-123101000D01*
X72099000Y-119909000D02*
X74190000Y-122000000D01*
X113291000Y-123101000D02*
X130089000Y-123101000D01*
X130089000Y-123101000D02*
X131190000Y-122000000D01*
X92089000Y-123101000D02*
X93190000Y-122000000D01*
%TO.N,Row2*%
X80760000Y-55420000D02*
X72500000Y-63680000D01*
X93190000Y-103000000D02*
X94291000Y-104101000D01*
X74190000Y-103000000D02*
X75291000Y-104101000D01*
X72500000Y-101310000D02*
X74190000Y-103000000D01*
X92089000Y-104101000D02*
X93190000Y-103000000D01*
X112190000Y-103500000D02*
X112690000Y-104000000D01*
X112690000Y-104000000D02*
X119252950Y-104000000D01*
X111589000Y-104101000D02*
X112190000Y-103500000D01*
X75291000Y-104101000D02*
X92089000Y-104101000D01*
X94291000Y-104101000D02*
X111589000Y-104101000D01*
X119353950Y-104101000D02*
X120266050Y-104101000D01*
X119252950Y-104000000D02*
X119353950Y-104101000D01*
X72500000Y-63680000D02*
X72500000Y-101310000D01*
X120367050Y-104000000D02*
X130690000Y-104000000D01*
X120266050Y-104101000D02*
X120367050Y-104000000D01*
X130690000Y-104000000D02*
X131190000Y-103500000D01*
%TO.N,Row1*%
X73089000Y-64214840D02*
X73089000Y-82899000D01*
X113291000Y-85101000D02*
X130089000Y-85101000D01*
X74190000Y-84000000D02*
X75291000Y-85101000D01*
X73089000Y-82899000D02*
X74190000Y-84000000D01*
X94291000Y-85101000D02*
X111089000Y-85101000D01*
X130089000Y-85101000D02*
X131190000Y-84000000D01*
X92089000Y-85101000D02*
X93190000Y-84000000D01*
X111089000Y-85101000D02*
X112190000Y-84000000D01*
X93190000Y-84000000D02*
X94291000Y-85101000D01*
X112190000Y-84000000D02*
X113291000Y-85101000D01*
X75291000Y-85101000D02*
X92089000Y-85101000D01*
X79343840Y-57960000D02*
X73089000Y-64214840D01*
X80760000Y-57960000D02*
X79343840Y-57960000D01*
%TO.N,Row0*%
X74190000Y-65000000D02*
X75690000Y-66500000D01*
X93190000Y-65000000D02*
X94291000Y-66101000D01*
X75690000Y-66500000D02*
X91690000Y-66500000D01*
X80760000Y-60500000D02*
X78690000Y-60500000D01*
X78690000Y-60500000D02*
X74190000Y-65000000D01*
X92880000Y-65000000D02*
X93190000Y-65000000D01*
X93190000Y-65000000D02*
X91690000Y-66500000D01*
X111089000Y-66101000D02*
X112190000Y-65000000D01*
X113291000Y-66101000D02*
X130089000Y-66101000D01*
X112190000Y-65000000D02*
X113291000Y-66101000D01*
X94291000Y-66101000D02*
X111089000Y-66101000D01*
X130089000Y-66101000D02*
X131190000Y-65000000D01*
%TO.N,+5V*%
X107885000Y-54655000D02*
X98490000Y-45260000D01*
X98490000Y-45260000D02*
X96000000Y-45260000D01*
%TD*%
M02*
