M48
; DRILL file {KiCad 9.0.6} date 2025-12-06T16:37:57-0500
; FORMAT={-:-/ absolute / metric / decimal}
; #@! TF.CreationDate,2025-12-06T16:37:57-05:00
; #@! TF.GenerationSoftware,Kicad,Pcbnew,9.0.6
; #@! TF.FileFunction,Plated,1,2,PTH
FMAT,2
METRIC
; #@! TA.AperFunction,Plated,PTH,ComponentDrill
T1C0.800
; #@! TA.AperFunction,Plated,PTH,ComponentDrill
T2C0.889
; #@! TA.AperFunction,Plated,PTH,ComponentDrill
T3C1.000
; #@! TA.AperFunction,Plated,PTH,ComponentDrill
T4C1.500
%
G90
G05
T1
X74.19Y-65.0
X74.19Y-84.0
X74.19Y-103.0
X74.19Y-122.0
X81.81Y-65.0
X81.81Y-84.0
X81.81Y-103.0
X81.81Y-122.0
X93.19Y-65.0
X93.19Y-84.0
X93.19Y-103.0
X93.19Y-122.0
X100.81Y-65.0
X100.81Y-84.0
X100.81Y-103.0
X100.81Y-122.0
X112.19Y-65.0
X112.19Y-84.0
X112.19Y-103.0
X112.19Y-122.0
X119.81Y-65.0
X119.81Y-84.0
X119.81Y-103.0
X119.81Y-122.0
X131.19Y-65.0
X131.19Y-84.0
X131.19Y-103.0
X131.19Y-122.0
X138.81Y-65.0
X138.81Y-84.0
X138.81Y-103.0
X138.81Y-122.0
T2
X80.76Y-45.5
X80.76Y-48.04
X80.76Y-50.58
X80.76Y-53.12
X80.76Y-55.66
X80.76Y-58.2
X80.76Y-60.74
X96.0Y-45.5
X96.0Y-48.04
X96.0Y-50.58
X96.0Y-53.12
X96.0Y-55.66
X96.0Y-58.2
X96.0Y-60.74
T3
X107.885Y-49.575
X107.885Y-52.115
X107.885Y-54.655
X107.885Y-57.195
T4
X78.69Y-71.96
X78.69Y-90.96
X78.69Y-109.96
X78.69Y-128.96
X85.04Y-69.42
X85.04Y-88.42
X85.04Y-107.42
X85.04Y-126.42
X97.69Y-71.96
X97.69Y-90.96
X97.69Y-109.96
X97.69Y-128.96
X104.04Y-69.42
X104.04Y-88.42
X104.04Y-107.42
X104.04Y-126.42
X116.69Y-71.96
X116.69Y-90.96
X116.69Y-109.96
X116.69Y-128.96
X123.04Y-69.42
X123.04Y-88.42
X123.04Y-107.42
X123.04Y-126.42
X135.69Y-71.96
X135.69Y-90.96
X135.69Y-109.96
X135.69Y-128.96
X142.04Y-69.42
X142.04Y-88.42
X142.04Y-107.42
X142.04Y-126.42
M30
