M48
; DRILL file {KiCad 9.0.6} date 2025-12-06T16:37:57-0500
; FORMAT={-:-/ absolute / metric / decimal}
; #@! TF.CreationDate,2025-12-06T16:37:57-05:00
; #@! TF.GenerationSoftware,Kicad,Pcbnew,9.0.6
; #@! TF.FileFunction,NonPlated,1,2,NPTH
FMAT,2
METRIC
; #@! TA.AperFunction,NonPlated,NPTH,ComponentDrill
T1C1.700
; #@! TA.AperFunction,NonPlated,NPTH,ComponentDrill
T2C4.000
%
G90
G05
T1
X77.42Y-74.5
X77.42Y-93.5
X77.42Y-112.5
X77.42Y-131.5
X87.58Y-74.5
X87.58Y-93.5
X87.58Y-112.5
X87.58Y-131.5
X96.42Y-74.5
X96.42Y-93.5
X96.42Y-112.5
X96.42Y-131.5
X106.58Y-74.5
X106.58Y-93.5
X106.58Y-112.5
X106.58Y-131.5
X115.42Y-74.5
X115.42Y-93.5
X115.42Y-112.5
X115.42Y-131.5
X125.58Y-74.5
X125.58Y-93.5
X125.58Y-112.5
X125.58Y-131.5
X134.42Y-74.5
X134.42Y-93.5
X134.42Y-112.5
X134.42Y-131.5
X144.58Y-74.5
X144.58Y-93.5
X144.58Y-112.5
X144.58Y-131.5
T2
X82.5Y-74.5
X82.5Y-93.5
X82.5Y-112.5
X82.5Y-131.5
X101.5Y-74.5
X101.5Y-93.5
X101.5Y-112.5
X101.5Y-131.5
X120.5Y-74.5
X120.5Y-93.5
X120.5Y-112.5
X120.5Y-131.5
X139.5Y-74.5
X139.5Y-93.5
X139.5Y-112.5
X139.5Y-131.5
M30
